<?xml version="1.0" encoding="UTF-8" standalone="no"?>
<!-- Created with Inkscape (http://www.inkscape.org/) -->

<svg
   xmlns:dc="http://purl.org/dc/elements/1.1/"
   xmlns:cc="http://creativecommons.org/ns#"
   xmlns:rdf="http://www.w3.org/1999/02/22-rdf-syntax-ns#"
   xmlns:svg="http://www.w3.org/2000/svg"
   xmlns="http://www.w3.org/2000/svg"
   xmlns:sodipodi="http://sodipodi.sourceforge.net/DTD/sodipodi-0.dtd"
   xmlns:inkscape="http://www.inkscape.org/namespaces/inkscape"
   width="33.749992mm"
   height="33.750011mm"
   viewBox="0 0 33.749993 33.750011"
   version="1.1"
   id="svg5086"
   inkscape:version="0.92.3 (2405546, 2018-03-11)"
   sodipodi:docname="error.svg">
  <defs
     id="defs5080" />
  <sodipodi:namedview
     id="base"
     pagecolor="#ffffff"
     bordercolor="#666666"
     borderopacity="1.0"
     inkscape:pageopacity="0.0"
     inkscape:pageshadow="2"
     inkscape:zoom="0.35"
     inkscape:cx="63.77951"
     inkscape:cy="63.779542"
     inkscape:document-units="mm"
     inkscape:current-layer="layer1"
     showgrid="false"
     fit-margin-top="0"
     fit-margin-left="0"
     fit-margin-right="0"
     fit-margin-bottom="0"
     inkscape:window-width="460"
     inkscape:window-height="403"
     inkscape:window-x="1392"
     inkscape:window-y="8"
     inkscape:window-maximized="0" />
  <metadata
     id="metadata5083">
    <rdf:RDF>
      <cc:Work
         rdf:about="">
        <dc:format>image/svg+xml</dc:format>
        <dc:type
           rdf:resource="http://purl.org/dc/dcmitype/StillImage" />
        <dc:title></dc:title>
      </cc:Work>
    </rdf:RDF>
  </metadata>
  <g
     inkscape:label="Layer 1"
     inkscape:groupmode="layer"
     id="layer1"
     transform="translate(-88.958338,-131.95833)">
    <path
       d="m 91.208344,165.70833 h 29.249976 q 2.25002,0 2.25002,-2.24999 v -29.25001 q 0,-2.24999 -2.25002,-2.24999 H 91.208344 q -2.250017,0 -2.250017,2.24999 v 29.25001 q 0,2.24999 2.250017,2.24999 z"
       style="fill:#0f2dfb;fill-rule:evenodd;stroke-width:0.26458332"
       id="path311"
       inkscape:connector-curvature="0" />
    <g
       transform="matrix(0.26458333,0,0,0.26458333,6.4583336,-21.791667)"
       id="Layer1019">
      <path
         d="m 331.6535,694.4882 h 2.8347 q 5.6693,0 5.6693,-5.6693 v -87.874 q 0,-5.6693 -5.6693,-5.6693 h -2.8347 q -5.6692,0 -5.6692,5.6693 v 87.874 q 0,5.6693 5.6692,5.6693 z"
         style="fill:#000000;fill-rule:evenodd;stroke-width:0.23999999;stroke-linecap:round;stroke-linejoin:round"
         id="path313"
         inkscape:connector-curvature="0" />
      <path
         d="m 331.6535,694.4882 h 2.8347 q 5.6693,0 5.6693,-5.6693 v -87.874 q 0,-5.6693 -5.6693,-5.6693 h -2.8347 q -5.6692,0 -5.6692,5.6693 v 87.874 q 0,5.6693 5.6692,5.6693 z"
         style="fill:none;stroke:#000000;stroke-width:0.23999999;stroke-linecap:round;stroke-linejoin:round;stroke-dasharray:none"
         id="path315"
         inkscape:connector-curvature="0" />
    </g>
    <g
       transform="matrix(0.26458333,0,0,0.26458333,6.4583336,-21.791667)"
       id="Layer1020">
      <path
         d="m 345.8268,623.622 h 2.8346 q 5.6693,0 5.6693,-5.6692 v -17.0079 q 0,-5.6693 -5.6693,-5.6693 h -2.8346 q -5.6693,0 -5.6693,5.6693 v 17.0079 q 0,5.6692 5.6693,5.6692 z"
         style="fill:#000000;fill-rule:evenodd;stroke-width:0.23999999;stroke-linecap:round;stroke-linejoin:round"
         id="path318"
         inkscape:connector-curvature="0" />
      <path
         d="m 345.8268,623.622 h 2.8346 q 5.6693,0 5.6693,-5.6692 v -17.0079 q 0,-5.6693 -5.6693,-5.6693 h -2.8346 q -5.6693,0 -5.6693,5.6693 v 17.0079 q 0,5.6692 5.6693,5.6692 z"
         style="fill:none;stroke:#000000;stroke-width:0.23999999;stroke-linecap:round;stroke-linejoin:round;stroke-dasharray:none"
         id="path320"
         inkscape:connector-curvature="0" />
    </g>
    <path
       d="m 104.70834,143.20832 h 0.74999 q 1.5,0 1.5,-1.49998 v -4.50001 q 0,-1.5 -1.5,-1.5 h -0.74999 q -1.5,0 -1.5,1.5 v 4.50001 q 0,1.49998 1.5,1.49998 z"
       style="fill:#ffffff;fill-rule:evenodd;stroke-width:0.26458332"
       id="path323"
       inkscape:connector-curvature="0" />
    <path
       d="m 110.70832,153.70833 h 0.75002 q 1.5,0 1.5,-1.5 v -15 q 0,-1.5 -1.5,-1.5 h -0.75002 q -1.49997,0 -1.49997,1.5 v 15 q 0,1.5 1.49997,1.5 z"
       style="fill:#ffffff;fill-rule:evenodd;stroke-width:0.26458332"
       id="path325"
       inkscape:connector-curvature="0" />
    <path
       d="m 116.70833,161.95833 h 0.75002 q 1.5,0 1.5,-1.5 v -23.25 q 0,-1.5 -1.5,-1.5 h -0.75002 q -1.5,0 -1.5,1.5 v 23.25 q 0,1.5 1.5,1.5 z"
       style="fill:#ffffff;fill-rule:evenodd;stroke-width:0.26458332"
       id="path327"
       inkscape:connector-curvature="0" />
  </g>
</svg>
