<?xml version="1.0" encoding="UTF-8" standalone="no"?>
<!-- Created with Inkscape (http://www.inkscape.org/) -->

<svg
   xmlns:dc="http://purl.org/dc/elements/1.1/"
   xmlns:cc="http://creativecommons.org/ns#"
   xmlns:rdf="http://www.w3.org/1999/02/22-rdf-syntax-ns#"
   xmlns:svg="http://www.w3.org/2000/svg"
   xmlns="http://www.w3.org/2000/svg"
   xmlns:sodipodi="http://sodipodi.sourceforge.net/DTD/sodipodi-0.dtd"
   xmlns:inkscape="http://www.inkscape.org/namespaces/inkscape"
   width="33.750011mm"
   height="33.750011mm"
   viewBox="0 0 33.750012 33.750011"
   version="1.1"
   id="svg7248"
   inkscape:version="0.92.3 (2405546, 2018-03-11)"
   sodipodi:docname="error.svg">
  <defs
     id="defs7242" />
  <sodipodi:namedview
     id="base"
     pagecolor="#ffffff"
     bordercolor="#666666"
     borderopacity="1.0"
     inkscape:pageopacity="0.0"
     inkscape:pageshadow="2"
     inkscape:zoom="0.35"
     inkscape:cx="170.41624"
     inkscape:cy="310.41623"
     inkscape:document-units="mm"
     inkscape:current-layer="layer1"
     showgrid="false"
     fit-margin-top="0"
     fit-margin-left="0"
     fit-margin-right="0"
     fit-margin-bottom="0"
     inkscape:window-width="716"
     inkscape:window-height="403"
     inkscape:window-x="657"
     inkscape:window-y="542"
     inkscape:window-maximized="0" />
  <metadata
     id="metadata7245">
    <rdf:RDF>
      <cc:Work
         rdf:about="">
        <dc:format>image/svg+xml</dc:format>
        <dc:type
           rdf:resource="http://purl.org/dc/dcmitype/StillImage" />
        <dc:title></dc:title>
      </cc:Work>
    </rdf:RDF>
  </metadata>
  <g
     inkscape:label="Layer 1"
     inkscape:groupmode="layer"
     id="layer1"
     transform="translate(-60.744036,-197.21429)">
    <path
       inkscape:connector-curvature="0"
       d="m 62.994053,230.9643 h 29.249975 q 2.25002,0 2.25002,-2.25001 v -29.24998 q 0,-2.25002 -2.25002,-2.25002 H 62.994053 q -2.250017,0 -2.250017,2.25002 v 29.24998 q 0,2.25001 2.250017,2.25001 z"
       style="fill:#ff0000;fill-rule:evenodd;stroke-width:0.26458332"
       id="path5510" />
    <g
       transform="matrix(0.26458333,0,0,0.26458333,-21.755957,-1141.5357)"
       id="Layer1548">
      <path
         d="m 362.8346,5156.2205 q 8.8583,0 8.8583,-8.8583 v -21.9685 q 0,-8.8583 -8.8583,-8.8583 -8.8582,0 -8.8582,8.8583 v 21.9685 q 0,8.8583 8.8582,8.8583 z"
         style="fill:#000000;fill-rule:evenodd;stroke-width:0.23999999;stroke-linecap:round;stroke-linejoin:round"
         id="path5512"
         inkscape:connector-curvature="0" />
      <path
         d="m 362.8346,5156.2205 q 8.8583,0 8.8583,-8.8583 v -21.9685 q 0,-8.8583 -8.8583,-8.8583 -8.8582,0 -8.8582,8.8583 v 21.9685 q 0,8.8583 8.8582,8.8583 z"
         style="fill:none;stroke:#000000;stroke-width:0.23999999;stroke-linecap:round;stroke-linejoin:round;stroke-dasharray:none"
         id="path5514"
         inkscape:connector-curvature="0" />
    </g>
    <g
       transform="matrix(0.26458333,0,0,0.26458333,-21.755957,-1141.5357)"
       id="Layer1549">
      <path
         d="m 325.9843,5157.6378 q 0,8.8583 8.8582,8.8583 h 55.9843 q 8.8582,0 8.8582,-8.8583 0,-8.8583 -8.8582,-8.8583 h -55.9843 q -8.8582,0 -8.8582,8.8583 z"
         style="fill:#000000;fill-rule:evenodd;stroke-width:0.23999999;stroke-linecap:round;stroke-linejoin:round"
         id="path5517"
         inkscape:connector-curvature="0" />
      <path
         d="m 325.9843,5157.6378 q 0,8.8583 8.8582,8.8583 h 55.9843 q 8.8582,0 8.8582,-8.8583 0,-8.8583 -8.8582,-8.8583 h -55.9843 q -8.8582,0 -8.8582,8.8583 z"
         style="fill:none;stroke:#000000;stroke-width:0.23999999;stroke-linecap:round;stroke-linejoin:round;stroke-dasharray:none"
         id="path5519"
         inkscape:connector-curvature="0" />
    </g>
    <g
       transform="matrix(0.26458333,0,0,0.26458333,-21.755957,-1141.5357)"
       id="Layer1550">
      <path
         d="m 398.4765,5130.3502 h 18.9251 q 5.6693,0 5.6693,-5.6693 v -18.925 q 0,-5.6693 -5.6693,-5.6693 h -18.9251 q -5.6692,0 -5.6692,5.6693 v 18.925 q 0,5.6693 5.6692,5.6693 z"
         style="fill:#e8eef7;fill-rule:evenodd;stroke-width:6;stroke-linecap:round;stroke-linejoin:round"
         id="path5522"
         inkscape:connector-curvature="0" />
      <path
         d="m 398.4765,5130.3502 h 18.9251 q 5.6693,0 5.6693,-5.6693 v -18.925 q 0,-5.6693 -5.6693,-5.6693 h -18.9251 q -5.6692,0 -5.6692,5.6693 v 18.925 q 0,5.6693 5.6692,5.6693 z"
         style="fill:none;stroke:#000000;stroke-width:6;stroke-linecap:round;stroke-linejoin:round;stroke-dasharray:none"
         id="path5524"
         inkscape:connector-curvature="0" />
    </g>
    <g
       transform="matrix(0.26458333,0,0,0.26458333,-21.755957,-1141.5357)"
       id="Layer1551">
      <path
         d="m 406.71,5122.4505 h 2.6806 q 5.6693,0 5.6693,-5.6693 v -2.6806 q 0,-5.6693 -5.6693,-5.6693 H 406.71 q -5.6693,0 -5.6693,5.6693 v 2.6806 q 0,5.6693 5.6693,5.6693 z"
         style="fill:#000000;fill-rule:evenodd;stroke-width:4.5;stroke-linecap:round;stroke-linejoin:round"
         id="path5527"
         inkscape:connector-curvature="0" />
      <path
         d="m 406.71,5122.4505 h 2.6806 q 5.6693,0 5.6693,-5.6693 v -2.6806 q 0,-5.6693 -5.6693,-5.6693 H 406.71 q -5.6693,0 -5.6693,5.6693 v 2.6806 q 0,5.6693 5.6693,5.6693 z"
         style="fill:none;stroke:#000000;stroke-width:4.5;stroke-linecap:round;stroke-linejoin:round;stroke-dasharray:none"
         id="path5529"
         inkscape:connector-curvature="0" />
    </g>
    <path
       inkscape:connector-curvature="0"
       d="m 82.362508,208.27639 -8.66648,-6.41962"
       style="fill:none;stroke:#000000;stroke-width:1.19062495;stroke-linecap:round;stroke-linejoin:round;stroke-dasharray:none"
       id="path5532" />
    <path
       inkscape:connector-curvature="0"
       d="m 89.298398,207.74444 -8.24275,-5.88767"
       style="fill:none;stroke:#000000;stroke-width:1.19062495;stroke-linecap:round;stroke-linejoin:round;stroke-dasharray:none"
       id="path5534" />
    <path
       inkscape:connector-curvature="0"
       d="m 73.166148,201.79791 h 7.8306"
       style="fill:none;stroke:#000000;stroke-width:1.19062495;stroke-linecap:round;stroke-linejoin:round;stroke-dasharray:none"
       id="path5536" />
    <path
       inkscape:connector-curvature="0"
       d="m 82.115408,215.39736 -7.85437,-5.65177 q -0.62388,-0.44894 -0.62388,-1.21756 v -6.67126"
       style="fill:none;stroke:#000000;stroke-width:1.19062495;stroke-linecap:round;stroke-linejoin:round;stroke-dasharray:none"
       id="path5538" />
    <path
       inkscape:connector-curvature="0"
       d="m 74.461438,202.44555 h 7.3596"
       style="fill:none;stroke:#000000;stroke-width:1.19062495;stroke-linecap:round;stroke-linejoin:round;stroke-dasharray:none"
       id="path5540" />
    <path
       inkscape:connector-curvature="0"
       d="m 75.756728,203.32868 h 7.3596"
       style="fill:none;stroke:#000000;stroke-width:1.19062495;stroke-linecap:round;stroke-linejoin:round;stroke-dasharray:none"
       id="path5542" />
    <path
       inkscape:connector-curvature="0"
       d="m 76.934258,204.21183 h 7.3596"
       style="fill:none;stroke:#000000;stroke-width:1.19062495;stroke-linecap:round;stroke-linejoin:round;stroke-dasharray:none"
       id="path5544" />
    <path
       inkscape:connector-curvature="0"
       d="m 77.640778,204.80061 h 7.3596"
       style="fill:none;stroke:#000000;stroke-width:1.19062495;stroke-linecap:round;stroke-linejoin:round;stroke-dasharray:none"
       id="path5546" />
    <path
       inkscape:connector-curvature="0"
       d="m 78.366288,205.74578 7.57614,-0.35639"
       style="fill:none;stroke:#000000;stroke-width:1.19062495;stroke-linecap:round;stroke-linejoin:round;stroke-dasharray:none"
       id="path5548" />
    <path
       inkscape:connector-curvature="0"
       d="m 79.642588,206.27254 h 7.3596"
       style="fill:none;stroke:#000000;stroke-width:1.19062495;stroke-linecap:round;stroke-linejoin:round;stroke-dasharray:none"
       id="path5550" />
    <path
       inkscape:connector-curvature="0"
       d="m 80.231368,206.56691 h 7.35959"
       style="fill:none;stroke:#000000;stroke-width:1.19062495;stroke-linecap:round;stroke-linejoin:round;stroke-dasharray:none"
       id="path5552" />
    <path
       inkscape:connector-curvature="0"
       d="m 80.349108,206.68468 h 7.35962"
       style="fill:none;stroke:#000000;stroke-width:1.19062495;stroke-linecap:round;stroke-linejoin:round;stroke-dasharray:none"
       id="path5554" />
    <path
       inkscape:connector-curvature="0"
       d="m 81.055648,207.15569 h 7.3596"
       style="fill:none;stroke:#000000;stroke-width:1.19062495;stroke-linecap:round;stroke-linejoin:round;stroke-dasharray:none"
       id="path5556" />
    <path
       inkscape:connector-curvature="0"
       d="m 81.408898,207.92108 h 8.06611"
       style="fill:none;stroke:#000000;stroke-width:1.19062495;stroke-linecap:round;stroke-linejoin:round;stroke-dasharray:none"
       id="path5558" />
    <path
       inkscape:connector-curvature="0"
       d="m 74.579178,203.0343 v 6.77085"
       style="fill:none;stroke:#000000;stroke-width:1.58749998;stroke-linecap:round;stroke-linejoin:round;stroke-dasharray:none"
       id="path5560" />
    <path
       inkscape:connector-curvature="0"
       d="m 75.756728,203.62308 v 6.77082"
       style="fill:none;stroke:#000000;stroke-width:1.58749998;stroke-linecap:round;stroke-linejoin:round;stroke-dasharray:none"
       id="path5562" />
    <path
       inkscape:connector-curvature="0"
       d="m 76.051108,203.62308 v 6.77082"
       style="fill:none;stroke:#000000;stroke-width:1.58749998;stroke-linecap:round;stroke-linejoin:round;stroke-dasharray:none"
       id="path5564" />
    <path
       inkscape:connector-curvature="0"
       d="m 76.934258,204.21183 v 6.77085"
       style="fill:none;stroke:#000000;stroke-width:1.58749998;stroke-linecap:round;stroke-linejoin:round;stroke-dasharray:none"
       id="path5566" />
    <path
       inkscape:connector-curvature="0"
       d="m 77.523038,204.80061 v 6.77084"
       style="fill:none;stroke:#000000;stroke-width:1.58749998;stroke-linecap:round;stroke-linejoin:round;stroke-dasharray:none"
       id="path5568" />
    <path
       inkscape:connector-curvature="0"
       d="m 78.366288,205.74578 -0.2545,6.41443"
       style="fill:none;stroke:#000000;stroke-width:1.58749998;stroke-linecap:round;stroke-linejoin:round;stroke-dasharray:none"
       id="path5570" />
    <path
       inkscape:connector-curvature="0"
       d="m 78.700568,205.68376 v 6.77085"
       style="fill:none;stroke:#000000;stroke-width:1.58749998;stroke-linecap:round;stroke-linejoin:round;stroke-dasharray:none"
       id="path5572" />
    <path
       inkscape:connector-curvature="0"
       d="m 79.878098,205.97814 v 4.12138"
       style="fill:none;stroke:#000000;stroke-width:1.58749998;stroke-linecap:round;stroke-linejoin:round;stroke-dasharray:none"
       id="path5574" />
    <path
       inkscape:connector-curvature="0"
       d="m 80.172498,206.56691 v 6.77085"
       style="fill:none;stroke:#000000;stroke-width:1.58749998;stroke-linecap:round;stroke-linejoin:round;stroke-dasharray:none"
       id="path5576" />
    <path
       inkscape:connector-curvature="0"
       d="m 80.466868,206.56691 -0.29437,6.77085"
       style="fill:none;stroke:#000000;stroke-width:1.58749998;stroke-linecap:round;stroke-linejoin:round;stroke-dasharray:none"
       id="path5578" />
    <path
       inkscape:connector-curvature="0"
       d="m 81.055648,207.15569 v 6.77082"
       style="fill:none;stroke:#000000;stroke-width:1.58749998;stroke-linecap:round;stroke-linejoin:round;stroke-dasharray:none"
       id="path5580" />
    <path
       inkscape:connector-curvature="0"
       d="m 74.892158,202.63573 7.28215,5.22648"
       style="fill:none;stroke:#ffffff;stroke-width:1.58749998;stroke-linecap:round;stroke-linejoin:round;stroke-dasharray:none"
       id="path5582" />
    <g
       transform="matrix(0.26458333,0,0,0.26458333,-21.755957,-1141.5357)"
       id="Layer1552">
      <path
         d="m 344.328,5115.2821 12.755,7.3641 7.6215,-13.2009 -12.7549,-7.3641 z"
         style="fill:#000000;fill-rule:evenodd;stroke-width:0.23999999;stroke-linecap:round;stroke-linejoin:round"
         id="path5584"
         inkscape:connector-curvature="0" />
      <path
         d="m 344.328,5115.2821 12.755,7.3641 7.6215,-13.2009 -12.7549,-7.3641 z"
         style="fill:none;stroke:#000000;stroke-width:0.23999999;stroke-linecap:round;stroke-linejoin:round;stroke-dasharray:none"
         id="path5586"
         inkscape:connector-curvature="0" />
    </g>
    <g
       transform="matrix(0.26458333,0,0,0.26458333,-21.755957,-1141.5357)"
       id="Layer1553">
      <path
         d="m 368.658,5130.3502 h 18.48 q 5.6693,0 5.6693,-5.6693 v -18.48 q 0,-5.6693 -5.6693,-5.6693 h -18.48 q -5.6693,0 -5.6693,5.6693 v 18.48 q 0,5.6693 5.6693,5.6693 z"
         style="fill:#e8eef7;fill-rule:evenodd;stroke-width:6;stroke-linecap:round;stroke-linejoin:round"
         id="path5589"
         inkscape:connector-curvature="0" />
      <path
         d="m 368.658,5130.3502 h 18.48 q 5.6693,0 5.6693,-5.6693 v -18.48 q 0,-5.6693 -5.6693,-5.6693 h -18.48 q -5.6693,0 -5.6693,5.6693 v 18.48 q 0,5.6693 5.6693,5.6693 z"
         style="fill:none;stroke:#000000;stroke-width:6;stroke-linecap:round;stroke-linejoin:round;stroke-dasharray:none"
         id="path5591"
         inkscape:connector-curvature="0" />
    </g>
    <g
       transform="matrix(0.26458333,0,0,0.26458333,-21.755957,-1141.5357)"
       id="Layer1554">
      <path
         d="m 376.6689,5122.7843 h 2.6806 q 5.6693,0 5.6693,-5.6693 v -2.6806 q 0,-5.6693 -5.6693,-5.6693 h -2.6806 q -5.6692,0 -5.6692,5.6693 v 2.6806 q 0,5.6693 5.6692,5.6693 z"
         style="fill:#ff0000;fill-rule:evenodd;stroke-width:4.5;stroke-linecap:round;stroke-linejoin:round"
         id="path5594"
         inkscape:connector-curvature="0" />
      <path
         d="m 376.6689,5122.7843 h 2.6806 q 5.6693,0 5.6693,-5.6693 v -2.6806 q 0,-5.6693 -5.6693,-5.6693 h -2.6806 q -5.6692,0 -5.6692,5.6693 v 2.6806 q 0,5.6693 5.6692,5.6693 z"
         style="fill:none;stroke:#ff0000;stroke-width:4.5;stroke-linecap:round;stroke-linejoin:round;stroke-dasharray:none"
         id="path5596"
         inkscape:connector-curvature="0" />
    </g>
    <path
       inkscape:connector-curvature="0"
       d="m 74.531898,208.24593 -8.666481,-6.41961"
       style="fill:none;stroke:#000000;stroke-width:1.19062495;stroke-linecap:round;stroke-linejoin:round;stroke-dasharray:none"
       id="path5599" />
    <path
       inkscape:connector-curvature="0"
       d="m 81.467768,207.86221 -8.24275,-5.8877"
       style="fill:none;stroke:#000000;stroke-width:1.19062495;stroke-linecap:round;stroke-linejoin:round;stroke-dasharray:none"
       id="path5601" />
    <path
       inkscape:connector-curvature="0"
       d="m 65.865417,201.79791 h 7.359601"
       style="fill:none;stroke:#000000;stroke-width:1.19062495;stroke-linecap:round;stroke-linejoin:round;stroke-dasharray:none"
       id="path5603" />
    <path
       inkscape:connector-curvature="0"
       d="m 74.284798,215.51512 -7.856877,-5.67817 q -0.621374,-0.44908 -0.621374,-1.21573 v -6.70558"
       style="fill:none;stroke:#000000;stroke-width:1.19062495;stroke-linecap:round;stroke-linejoin:round;stroke-dasharray:none"
       id="path5605" />
    <path
       inkscape:connector-curvature="0"
       d="m 66.63083,202.56329 h 9.067008"
       style="fill:none;stroke:#000000;stroke-width:1.19062495;stroke-linecap:round;stroke-linejoin:round;stroke-dasharray:none"
       id="path5607" />
    <path
       inkscape:connector-curvature="0"
       d="m 67.926098,203.44644 h 7.35962"
       style="fill:none;stroke:#000000;stroke-width:1.19062495;stroke-linecap:round;stroke-linejoin:round;stroke-dasharray:none"
       id="path5609" />
    <path
       inkscape:connector-curvature="0"
       d="m 69.103652,204.3296 h 7.359596"
       style="fill:none;stroke:#000000;stroke-width:1.19062495;stroke-linecap:round;stroke-linejoin:round;stroke-dasharray:none"
       id="path5611" />
    <path
       inkscape:connector-curvature="0"
       d="m 69.810169,204.91837 h 7.359599"
       style="fill:none;stroke:#000000;stroke-width:1.19062495;stroke-linecap:round;stroke-linejoin:round;stroke-dasharray:none"
       id="path5613" />
    <path
       inkscape:connector-curvature="0"
       d="m 70.752192,205.50713 7.614096,0.23865"
       style="fill:none;stroke:#000000;stroke-width:1.19062495;stroke-linecap:round;stroke-linejoin:round;stroke-dasharray:none"
       id="path5615" />
    <path
       inkscape:connector-curvature="0"
       d="m 71.811978,206.39028 h 7.3596"
       style="fill:none;stroke:#000000;stroke-width:1.19062495;stroke-linecap:round;stroke-linejoin:round;stroke-dasharray:none"
       id="path5617" />
    <path
       inkscape:connector-curvature="0"
       d="m 72.400758,206.68468 h 7.3596"
       style="fill:none;stroke:#000000;stroke-width:1.19062495;stroke-linecap:round;stroke-linejoin:round;stroke-dasharray:none"
       id="path5619" />
    <path
       inkscape:connector-curvature="0"
       d="m 72.518498,206.80242 h 7.3596"
       style="fill:none;stroke:#000000;stroke-width:1.19062495;stroke-linecap:round;stroke-linejoin:round;stroke-dasharray:none"
       id="path5621" />
    <path
       inkscape:connector-curvature="0"
       d="m 73.225018,207.27343 h 7.35959"
       style="fill:none;stroke:#000000;stroke-width:1.19062495;stroke-linecap:round;stroke-linejoin:round;stroke-dasharray:none"
       id="path5623" />
    <path
       inkscape:connector-curvature="0"
       d="m 74.284798,207.97995 h 7.3596"
       style="fill:none;stroke:#000000;stroke-width:1.19062495;stroke-linecap:round;stroke-linejoin:round;stroke-dasharray:none"
       id="path5625" />
    <path
       inkscape:connector-curvature="0"
       d="m 66.74857,203.15207 v 6.77082"
       style="fill:none;stroke:#000000;stroke-width:1.58749998;stroke-linecap:round;stroke-linejoin:round;stroke-dasharray:none"
       id="path5627" />
    <path
       inkscape:connector-curvature="0"
       d="m 67.926098,203.74082 v 6.77085"
       style="fill:none;stroke:#000000;stroke-width:1.58749998;stroke-linecap:round;stroke-linejoin:round;stroke-dasharray:none"
       id="path5629" />
    <path
       inkscape:connector-curvature="0"
       d="m 68.2205,203.74082 v 6.77085"
       style="fill:none;stroke:#000000;stroke-width:1.58749998;stroke-linecap:round;stroke-linejoin:round;stroke-dasharray:none"
       id="path5631" />
    <path
       inkscape:connector-curvature="0"
       d="m 69.103652,204.3296 v 6.77084"
       style="fill:none;stroke:#000000;stroke-width:1.58749998;stroke-linecap:round;stroke-linejoin:round;stroke-dasharray:none"
       id="path5633" />
    <path
       inkscape:connector-curvature="0"
       d="m 69.692403,204.91837 v 6.77082"
       style="fill:none;stroke:#000000;stroke-width:1.58749998;stroke-linecap:round;stroke-linejoin:round;stroke-dasharray:none"
       id="path5635" />
    <path
       inkscape:connector-curvature="0"
       d="m 70.28118,205.50713 v 6.77084"
       style="fill:none;stroke:#000000;stroke-width:1.58749998;stroke-linecap:round;stroke-linejoin:round;stroke-dasharray:none"
       id="path5637" />
    <path
       inkscape:connector-curvature="0"
       d="m 70.869958,205.80153 v 6.77082"
       style="fill:none;stroke:#000000;stroke-width:1.58749998;stroke-linecap:round;stroke-linejoin:round;stroke-dasharray:none"
       id="path5639" />
    <path
       inkscape:connector-curvature="0"
       d="m 72.047488,206.0959 v 4.12139"
       style="fill:none;stroke:#000000;stroke-width:1.58749998;stroke-linecap:round;stroke-linejoin:round;stroke-dasharray:none"
       id="path5641" />
    <path
       inkscape:connector-curvature="0"
       d="m 72.341858,206.68468 1.38864,5.40004"
       style="fill:none;stroke:#000000;stroke-width:1.58749998;stroke-linecap:round;stroke-linejoin:round;stroke-dasharray:none"
       id="path5643" />
    <path
       inkscape:connector-curvature="0"
       d="m 72.636268,206.68468 1.09423,5.40004"
       style="fill:none;stroke:#000000;stroke-width:1.58749998;stroke-linecap:round;stroke-linejoin:round;stroke-dasharray:none"
       id="path5645" />
    <path
       inkscape:connector-curvature="0"
       d="m 73.225018,207.27343 v 6.77085"
       style="fill:none;stroke:#000000;stroke-width:1.58749998;stroke-linecap:round;stroke-linejoin:round;stroke-dasharray:none"
       id="path5647" />
    <path
       inkscape:connector-curvature="0"
       d="m 67.061545,202.60528 7.223253,5.22647"
       style="fill:none;stroke:#ffffff;stroke-width:1.58749998;stroke-linecap:round;stroke-linejoin:round;stroke-dasharray:none"
       id="path5649" />
    <g
       transform="matrix(0.26458333,0,0,0.26458333,-21.755957,-1141.5357)"
       id="Layer1555">
      <path
         d="m 394.4736,5103.332 3.7881,-5.41 -32.1175,-22.4889 -3.7882,5.41 z"
         style="fill:#000000;fill-rule:evenodd;stroke-width:0.23999999;stroke-linecap:round;stroke-linejoin:round"
         id="path5651"
         inkscape:connector-curvature="0" />
      <path
         d="m 394.4736,5103.332 3.7881,-5.41 -32.1175,-22.4889 -3.7882,5.41 z"
         style="fill:none;stroke:#000000;stroke-width:0.23999999;stroke-linecap:round;stroke-linejoin:round;stroke-dasharray:none"
         id="path5653"
         inkscape:connector-curvature="0" />
    </g>
  </g>
</svg>
