<?xml version="1.0" encoding="UTF-8" standalone="no"?>
<!-- Created with Inkscape (http://www.inkscape.org/) -->

<svg
   xmlns:dc="http://purl.org/dc/elements/1.1/"
   xmlns:cc="http://creativecommons.org/ns#"
   xmlns:rdf="http://www.w3.org/1999/02/22-rdf-syntax-ns#"
   xmlns:svg="http://www.w3.org/2000/svg"
   xmlns="http://www.w3.org/2000/svg"
   xmlns:sodipodi="http://sodipodi.sourceforge.net/DTD/sodipodi-0.dtd"
   xmlns:inkscape="http://www.inkscape.org/namespaces/inkscape"
   width="33.750019mm"
   height="33.750011mm"
   viewBox="0 0 33.75002 33.750011"
   version="1.1"
   id="svg7248"
   inkscape:version="0.92.3 (2405546, 2018-03-11)"
   sodipodi:docname="error.svg">
  <defs
     id="defs7242" />
  <sodipodi:namedview
     id="base"
     pagecolor="#ffffff"
     bordercolor="#666666"
     borderopacity="1.0"
     inkscape:pageopacity="0.0"
     inkscape:pageshadow="2"
     inkscape:zoom="0.35"
     inkscape:cx="-251.51848"
     inkscape:cy="251.33862"
     inkscape:document-units="mm"
     inkscape:current-layer="layer1"
     showgrid="false"
     fit-margin-top="0"
     fit-margin-left="0"
     fit-margin-right="0"
     fit-margin-bottom="0"
     inkscape:window-width="716"
     inkscape:window-height="403"
     inkscape:window-x="657"
     inkscape:window-y="542"
     inkscape:window-maximized="0" />
  <metadata
     id="metadata7245">
    <rdf:RDF>
      <cc:Work
         rdf:about="">
        <dc:format>image/svg+xml</dc:format>
        <dc:type
           rdf:resource="http://purl.org/dc/dcmitype/StillImage" />
        <dc:title></dc:title>
      </cc:Work>
    </rdf:RDF>
  </metadata>
  <g
     inkscape:label="Layer 1"
     inkscape:groupmode="layer"
     id="layer1"
     transform="translate(-172.38093,-181.58334)">
    <path
       inkscape:connector-curvature="0"
       d="m 174.63092,215.33335 h 29.25001 q 2.25002,0 2.25002,-2.25001 v -29.24998 q 0,-2.25002 -2.25002,-2.25002 h -29.25001 q -2.24999,0 -2.24999,2.25002 v 29.24998 q 0,2.25001 2.24999,2.25001 z"
       style="fill:#0f2dfb;fill-rule:evenodd;stroke-width:0.26458332"
       id="path5656" />
    <g
       transform="matrix(0.26458333,0,0,0.26458333,52.380937,-1157.1666)"
       id="Layer1556">
      <path
         d="m 504.5669,5156.2205 q 8.8583,0 8.8583,-8.8583 v -21.9685 q 0,-8.8583 -8.8583,-8.8583 -8.8582,0 -8.8582,8.8583 v 21.9685 q 0,8.8583 8.8582,8.8583 z"
         style="fill:#000000;fill-rule:evenodd;stroke-width:0.23999999;stroke-linecap:round;stroke-linejoin:round"
         id="path5658"
         inkscape:connector-curvature="0" />
      <path
         d="m 504.5669,5156.2205 q 8.8583,0 8.8583,-8.8583 v -21.9685 q 0,-8.8583 -8.8583,-8.8583 -8.8582,0 -8.8582,8.8583 v 21.9685 q 0,8.8583 8.8582,8.8583 z"
         style="fill:none;stroke:#000000;stroke-width:0.23999999;stroke-linecap:round;stroke-linejoin:round;stroke-dasharray:none"
         id="path5660"
         inkscape:connector-curvature="0" />
    </g>
    <g
       transform="matrix(0.26458333,0,0,0.26458333,52.380937,-1157.1666)"
       id="Layer1557">
      <path
         d="m 467.7165,5157.6378 q 0,8.8583 8.8583,8.8583 h 55.9843 q 8.8582,0 8.8582,-8.8583 0,-8.8583 -8.8582,-8.8583 h -55.9843 q -8.8583,0 -8.8583,8.8583 z"
         style="fill:#000000;fill-rule:evenodd;stroke-width:0.23999999;stroke-linecap:round;stroke-linejoin:round"
         id="path5663"
         inkscape:connector-curvature="0" />
      <path
         d="m 467.7165,5157.6378 q 0,8.8583 8.8583,8.8583 h 55.9843 q 8.8582,0 8.8582,-8.8583 0,-8.8583 -8.8582,-8.8583 h -55.9843 q -8.8583,0 -8.8583,8.8583 z"
         style="fill:none;stroke:#000000;stroke-width:0.23999999;stroke-linecap:round;stroke-linejoin:round;stroke-dasharray:none"
         id="path5665"
         inkscape:connector-curvature="0" />
    </g>
    <g
       transform="matrix(0.26458333,0,0,0.26458333,52.380937,-1157.1666)"
       id="Layer1558">
      <path
         d="m 540.2088,5130.3502 h 18.9251 q 5.6692,0 5.6692,-5.6693 v -18.925 q 0,-5.6693 -5.6692,-5.6693 h -18.9251 q -5.6693,0 -5.6693,5.6693 v 18.925 q 0,5.6693 5.6693,5.6693 z"
         style="fill:#e8eef7;fill-rule:evenodd;stroke-width:6;stroke-linecap:round;stroke-linejoin:round"
         id="path5668"
         inkscape:connector-curvature="0" />
      <path
         d="m 540.2088,5130.3502 h 18.9251 q 5.6692,0 5.6692,-5.6693 v -18.925 q 0,-5.6693 -5.6692,-5.6693 h -18.9251 q -5.6693,0 -5.6693,5.6693 v 18.925 q 0,5.6693 5.6693,5.6693 z"
         style="fill:none;stroke:#000000;stroke-width:6;stroke-linecap:round;stroke-linejoin:round;stroke-dasharray:none"
         id="path5670"
         inkscape:connector-curvature="0" />
    </g>
    <g
       transform="matrix(0.26458333,0,0,0.26458333,52.380937,-1157.1666)"
       id="Layer1559">
      <path
         d="m 548.4423,5122.4505 h 2.6806 q 5.6693,0 5.6693,-5.6693 v -2.6806 q 0,-5.6693 -5.6693,-5.6693 h -2.6806 q -5.6693,0 -5.6693,5.6693 v 2.6806 q 0,5.6693 5.6693,5.6693 z"
         style="fill:#000000;fill-rule:evenodd;stroke-width:4.5;stroke-linecap:round;stroke-linejoin:round"
         id="path5673"
         inkscape:connector-curvature="0" />
      <path
         d="m 548.4423,5122.4505 h 2.6806 q 5.6693,0 5.6693,-5.6693 v -2.6806 q 0,-5.6693 -5.6693,-5.6693 h -2.6806 q -5.6693,0 -5.6693,5.6693 v 2.6806 q 0,5.6693 5.6693,5.6693 z"
         style="fill:none;stroke:#000000;stroke-width:4.5;stroke-linecap:round;stroke-linejoin:round;stroke-dasharray:none"
         id="path5675"
         inkscape:connector-curvature="0" />
    </g>
    <path
       inkscape:connector-curvature="0"
       d="m 193.9994,192.64544 -8.66648,-6.41962"
       style="fill:none;stroke:#000000;stroke-width:1.19062495;stroke-linecap:round;stroke-linejoin:round;stroke-dasharray:none"
       id="path5678" />
    <path
       inkscape:connector-curvature="0"
       d="m 200.9353,192.11349 -8.24278,-5.88767"
       style="fill:none;stroke:#000000;stroke-width:1.19062495;stroke-linecap:round;stroke-linejoin:round;stroke-dasharray:none"
       id="path5680" />
    <path
       inkscape:connector-curvature="0"
       d="m 184.80304,186.16696 h 7.83061"
       style="fill:none;stroke:#000000;stroke-width:1.19062495;stroke-linecap:round;stroke-linejoin:round;stroke-dasharray:none"
       id="path5682" />
    <path
       inkscape:connector-curvature="0"
       d="m 193.75231,199.76641 -7.85437,-5.65177 q -0.62389,-0.44894 -0.62389,-1.21756 v -6.67126"
       style="fill:none;stroke:#000000;stroke-width:1.19062495;stroke-linecap:round;stroke-linejoin:round;stroke-dasharray:none"
       id="path5684" />
    <path
       inkscape:connector-curvature="0"
       d="m 186.09834,186.8146 h 7.35959"
       style="fill:none;stroke:#000000;stroke-width:1.19062495;stroke-linecap:round;stroke-linejoin:round;stroke-dasharray:none"
       id="path5686" />
    <path
       inkscape:connector-curvature="0"
       d="m 187.3936,187.69773 h 7.35963"
       style="fill:none;stroke:#000000;stroke-width:1.19062495;stroke-linecap:round;stroke-linejoin:round;stroke-dasharray:none"
       id="path5688" />
    <path
       inkscape:connector-curvature="0"
       d="m 188.57116,188.58088 h 7.3596"
       style="fill:none;stroke:#000000;stroke-width:1.19062495;stroke-linecap:round;stroke-linejoin:round;stroke-dasharray:none"
       id="path5690" />
    <path
       inkscape:connector-curvature="0"
       d="m 189.27768,189.16966 h 7.35959"
       style="fill:none;stroke:#000000;stroke-width:1.19062495;stroke-linecap:round;stroke-linejoin:round;stroke-dasharray:none"
       id="path5692" />
    <path
       inkscape:connector-curvature="0"
       d="m 190.00319,190.11483 7.57611,-0.35639"
       style="fill:none;stroke:#000000;stroke-width:1.19062495;stroke-linecap:round;stroke-linejoin:round;stroke-dasharray:none"
       id="path5694" />
    <path
       inkscape:connector-curvature="0"
       d="m 191.27949,190.64159 h 7.35959"
       style="fill:none;stroke:#000000;stroke-width:1.19062495;stroke-linecap:round;stroke-linejoin:round;stroke-dasharray:none"
       id="path5696" />
    <path
       inkscape:connector-curvature="0"
       d="m 191.86826,190.93596 h 7.3596"
       style="fill:none;stroke:#000000;stroke-width:1.19062495;stroke-linecap:round;stroke-linejoin:round;stroke-dasharray:none"
       id="path5698" />
    <path
       inkscape:connector-curvature="0"
       d="m 191.986,191.05373 h 7.3596"
       style="fill:none;stroke:#000000;stroke-width:1.19062495;stroke-linecap:round;stroke-linejoin:round;stroke-dasharray:none"
       id="path5700" />
    <path
       inkscape:connector-curvature="0"
       d="m 192.69252,191.52474 h 7.35962"
       style="fill:none;stroke:#000000;stroke-width:1.19062495;stroke-linecap:round;stroke-linejoin:round;stroke-dasharray:none"
       id="path5702" />
    <path
       inkscape:connector-curvature="0"
       d="m 193.04579,192.29013 h 8.06612"
       style="fill:none;stroke:#000000;stroke-width:1.19062495;stroke-linecap:round;stroke-linejoin:round;stroke-dasharray:none"
       id="path5704" />
    <path
       inkscape:connector-curvature="0"
       d="m 186.21608,187.40335 v 6.77085"
       style="fill:none;stroke:#000000;stroke-width:1.58749998;stroke-linecap:round;stroke-linejoin:round;stroke-dasharray:none"
       id="path5706" />
    <path
       inkscape:connector-curvature="0"
       d="m 187.3936,187.99213 v 6.77082"
       style="fill:none;stroke:#000000;stroke-width:1.58749998;stroke-linecap:round;stroke-linejoin:round;stroke-dasharray:none"
       id="path5708" />
    <path
       inkscape:connector-curvature="0"
       d="m 187.68801,187.99213 v 6.77082"
       style="fill:none;stroke:#000000;stroke-width:1.58749998;stroke-linecap:round;stroke-linejoin:round;stroke-dasharray:none"
       id="path5710" />
    <path
       inkscape:connector-curvature="0"
       d="m 188.57116,188.58088 v 6.77085"
       style="fill:none;stroke:#000000;stroke-width:1.58749998;stroke-linecap:round;stroke-linejoin:round;stroke-dasharray:none"
       id="path5712" />
    <path
       inkscape:connector-curvature="0"
       d="m 189.15991,189.16966 v 6.77084"
       style="fill:none;stroke:#000000;stroke-width:1.58749998;stroke-linecap:round;stroke-linejoin:round;stroke-dasharray:none"
       id="path5714" />
    <path
       inkscape:connector-curvature="0"
       d="m 190.00319,190.11483 -0.2545,6.41443"
       style="fill:none;stroke:#000000;stroke-width:1.58749998;stroke-linecap:round;stroke-linejoin:round;stroke-dasharray:none"
       id="path5716" />
    <path
       inkscape:connector-curvature="0"
       d="m 190.33746,190.05281 v 6.77085"
       style="fill:none;stroke:#000000;stroke-width:1.58749998;stroke-linecap:round;stroke-linejoin:round;stroke-dasharray:none"
       id="path5718" />
    <path
       inkscape:connector-curvature="0"
       d="m 191.51499,190.34719 v 4.12138"
       style="fill:none;stroke:#000000;stroke-width:1.58749998;stroke-linecap:round;stroke-linejoin:round;stroke-dasharray:none"
       id="path5720" />
    <path
       inkscape:connector-curvature="0"
       d="m 191.80937,190.93596 v 6.77085"
       style="fill:none;stroke:#000000;stroke-width:1.58749998;stroke-linecap:round;stroke-linejoin:round;stroke-dasharray:none"
       id="path5722" />
    <path
       inkscape:connector-curvature="0"
       d="m 192.10377,190.93596 -0.2944,6.77085"
       style="fill:none;stroke:#000000;stroke-width:1.58749998;stroke-linecap:round;stroke-linejoin:round;stroke-dasharray:none"
       id="path5724" />
    <path
       inkscape:connector-curvature="0"
       d="m 192.69252,191.52474 v 6.77082"
       style="fill:none;stroke:#000000;stroke-width:1.58749998;stroke-linecap:round;stroke-linejoin:round;stroke-dasharray:none"
       id="path5726" />
    <path
       inkscape:connector-curvature="0"
       d="m 186.52905,187.00478 7.28213,5.22648"
       style="fill:none;stroke:#ffffff;stroke-width:1.58749998;stroke-linecap:round;stroke-linejoin:round;stroke-dasharray:none"
       id="path5728" />
    <g
       transform="matrix(0.26458333,0,0,0.26458333,52.380937,-1157.1666)"
       id="Layer1560">
      <path
         d="m 486.0603,5115.2821 12.7549,7.3641 7.6216,-13.2009 -12.7549,-7.3641 z"
         style="fill:#000000;fill-rule:evenodd;stroke-width:0.23999999;stroke-linecap:round;stroke-linejoin:round"
         id="path5730"
         inkscape:connector-curvature="0" />
      <path
         d="m 486.0603,5115.2821 12.7549,7.3641 7.6216,-13.2009 -12.7549,-7.3641 z"
         style="fill:none;stroke:#000000;stroke-width:0.23999999;stroke-linecap:round;stroke-linejoin:round;stroke-dasharray:none"
         id="path5732"
         inkscape:connector-curvature="0" />
    </g>
    <g
       transform="matrix(0.26458333,0,0,0.26458333,52.380937,-1157.1666)"
       id="Layer1561">
      <path
         d="m 510.3903,5130.3502 h 18.4799 q 5.6693,0 5.6693,-5.6693 v -18.48 q 0,-5.6693 -5.6693,-5.6693 h -18.4799 q -5.6693,0 -5.6693,5.6693 v 18.48 q 0,5.6693 5.6693,5.6693 z"
         style="fill:#e8eef7;fill-rule:evenodd;stroke-width:6;stroke-linecap:round;stroke-linejoin:round"
         id="path5735"
         inkscape:connector-curvature="0" />
      <path
         d="m 510.3903,5130.3502 h 18.4799 q 5.6693,0 5.6693,-5.6693 v -18.48 q 0,-5.6693 -5.6693,-5.6693 h -18.4799 q -5.6693,0 -5.6693,5.6693 v 18.48 q 0,5.6693 5.6693,5.6693 z"
         style="fill:none;stroke:#000000;stroke-width:6;stroke-linecap:round;stroke-linejoin:round;stroke-dasharray:none"
         id="path5737"
         inkscape:connector-curvature="0" />
    </g>
    <g
       transform="matrix(0.26458333,0,0,0.26458333,52.380937,-1157.1666)"
       id="Layer1562">
      <path
         d="m 518.4012,5122.7843 h 2.6806 q 5.6693,0 5.6693,-5.6693 v -2.6806 q 0,-5.6693 -5.6693,-5.6693 h -2.6806 q -5.6693,0 -5.6693,5.6693 v 2.6806 q 0,5.6693 5.6693,5.6693 z"
         style="fill:#ff0000;fill-rule:evenodd;stroke-width:4.5;stroke-linecap:round;stroke-linejoin:round"
         id="path5740"
         inkscape:connector-curvature="0" />
      <path
         d="m 518.4012,5122.7843 h 2.6806 q 5.6693,0 5.6693,-5.6693 v -2.6806 q 0,-5.6693 -5.6693,-5.6693 h -2.6806 q -5.6693,0 -5.6693,5.6693 v 2.6806 q 0,5.6693 5.6693,5.6693 z"
         style="fill:none;stroke:#ff0000;stroke-width:4.5;stroke-linecap:round;stroke-linejoin:round;stroke-dasharray:none"
         id="path5742"
         inkscape:connector-curvature="0" />
    </g>
    <path
       inkscape:connector-curvature="0"
       d="m 186.16877,192.61498 -8.66645,-6.41961"
       style="fill:none;stroke:#000000;stroke-width:1.19062495;stroke-linecap:round;stroke-linejoin:round;stroke-dasharray:none"
       id="path5745" />
    <path
       inkscape:connector-curvature="0"
       d="m 193.10466,192.23126 -8.24275,-5.8877"
       style="fill:none;stroke:#000000;stroke-width:1.19062495;stroke-linecap:round;stroke-linejoin:round;stroke-dasharray:none"
       id="path5747" />
    <path
       inkscape:connector-curvature="0"
       d="m 177.50232,186.16696 h 7.35959"
       style="fill:none;stroke:#000000;stroke-width:1.19062495;stroke-linecap:round;stroke-linejoin:round;stroke-dasharray:none"
       id="path5749" />
    <path
       inkscape:connector-curvature="0"
       d="m 185.9217,199.88417 -7.85688,-5.67817 q -0.62137,-0.44908 -0.62137,-1.21573 v -6.70558"
       style="fill:none;stroke:#000000;stroke-width:1.19062495;stroke-linecap:round;stroke-linejoin:round;stroke-dasharray:none"
       id="path5751" />
    <path
       inkscape:connector-curvature="0"
       d="m 178.2677,186.93234 h 9.06703"
       style="fill:none;stroke:#000000;stroke-width:1.19062495;stroke-linecap:round;stroke-linejoin:round;stroke-dasharray:none"
       id="path5753" />
    <path
       inkscape:connector-curvature="0"
       d="m 179.563,187.81549 h 7.35959"
       style="fill:none;stroke:#000000;stroke-width:1.19062495;stroke-linecap:round;stroke-linejoin:round;stroke-dasharray:none"
       id="path5755" />
    <path
       inkscape:connector-curvature="0"
       d="m 180.74055,188.69865 h 7.3596"
       style="fill:none;stroke:#000000;stroke-width:1.19062495;stroke-linecap:round;stroke-linejoin:round;stroke-dasharray:none"
       id="path5757" />
    <path
       inkscape:connector-curvature="0"
       d="m 181.44707,189.28742 h 7.35959"
       style="fill:none;stroke:#000000;stroke-width:1.19062495;stroke-linecap:round;stroke-linejoin:round;stroke-dasharray:none"
       id="path5759" />
    <path
       inkscape:connector-curvature="0"
       d="m 182.38909,189.87618 7.6141,0.23865"
       style="fill:none;stroke:#000000;stroke-width:1.19062495;stroke-linecap:round;stroke-linejoin:round;stroke-dasharray:none"
       id="path5761" />
    <path
       inkscape:connector-curvature="0"
       d="m 183.44888,190.75933 h 7.3596"
       style="fill:none;stroke:#000000;stroke-width:1.19062495;stroke-linecap:round;stroke-linejoin:round;stroke-dasharray:none"
       id="path5763" />
    <path
       inkscape:connector-curvature="0"
       d="m 184.03763,191.05373 h 7.35962"
       style="fill:none;stroke:#000000;stroke-width:1.19062495;stroke-linecap:round;stroke-linejoin:round;stroke-dasharray:none"
       id="path5765" />
    <path
       inkscape:connector-curvature="0"
       d="m 184.1554,191.17147 h 7.35959"
       style="fill:none;stroke:#000000;stroke-width:1.19062495;stroke-linecap:round;stroke-linejoin:round;stroke-dasharray:none"
       id="path5767" />
    <path
       inkscape:connector-curvature="0"
       d="m 184.86191,191.64248 h 7.3596"
       style="fill:none;stroke:#000000;stroke-width:1.19062495;stroke-linecap:round;stroke-linejoin:round;stroke-dasharray:none"
       id="path5769" />
    <path
       inkscape:connector-curvature="0"
       d="m 185.9217,192.349 h 7.3596"
       style="fill:none;stroke:#000000;stroke-width:1.19062495;stroke-linecap:round;stroke-linejoin:round;stroke-dasharray:none"
       id="path5771" />
    <path
       inkscape:connector-curvature="0"
       d="m 178.38547,187.52112 v 6.77082"
       style="fill:none;stroke:#000000;stroke-width:1.58749998;stroke-linecap:round;stroke-linejoin:round;stroke-dasharray:none"
       id="path5773" />
    <path
       inkscape:connector-curvature="0"
       d="m 179.563,188.10987 v 6.77085"
       style="fill:none;stroke:#000000;stroke-width:1.58749998;stroke-linecap:round;stroke-linejoin:round;stroke-dasharray:none"
       id="path5775" />
    <path
       inkscape:connector-curvature="0"
       d="m 179.8574,188.10987 v 6.77085"
       style="fill:none;stroke:#000000;stroke-width:1.58749998;stroke-linecap:round;stroke-linejoin:round;stroke-dasharray:none"
       id="path5777" />
    <path
       inkscape:connector-curvature="0"
       d="m 180.74055,188.69865 v 6.77084"
       style="fill:none;stroke:#000000;stroke-width:1.58749998;stroke-linecap:round;stroke-linejoin:round;stroke-dasharray:none"
       id="path5779" />
    <path
       inkscape:connector-curvature="0"
       d="m 181.3293,189.28742 v 6.77082"
       style="fill:none;stroke:#000000;stroke-width:1.58749998;stroke-linecap:round;stroke-linejoin:round;stroke-dasharray:none"
       id="path5781" />
    <path
       inkscape:connector-curvature="0"
       d="m 181.91808,189.87618 v 6.77084"
       style="fill:none;stroke:#000000;stroke-width:1.58749998;stroke-linecap:round;stroke-linejoin:round;stroke-dasharray:none"
       id="path5783" />
    <path
       inkscape:connector-curvature="0"
       d="m 182.50683,190.17058 v 6.77082"
       style="fill:none;stroke:#000000;stroke-width:1.58749998;stroke-linecap:round;stroke-linejoin:round;stroke-dasharray:none"
       id="path5785" />
    <path
       inkscape:connector-curvature="0"
       d="m 183.68438,190.46495 v 4.12139"
       style="fill:none;stroke:#000000;stroke-width:1.58749998;stroke-linecap:round;stroke-linejoin:round;stroke-dasharray:none"
       id="path5787" />
    <path
       inkscape:connector-curvature="0"
       d="m 183.97876,191.05373 1.38864,5.40004"
       style="fill:none;stroke:#000000;stroke-width:1.58749998;stroke-linecap:round;stroke-linejoin:round;stroke-dasharray:none"
       id="path5789" />
    <path
       inkscape:connector-curvature="0"
       d="m 184.27314,191.05373 1.09426,5.40004"
       style="fill:none;stroke:#000000;stroke-width:1.58749998;stroke-linecap:round;stroke-linejoin:round;stroke-dasharray:none"
       id="path5791" />
    <path
       inkscape:connector-curvature="0"
       d="m 184.86191,191.64248 v 6.77085"
       style="fill:none;stroke:#000000;stroke-width:1.58749998;stroke-linecap:round;stroke-linejoin:round;stroke-dasharray:none"
       id="path5793" />
    <path
       inkscape:connector-curvature="0"
       d="m 178.69844,186.97433 7.22326,5.22647"
       style="fill:none;stroke:#ffffff;stroke-width:1.58749998;stroke-linecap:round;stroke-linejoin:round;stroke-dasharray:none"
       id="path5795" />
    <g
       transform="matrix(0.26458333,0,0,0.26458333,52.380937,-1157.1666)"
       id="Layer1563">
      <path
         d="m 536.2059,5103.332 3.7881,-5.41 -32.1176,-22.4889 -3.7881,5.41 z"
         style="fill:#000000;fill-rule:evenodd;stroke-width:0.23999999;stroke-linecap:round;stroke-linejoin:round"
         id="path5797"
         inkscape:connector-curvature="0" />
      <path
         d="m 536.2059,5103.332 3.7881,-5.41 -32.1176,-22.4889 -3.7881,5.41 z"
         style="fill:none;stroke:#000000;stroke-width:0.23999999;stroke-linecap:round;stroke-linejoin:round;stroke-dasharray:none"
         id="path5799"
         inkscape:connector-curvature="0" />
    </g>
  </g>
</svg>
