<?xml version="1.0" encoding="UTF-8" standalone="no"?>
<!-- Created with Inkscape (http://www.inkscape.org/) -->

<svg
   xmlns:dc="http://purl.org/dc/elements/1.1/"
   xmlns:cc="http://creativecommons.org/ns#"
   xmlns:rdf="http://www.w3.org/1999/02/22-rdf-syntax-ns#"
   xmlns:svg="http://www.w3.org/2000/svg"
   xmlns="http://www.w3.org/2000/svg"
   xmlns:sodipodi="http://sodipodi.sourceforge.net/DTD/sodipodi-0.dtd"
   xmlns:inkscape="http://www.inkscape.org/namespaces/inkscape"
   width="33.750011mm"
   height="33.750011mm"
   viewBox="0 0 33.750012 33.750011"
   version="1.1"
   id="svg7248"
   inkscape:version="0.92.3 (2405546, 2018-03-11)"
   sodipodi:docname="lost.svg">
  <defs
     id="defs7242" />
  <sodipodi:namedview
     id="base"
     pagecolor="#ffffff"
     bordercolor="#666666"
     borderopacity="1.0"
     inkscape:pageopacity="0.0"
     inkscape:pageshadow="2"
     inkscape:zoom="0.35"
     inkscape:cx="63.779548"
     inkscape:cy="63.779536"
     inkscape:document-units="mm"
     inkscape:current-layer="layer1"
     showgrid="false"
     fit-margin-top="0"
     fit-margin-left="0"
     fit-margin-right="0"
     fit-margin-bottom="0"
     inkscape:window-width="716"
     inkscape:window-height="403"
     inkscape:window-x="657"
     inkscape:window-y="542"
     inkscape:window-maximized="0" />
  <metadata
     id="metadata7245">
    <rdf:RDF>
      <cc:Work
         rdf:about="">
        <dc:format>image/svg+xml</dc:format>
        <dc:type
           rdf:resource="http://purl.org/dc/dcmitype/StillImage" />
        <dc:title></dc:title>
      </cc:Work>
    </rdf:RDF>
  </metadata>
  <g
     inkscape:label="Layer 1"
     inkscape:groupmode="layer"
     id="layer1"
     transform="translate(-88.958328,-131.95833)">
    <path
       inkscape:connector-curvature="0"
       d="m 91.208348,165.70834 h 29.250002 q 2.24999,0 2.24999,-2.25001 v -29.24998 q 0,-2.25002 -2.24999,-2.25002 H 91.208348 q -2.25002,0 -2.25002,2.25002 v 29.24998 q 0,2.25001 2.25002,2.25001 z"
       style="fill:#ffc000;fill-rule:evenodd;stroke-width:0.26458332"
       id="path5364" />
    <g
       transform="matrix(0.26458333,0,0,0.26458333,43.958338,-1206.7916)"
       id="Layer1540">
      <path
         d="m 221.1024,5156.2205 q 8.8582,0 8.8582,-8.8583 v -21.9685 q 0,-8.8583 -8.8582,-8.8583 -8.8583,0 -8.8583,8.8583 v 21.9685 q 0,8.8583 8.8583,8.8583 z"
         style="fill:#000000;fill-rule:evenodd;stroke-width:0.23999999;stroke-linecap:round;stroke-linejoin:round"
         id="path5366"
         inkscape:connector-curvature="0" />
      <path
         d="m 221.1024,5156.2205 q 8.8582,0 8.8582,-8.8583 v -21.9685 q 0,-8.8583 -8.8582,-8.8583 -8.8583,0 -8.8583,8.8583 v 21.9685 q 0,8.8583 8.8583,8.8583 z"
         style="fill:none;stroke:#000000;stroke-width:0.23999999;stroke-linecap:round;stroke-linejoin:round;stroke-dasharray:none"
         id="path5368"
         inkscape:connector-curvature="0" />
    </g>
    <g
       transform="matrix(0.26458333,0,0,0.26458333,43.958338,-1206.7916)"
       id="Layer1541">
      <path
         d="m 184.252,5157.6378 q 0,8.8583 8.8582,8.8583 h 55.9843 q 8.8583,0 8.8583,-8.8583 0,-8.8583 -8.8583,-8.8583 h -55.9843 q -8.8582,0 -8.8582,8.8583 z"
         style="fill:#000000;fill-rule:evenodd;stroke-width:0.23999999;stroke-linecap:round;stroke-linejoin:round"
         id="path5371"
         inkscape:connector-curvature="0" />
      <path
         d="m 184.252,5157.6378 q 0,8.8583 8.8582,8.8583 h 55.9843 q 8.8583,0 8.8583,-8.8583 0,-8.8583 -8.8583,-8.8583 h -55.9843 q -8.8582,0 -8.8582,8.8583 z"
         style="fill:none;stroke:#000000;stroke-width:0.23999999;stroke-linecap:round;stroke-linejoin:round;stroke-dasharray:none"
         id="path5373"
         inkscape:connector-curvature="0" />
    </g>
    <g
       transform="matrix(0.26458333,0,0,0.26458333,43.958338,-1206.7916)"
       id="Layer1542">
      <path
         d="m 256.7443,5130.3502 h 18.925 q 5.6693,0 5.6693,-5.6693 v -18.925 q 0,-5.6693 -5.6693,-5.6693 h -18.925 q -5.6693,0 -5.6693,5.6693 v 18.925 q 0,5.6693 5.6693,5.6693 z"
         style="fill:#e8eef7;fill-rule:evenodd;stroke-width:6;stroke-linecap:round;stroke-linejoin:round"
         id="path5376"
         inkscape:connector-curvature="0" />
      <path
         d="m 256.7443,5130.3502 h 18.925 q 5.6693,0 5.6693,-5.6693 v -18.925 q 0,-5.6693 -5.6693,-5.6693 h -18.925 q -5.6693,0 -5.6693,5.6693 v 18.925 q 0,5.6693 5.6693,5.6693 z"
         style="fill:none;stroke:#000000;stroke-width:6;stroke-linecap:round;stroke-linejoin:round;stroke-dasharray:none"
         id="path5378"
         inkscape:connector-curvature="0" />
    </g>
    <g
       transform="matrix(0.26458333,0,0,0.26458333,43.958338,-1206.7916)"
       id="Layer1543">
      <path
         d="m 264.9777,5122.4505 h 2.6806 q 5.6693,0 5.6693,-5.6693 v -2.6806 q 0,-5.6693 -5.6693,-5.6693 h -2.6806 q -5.6692,0 -5.6692,5.6693 v 2.6806 q 0,5.6693 5.6692,5.6693 z"
         style="fill:#000000;fill-rule:evenodd;stroke-width:4.5;stroke-linecap:round;stroke-linejoin:round"
         id="path5381"
         inkscape:connector-curvature="0" />
      <path
         d="m 264.9777,5122.4505 h 2.6806 q 5.6693,0 5.6693,-5.6693 v -2.6806 q 0,-5.6693 -5.6693,-5.6693 h -2.6806 q -5.6692,0 -5.6692,5.6693 v 2.6806 q 0,5.6693 5.6692,5.6693 z"
         style="fill:none;stroke:#000000;stroke-width:4.5;stroke-linecap:round;stroke-linejoin:round;stroke-dasharray:none"
         id="path5383"
         inkscape:connector-curvature="0" />
    </g>
    <path
       inkscape:connector-curvature="0"
       d="m 110.5768,143.02043 -8.66645,-6.41962"
       style="fill:none;stroke:#000000;stroke-width:1.19062495;stroke-linecap:round;stroke-linejoin:round;stroke-dasharray:none"
       id="path5386" />
    <path
       inkscape:connector-curvature="0"
       d="m 117.51269,142.48848 -8.24275,-5.88767"
       style="fill:none;stroke:#000000;stroke-width:1.19062495;stroke-linecap:round;stroke-linejoin:round;stroke-dasharray:none"
       id="path5388" />
    <path
       inkscape:connector-curvature="0"
       d="m 101.38044,136.54195 h 7.83061"
       style="fill:none;stroke:#000000;stroke-width:1.19062495;stroke-linecap:round;stroke-linejoin:round;stroke-dasharray:none"
       id="path5390" />
    <path
       inkscape:connector-curvature="0"
       d="m 110.3297,150.1414 -7.85436,-5.65177 q -0.62389,-0.44894 -0.62389,-1.21756 v -6.67126"
       style="fill:none;stroke:#000000;stroke-width:1.19062495;stroke-linecap:round;stroke-linejoin:round;stroke-dasharray:none"
       id="path5392" />
    <path
       inkscape:connector-curvature="0"
       d="m 102.67573,137.18959 h 7.3596"
       style="fill:none;stroke:#000000;stroke-width:1.19062495;stroke-linecap:round;stroke-linejoin:round;stroke-dasharray:none"
       id="path5394" />
    <path
       inkscape:connector-curvature="0"
       d="m 103.97103,138.07272 h 7.35959"
       style="fill:none;stroke:#000000;stroke-width:1.19062495;stroke-linecap:round;stroke-linejoin:round;stroke-dasharray:none"
       id="path5396" />
    <path
       inkscape:connector-curvature="0"
       d="m 105.14855,138.95587 h 7.3596"
       style="fill:none;stroke:#000000;stroke-width:1.19062495;stroke-linecap:round;stroke-linejoin:round;stroke-dasharray:none"
       id="path5398" />
    <path
       inkscape:connector-curvature="0"
       d="m 105.85507,139.54465 h 7.3596"
       style="fill:none;stroke:#000000;stroke-width:1.19062495;stroke-linecap:round;stroke-linejoin:round;stroke-dasharray:none"
       id="path5400" />
    <path
       inkscape:connector-curvature="0"
       d="m 106.58059,140.48982 7.57613,-0.35639"
       style="fill:none;stroke:#000000;stroke-width:1.19062495;stroke-linecap:round;stroke-linejoin:round;stroke-dasharray:none"
       id="path5402" />
    <path
       inkscape:connector-curvature="0"
       d="m 107.85688,141.01658 h 7.3596"
       style="fill:none;stroke:#000000;stroke-width:1.19062495;stroke-linecap:round;stroke-linejoin:round;stroke-dasharray:none"
       id="path5404" />
    <path
       inkscape:connector-curvature="0"
       d="m 108.44566,141.31095 h 7.3596"
       style="fill:none;stroke:#000000;stroke-width:1.19062495;stroke-linecap:round;stroke-linejoin:round;stroke-dasharray:none"
       id="path5406" />
    <path
       inkscape:connector-curvature="0"
       d="m 108.56343,141.42872 h 7.35959"
       style="fill:none;stroke:#000000;stroke-width:1.19062495;stroke-linecap:round;stroke-linejoin:round;stroke-dasharray:none"
       id="path5408" />
    <path
       inkscape:connector-curvature="0"
       d="m 109.26994,141.89973 h 7.3596"
       style="fill:none;stroke:#000000;stroke-width:1.19062495;stroke-linecap:round;stroke-linejoin:round;stroke-dasharray:none"
       id="path5410" />
    <path
       inkscape:connector-curvature="0"
       d="m 109.62319,142.66512 h 8.06614"
       style="fill:none;stroke:#000000;stroke-width:1.19062495;stroke-linecap:round;stroke-linejoin:round;stroke-dasharray:none"
       id="path5412" />
    <path
       inkscape:connector-curvature="0"
       d="m 102.7935,137.77834 v 6.77085"
       style="fill:none;stroke:#000000;stroke-width:1.58749998;stroke-linecap:round;stroke-linejoin:round;stroke-dasharray:none"
       id="path5414" />
    <path
       inkscape:connector-curvature="0"
       d="m 103.97103,138.36712 v 6.77082"
       style="fill:none;stroke:#000000;stroke-width:1.58749998;stroke-linecap:round;stroke-linejoin:round;stroke-dasharray:none"
       id="path5416" />
    <path
       inkscape:connector-curvature="0"
       d="m 104.2654,138.36712 v 6.77082"
       style="fill:none;stroke:#000000;stroke-width:1.58749998;stroke-linecap:round;stroke-linejoin:round;stroke-dasharray:none"
       id="path5418" />
    <path
       inkscape:connector-curvature="0"
       d="m 105.14855,138.95587 v 6.77085"
       style="fill:none;stroke:#000000;stroke-width:1.58749998;stroke-linecap:round;stroke-linejoin:round;stroke-dasharray:none"
       id="path5420" />
    <path
       inkscape:connector-curvature="0"
       d="m 105.73733,139.54465 v 6.77084"
       style="fill:none;stroke:#000000;stroke-width:1.58749998;stroke-linecap:round;stroke-linejoin:round;stroke-dasharray:none"
       id="path5422" />
    <path
       inkscape:connector-curvature="0"
       d="m 106.58059,140.48982 -0.25451,6.41443"
       style="fill:none;stroke:#000000;stroke-width:1.58749998;stroke-linecap:round;stroke-linejoin:round;stroke-dasharray:none"
       id="path5424" />
    <path
       inkscape:connector-curvature="0"
       d="m 106.91486,140.4278 v 6.77085"
       style="fill:none;stroke:#000000;stroke-width:1.58749998;stroke-linecap:round;stroke-linejoin:round;stroke-dasharray:none"
       id="path5426" />
    <path
       inkscape:connector-curvature="0"
       d="m 108.09239,140.72218 v 4.12138"
       style="fill:none;stroke:#000000;stroke-width:1.58749998;stroke-linecap:round;stroke-linejoin:round;stroke-dasharray:none"
       id="path5428" />
    <path
       inkscape:connector-curvature="0"
       d="m 108.38679,141.31095 v 6.77085"
       style="fill:none;stroke:#000000;stroke-width:1.58749998;stroke-linecap:round;stroke-linejoin:round;stroke-dasharray:none"
       id="path5430" />
    <path
       inkscape:connector-curvature="0"
       d="m 108.68117,141.31095 -0.29438,6.77085"
       style="fill:none;stroke:#000000;stroke-width:1.58749998;stroke-linecap:round;stroke-linejoin:round;stroke-dasharray:none"
       id="path5432" />
    <path
       inkscape:connector-curvature="0"
       d="m 109.26994,141.89973 v 6.77082"
       style="fill:none;stroke:#000000;stroke-width:1.58749998;stroke-linecap:round;stroke-linejoin:round;stroke-dasharray:none"
       id="path5434" />
    <path
       inkscape:connector-curvature="0"
       d="m 103.10645,137.37977 7.28215,5.22648"
       style="fill:none;stroke:#ffffff;stroke-width:1.58749998;stroke-linecap:round;stroke-linejoin:round;stroke-dasharray:none"
       id="path5436" />
    <g
       transform="matrix(0.26458333,0,0,0.26458333,43.958338,-1206.7916)"
       id="Layer1544">
      <path
         d="m 202.5958,5115.2821 12.7549,7.3641 7.6215,-13.2009 -12.7549,-7.3641 z"
         style="fill:#000000;fill-rule:evenodd;stroke-width:0.23999999;stroke-linecap:round;stroke-linejoin:round"
         id="path5438"
         inkscape:connector-curvature="0" />
      <path
         d="m 202.5958,5115.2821 12.7549,7.3641 7.6215,-13.2009 -12.7549,-7.3641 z"
         style="fill:none;stroke:#000000;stroke-width:0.23999999;stroke-linecap:round;stroke-linejoin:round;stroke-dasharray:none"
         id="path5440"
         inkscape:connector-curvature="0" />
    </g>
    <g
       transform="matrix(0.26458333,0,0,0.26458333,43.958338,-1206.7916)"
       id="Layer1545">
      <path
         d="m 226.9257,5130.3502 h 18.48 q 5.6693,0 5.6693,-5.6693 v -18.48 q 0,-5.6693 -5.6693,-5.6693 h -18.48 q -5.6693,0 -5.6693,5.6693 v 18.48 q 0,5.6693 5.6693,5.6693 z"
         style="fill:#e8eef7;fill-rule:evenodd;stroke-width:6;stroke-linecap:round;stroke-linejoin:round"
         id="path5443"
         inkscape:connector-curvature="0" />
      <path
         d="m 226.9257,5130.3502 h 18.48 q 5.6693,0 5.6693,-5.6693 v -18.48 q 0,-5.6693 -5.6693,-5.6693 h -18.48 q -5.6693,0 -5.6693,5.6693 v 18.48 q 0,5.6693 5.6693,5.6693 z"
         style="fill:none;stroke:#000000;stroke-width:6;stroke-linecap:round;stroke-linejoin:round;stroke-dasharray:none"
         id="path5445"
         inkscape:connector-curvature="0" />
    </g>
    <g
       transform="matrix(0.26458333,0,0,0.26458333,43.958338,-1206.7916)"
       id="Layer1546">
      <path
         d="m 234.9367,5122.7843 h 2.6806 q 5.6692,0 5.6692,-5.6693 v -2.6806 q 0,-5.6693 -5.6692,-5.6693 h -2.6806 q -5.6693,0 -5.6693,5.6693 v 2.6806 q 0,5.6693 5.6693,5.6693 z"
         style="fill:#ff0000;fill-rule:evenodd;stroke-width:4.5;stroke-linecap:round;stroke-linejoin:round"
         id="path5448"
         inkscape:connector-curvature="0" />
      <path
         d="m 234.9367,5122.7843 h 2.6806 q 5.6692,0 5.6692,-5.6693 v -2.6806 q 0,-5.6693 -5.6692,-5.6693 h -2.6806 q -5.6693,0 -5.6693,5.6693 v 2.6806 q 0,5.6693 5.6693,5.6693 z"
         style="fill:none;stroke:#ff0000;stroke-width:4.5;stroke-linecap:round;stroke-linejoin:round;stroke-dasharray:none"
         id="path5450"
         inkscape:connector-curvature="0" />
    </g>
    <path
       inkscape:connector-curvature="0"
       d="m 102.74619,142.98997 -8.666482,-6.41961"
       style="fill:none;stroke:#000000;stroke-width:1.19062495;stroke-linecap:round;stroke-linejoin:round;stroke-dasharray:none"
       id="path5453" />
    <path
       inkscape:connector-curvature="0"
       d="m 109.68208,142.60625 -8.24277,-5.8877"
       style="fill:none;stroke:#000000;stroke-width:1.19062495;stroke-linecap:round;stroke-linejoin:round;stroke-dasharray:none"
       id="path5455" />
    <path
       inkscape:connector-curvature="0"
       d="m 94.079708,136.54195 h 7.359602"
       style="fill:none;stroke:#000000;stroke-width:1.19062495;stroke-linecap:round;stroke-linejoin:round;stroke-dasharray:none"
       id="path5457" />
    <path
       inkscape:connector-curvature="0"
       d="m 102.4991,150.25916 -7.856892,-5.67817 q -0.62137,-0.44908 -0.62137,-1.21573 v -6.70558"
       style="fill:none;stroke:#000000;stroke-width:1.19062495;stroke-linecap:round;stroke-linejoin:round;stroke-dasharray:none"
       id="path5459" />
    <path
       inkscape:connector-curvature="0"
       d="m 94.845118,137.30733 h 9.067042"
       style="fill:none;stroke:#000000;stroke-width:1.19062495;stroke-linecap:round;stroke-linejoin:round;stroke-dasharray:none"
       id="path5461" />
    <path
       inkscape:connector-curvature="0"
       d="m 96.140418,138.19048 h 7.359602"
       style="fill:none;stroke:#000000;stroke-width:1.19062495;stroke-linecap:round;stroke-linejoin:round;stroke-dasharray:none"
       id="path5463" />
    <path
       inkscape:connector-curvature="0"
       d="m 97.317948,139.07364 h 7.359592"
       style="fill:none;stroke:#000000;stroke-width:1.19062495;stroke-linecap:round;stroke-linejoin:round;stroke-dasharray:none"
       id="path5465" />
    <path
       inkscape:connector-curvature="0"
       d="m 98.024458,139.66241 h 7.359602"
       style="fill:none;stroke:#000000;stroke-width:1.19062495;stroke-linecap:round;stroke-linejoin:round;stroke-dasharray:none"
       id="path5467" />
    <path
       inkscape:connector-curvature="0"
       d="m 98.966488,140.25117 7.614102,0.23865"
       style="fill:none;stroke:#000000;stroke-width:1.19062495;stroke-linecap:round;stroke-linejoin:round;stroke-dasharray:none"
       id="path5469" />
    <path
       inkscape:connector-curvature="0"
       d="m 100.02627,141.13432 h 7.3596"
       style="fill:none;stroke:#000000;stroke-width:1.19062495;stroke-linecap:round;stroke-linejoin:round;stroke-dasharray:none"
       id="path5471" />
    <path
       inkscape:connector-curvature="0"
       d="m 100.61505,141.42872 h 7.3596"
       style="fill:none;stroke:#000000;stroke-width:1.19062495;stroke-linecap:round;stroke-linejoin:round;stroke-dasharray:none"
       id="path5473" />
    <path
       inkscape:connector-curvature="0"
       d="m 100.73279,141.54646 h 7.3596"
       style="fill:none;stroke:#000000;stroke-width:1.19062495;stroke-linecap:round;stroke-linejoin:round;stroke-dasharray:none"
       id="path5475" />
    <path
       inkscape:connector-curvature="0"
       d="m 101.43931,142.01747 h 7.35962"
       style="fill:none;stroke:#000000;stroke-width:1.19062495;stroke-linecap:round;stroke-linejoin:round;stroke-dasharray:none"
       id="path5477" />
    <path
       inkscape:connector-curvature="0"
       d="m 102.4991,142.72399 h 7.35959"
       style="fill:none;stroke:#000000;stroke-width:1.19062495;stroke-linecap:round;stroke-linejoin:round;stroke-dasharray:none"
       id="path5479" />
    <path
       inkscape:connector-curvature="0"
       d="m 94.962858,137.89611 v 6.77082"
       style="fill:none;stroke:#000000;stroke-width:1.58749998;stroke-linecap:round;stroke-linejoin:round;stroke-dasharray:none"
       id="path5481" />
    <path
       inkscape:connector-curvature="0"
       d="m 96.140418,138.48486 v 6.77085"
       style="fill:none;stroke:#000000;stroke-width:1.58749998;stroke-linecap:round;stroke-linejoin:round;stroke-dasharray:none"
       id="path5483" />
    <path
       inkscape:connector-curvature="0"
       d="m 96.434788,138.48486 v 6.77085"
       style="fill:none;stroke:#000000;stroke-width:1.58749998;stroke-linecap:round;stroke-linejoin:round;stroke-dasharray:none"
       id="path5485" />
    <path
       inkscape:connector-curvature="0"
       d="m 97.317948,139.07364 v 6.77084"
       style="fill:none;stroke:#000000;stroke-width:1.58749998;stroke-linecap:round;stroke-linejoin:round;stroke-dasharray:none"
       id="path5487" />
    <path
       inkscape:connector-curvature="0"
       d="m 97.906698,139.66241 v 6.77082"
       style="fill:none;stroke:#000000;stroke-width:1.58749998;stroke-linecap:round;stroke-linejoin:round;stroke-dasharray:none"
       id="path5489" />
    <path
       inkscape:connector-curvature="0"
       d="m 98.495468,140.25117 v 6.77084"
       style="fill:none;stroke:#000000;stroke-width:1.58749998;stroke-linecap:round;stroke-linejoin:round;stroke-dasharray:none"
       id="path5491" />
    <path
       inkscape:connector-curvature="0"
       d="m 99.084248,140.54557 v 6.77082"
       style="fill:none;stroke:#000000;stroke-width:1.58749998;stroke-linecap:round;stroke-linejoin:round;stroke-dasharray:none"
       id="path5493" />
    <path
       inkscape:connector-curvature="0"
       d="m 100.26178,140.83994 v 4.12139"
       style="fill:none;stroke:#000000;stroke-width:1.58749998;stroke-linecap:round;stroke-linejoin:round;stroke-dasharray:none"
       id="path5495" />
    <path
       inkscape:connector-curvature="0"
       d="m 100.55616,141.42872 1.38863,5.40004"
       style="fill:none;stroke:#000000;stroke-width:1.58749998;stroke-linecap:round;stroke-linejoin:round;stroke-dasharray:none"
       id="path5497" />
    <path
       inkscape:connector-curvature="0"
       d="m 100.85056,141.42872 1.09423,5.40004"
       style="fill:none;stroke:#000000;stroke-width:1.58749998;stroke-linecap:round;stroke-linejoin:round;stroke-dasharray:none"
       id="path5499" />
    <path
       inkscape:connector-curvature="0"
       d="m 101.43931,142.01747 v 6.77085"
       style="fill:none;stroke:#000000;stroke-width:1.58749998;stroke-linecap:round;stroke-linejoin:round;stroke-dasharray:none"
       id="path5501" />
    <path
       inkscape:connector-curvature="0"
       d="m 95.275838,137.34932 7.223262,5.22647"
       style="fill:none;stroke:#ffffff;stroke-width:1.58749998;stroke-linecap:round;stroke-linejoin:round;stroke-dasharray:none"
       id="path5503" />
    <g
       transform="matrix(0.26458333,0,0,0.26458333,43.958338,-1206.7916)"
       id="Layer1547">
      <path
         d="m 252.7413,5103.332 3.7881,-5.41 -32.1175,-22.4889 -3.7881,5.41 z"
         style="fill:#000000;fill-rule:evenodd;stroke-width:0.23999999;stroke-linecap:round;stroke-linejoin:round"
         id="path5505"
         inkscape:connector-curvature="0" />
      <path
         d="m 252.7413,5103.332 3.7881,-5.41 -32.1175,-22.4889 -3.7881,5.41 z"
         style="fill:none;stroke:#000000;stroke-width:0.23999999;stroke-linecap:round;stroke-linejoin:round;stroke-dasharray:none"
         id="path5507"
         inkscape:connector-curvature="0" />
    </g>
  </g>
</svg>
