<?xml version="1.0" encoding="UTF-8" standalone="no"?>
<!-- Created with Inkscape (http://www.inkscape.org/) -->

<svg
   xmlns:dc="http://purl.org/dc/elements/1.1/"
   xmlns:cc="http://creativecommons.org/ns#"
   xmlns:rdf="http://www.w3.org/1999/02/22-rdf-syntax-ns#"
   xmlns:svg="http://www.w3.org/2000/svg"
   xmlns="http://www.w3.org/2000/svg"
   xmlns:sodipodi="http://sodipodi.sourceforge.net/DTD/sodipodi-0.dtd"
   xmlns:inkscape="http://www.inkscape.org/namespaces/inkscape"
   width="33.749989mm"
   height="33.750015mm"
   viewBox="0 0 33.749989 33.750015"
   version="1.1"
   id="svg7248"
   inkscape:version="0.92.3 (2405546, 2018-03-11)"
   sodipodi:docname="na.svg">
  <defs
     id="defs7242" />
  <sodipodi:namedview
     id="base"
     pagecolor="#ffffff"
     bordercolor="#666666"
     borderopacity="1.0"
     inkscape:pageopacity="0.0"
     inkscape:pageshadow="2"
     inkscape:zoom="0.35"
     inkscape:cx="-316.31039"
     inkscape:cy="-142.02468"
     inkscape:document-units="mm"
     inkscape:current-layer="layer1"
     showgrid="false"
     fit-margin-top="0"
     fit-margin-left="0"
     fit-margin-right="0"
     fit-margin-bottom="0"
     inkscape:window-width="716"
     inkscape:window-height="403"
     inkscape:window-x="657"
     inkscape:window-y="542"
     inkscape:window-maximized="0" />
  <metadata
     id="metadata7245">
    <rdf:RDF>
      <cc:Work
         rdf:about="">
        <dc:format>image/svg+xml</dc:format>
        <dc:type
           rdf:resource="http://purl.org/dc/dcmitype/StillImage" />
        <dc:title></dc:title>
      </cc:Work>
    </rdf:RDF>
  </metadata>
  <g
     inkscape:label="Layer 1"
     inkscape:groupmode="layer"
     id="layer1"
     transform="translate(-189.52379,-77.505965)">
    <path
       inkscape:connector-curvature="0"
       d="m 191.77378,111.25598 h 29.25001 q 2.24999,0 2.24999,-2.25001 V 79.755985 q 0,-2.25002 -2.24999,-2.25002 h -29.25001 q -2.24999,0 -2.24999,2.25002 v 29.249985 q 0,2.25001 2.24999,2.25001 z"
       style="fill:#bfbfbf;fill-rule:evenodd;stroke-width:0.26458332"
       id="path5802" />
    <g
       transform="matrix(0.26458333,0,0,0.26458333,32.023789,-1261.2441)"
       id="Layer1564">
      <path
         d="m 646.2992,5156.2205 q 8.8583,0 8.8583,-8.8583 v -21.9685 q 0,-8.8583 -8.8583,-8.8583 -8.8583,0 -8.8583,8.8583 v 21.9685 q 0,8.8583 8.8583,8.8583 z"
         style="fill:#000000;fill-rule:evenodd;stroke-width:0.23999999;stroke-linecap:round;stroke-linejoin:round"
         id="path5804"
         inkscape:connector-curvature="0" />
      <path
         d="m 646.2992,5156.2205 q 8.8583,0 8.8583,-8.8583 v -21.9685 q 0,-8.8583 -8.8583,-8.8583 -8.8583,0 -8.8583,8.8583 v 21.9685 q 0,8.8583 8.8583,8.8583 z"
         style="fill:none;stroke:#000000;stroke-width:0.23999999;stroke-linecap:round;stroke-linejoin:round;stroke-dasharray:none"
         id="path5806"
         inkscape:connector-curvature="0" />
    </g>
    <g
       transform="matrix(0.26458333,0,0,0.26458333,32.023789,-1261.2441)"
       id="Layer1565">
      <path
         d="m 609.4488,5157.6378 q 0,8.8583 8.8583,8.8583 h 55.9842 q 8.8583,0 8.8583,-8.8583 0,-8.8583 -8.8583,-8.8583 h -55.9842 q -8.8583,0 -8.8583,8.8583 z"
         style="fill:#000000;fill-rule:evenodd;stroke-width:0.23999999;stroke-linecap:round;stroke-linejoin:round"
         id="path5809"
         inkscape:connector-curvature="0" />
      <path
         d="m 609.4488,5157.6378 q 0,8.8583 8.8583,8.8583 h 55.9842 q 8.8583,0 8.8583,-8.8583 0,-8.8583 -8.8583,-8.8583 h -55.9842 q -8.8583,0 -8.8583,8.8583 z"
         style="fill:none;stroke:#000000;stroke-width:0.23999999;stroke-linecap:round;stroke-linejoin:round;stroke-dasharray:none"
         id="path5811"
         inkscape:connector-curvature="0" />
    </g>
    <g
       transform="matrix(0.26458333,0,0,0.26458333,32.023789,-1261.2441)"
       id="Layer1566">
      <path
         d="m 681.9411,5130.3502 h 18.925 q 5.6693,0 5.6693,-5.6693 v -18.925 q 0,-5.6693 -5.6693,-5.6693 h -18.925 q -5.6693,0 -5.6693,5.6693 v 18.925 q 0,5.6693 5.6693,5.6693 z"
         style="fill:#e8eef7;fill-rule:evenodd;stroke-width:6;stroke-linecap:round;stroke-linejoin:round"
         id="path5814"
         inkscape:connector-curvature="0" />
      <path
         d="m 681.9411,5130.3502 h 18.925 q 5.6693,0 5.6693,-5.6693 v -18.925 q 0,-5.6693 -5.6693,-5.6693 h -18.925 q -5.6693,0 -5.6693,5.6693 v 18.925 q 0,5.6693 5.6693,5.6693 z"
         style="fill:none;stroke:#000000;stroke-width:6;stroke-linecap:round;stroke-linejoin:round;stroke-dasharray:none"
         id="path5816"
         inkscape:connector-curvature="0" />
    </g>
    <g
       transform="matrix(0.26458333,0,0,0.26458333,32.023789,-1261.2441)"
       id="Layer1567">
      <path
         d="m 690.1746,5122.4505 h 2.6806 q 5.6693,0 5.6693,-5.6693 v -2.6806 q 0,-5.6693 -5.6693,-5.6693 h -2.6806 q -5.6693,0 -5.6693,5.6693 v 2.6806 q 0,5.6693 5.6693,5.6693 z"
         style="fill:#000000;fill-rule:evenodd;stroke-width:4.5;stroke-linecap:round;stroke-linejoin:round"
         id="path5819"
         inkscape:connector-curvature="0" />
      <path
         d="m 690.1746,5122.4505 h 2.6806 q 5.6693,0 5.6693,-5.6693 v -2.6806 q 0,-5.6693 -5.6693,-5.6693 h -2.6806 q -5.6693,0 -5.6693,5.6693 v 2.6806 q 0,5.6693 5.6693,5.6693 z"
         style="fill:none;stroke:#000000;stroke-width:4.5;stroke-linecap:round;stroke-linejoin:round;stroke-dasharray:none"
         id="path5821"
         inkscape:connector-curvature="0" />
    </g>
    <path
       inkscape:connector-curvature="0"
       d="m 211.14226,88.568065 -8.66648,-6.41961"
       style="fill:none;stroke:#000000;stroke-width:1.19062495;stroke-linecap:round;stroke-linejoin:round;stroke-dasharray:none"
       id="path5824" />
    <path
       inkscape:connector-curvature="0"
       d="m 218.07813,88.036115 -8.24275,-5.88766"
       style="fill:none;stroke:#000000;stroke-width:1.19062495;stroke-linecap:round;stroke-linejoin:round;stroke-dasharray:none"
       id="path5826" />
    <path
       inkscape:connector-curvature="0"
       d="m 201.9459,82.089585 h 7.83061"
       style="fill:none;stroke:#000000;stroke-width:1.19062495;stroke-linecap:round;stroke-linejoin:round;stroke-dasharray:none"
       id="path5828" />
    <path
       inkscape:connector-curvature="0"
       d="m 210.89516,95.689035 -7.85436,-5.65177 q -0.62389,-0.44894 -0.62389,-1.21756 v -6.67125"
       style="fill:none;stroke:#000000;stroke-width:1.19062495;stroke-linecap:round;stroke-linejoin:round;stroke-dasharray:none"
       id="path5830" />
    <path
       inkscape:connector-curvature="0"
       d="m 203.24117,82.737225 h 7.35962"
       style="fill:none;stroke:#000000;stroke-width:1.19062495;stroke-linecap:round;stroke-linejoin:round;stroke-dasharray:none"
       id="path5832" />
    <path
       inkscape:connector-curvature="0"
       d="m 204.53646,83.620355 h 7.3596"
       style="fill:none;stroke:#000000;stroke-width:1.19062495;stroke-linecap:round;stroke-linejoin:round;stroke-dasharray:none"
       id="path5834" />
    <path
       inkscape:connector-curvature="0"
       d="m 205.71401,84.503505 h 7.3596"
       style="fill:none;stroke:#000000;stroke-width:1.19062495;stroke-linecap:round;stroke-linejoin:round;stroke-dasharray:none"
       id="path5836" />
    <path
       inkscape:connector-curvature="0"
       d="m 206.42053,85.092285 h 7.3596"
       style="fill:none;stroke:#000000;stroke-width:1.19062495;stroke-linecap:round;stroke-linejoin:round;stroke-dasharray:none"
       id="path5838" />
    <path
       inkscape:connector-curvature="0"
       d="m 207.14605,86.037455 7.5761,-0.35639"
       style="fill:none;stroke:#000000;stroke-width:1.19062495;stroke-linecap:round;stroke-linejoin:round;stroke-dasharray:none"
       id="path5840" />
    <path
       inkscape:connector-curvature="0"
       d="m 208.42234,86.564215 h 7.3596"
       style="fill:none;stroke:#000000;stroke-width:1.19062495;stroke-linecap:round;stroke-linejoin:round;stroke-dasharray:none"
       id="path5842" />
    <path
       inkscape:connector-curvature="0"
       d="m 209.01109,86.858585 h 7.35963"
       style="fill:none;stroke:#000000;stroke-width:1.19062495;stroke-linecap:round;stroke-linejoin:round;stroke-dasharray:none"
       id="path5844" />
    <path
       inkscape:connector-curvature="0"
       d="m 209.12886,86.976355 h 7.3596"
       style="fill:none;stroke:#000000;stroke-width:1.19062495;stroke-linecap:round;stroke-linejoin:round;stroke-dasharray:none"
       id="path5846" />
    <path
       inkscape:connector-curvature="0"
       d="m 209.83538,87.447365 h 7.35959"
       style="fill:none;stroke:#000000;stroke-width:1.19062495;stroke-linecap:round;stroke-linejoin:round;stroke-dasharray:none"
       id="path5848" />
    <path
       inkscape:connector-curvature="0"
       d="m 210.18865,88.212755 h 8.06611"
       style="fill:none;stroke:#000000;stroke-width:1.19062495;stroke-linecap:round;stroke-linejoin:round;stroke-dasharray:none"
       id="path5850" />
    <path
       inkscape:connector-curvature="0"
       d="m 203.35893,83.325975 v 6.77085"
       style="fill:none;stroke:#000000;stroke-width:1.58749998;stroke-linecap:round;stroke-linejoin:round;stroke-dasharray:none"
       id="path5852" />
    <path
       inkscape:connector-curvature="0"
       d="m 204.53646,83.914755 v 6.77082"
       style="fill:none;stroke:#000000;stroke-width:1.58749998;stroke-linecap:round;stroke-linejoin:round;stroke-dasharray:none"
       id="path5854" />
    <path
       inkscape:connector-curvature="0"
       d="m 204.83086,83.914755 v 6.77082"
       style="fill:none;stroke:#000000;stroke-width:1.58749998;stroke-linecap:round;stroke-linejoin:round;stroke-dasharray:none"
       id="path5856" />
    <path
       inkscape:connector-curvature="0"
       d="m 205.71401,84.503505 v 6.77085"
       style="fill:none;stroke:#000000;stroke-width:1.58749998;stroke-linecap:round;stroke-linejoin:round;stroke-dasharray:none"
       id="path5858" />
    <path
       inkscape:connector-curvature="0"
       d="m 206.30277,85.092285 v 6.77084"
       style="fill:none;stroke:#000000;stroke-width:1.58749998;stroke-linecap:round;stroke-linejoin:round;stroke-dasharray:none"
       id="path5860" />
    <path
       inkscape:connector-curvature="0"
       d="m 207.14605,86.037455 -0.25451,6.41443"
       style="fill:none;stroke:#000000;stroke-width:1.58749998;stroke-linecap:round;stroke-linejoin:round;stroke-dasharray:none"
       id="path5862" />
    <path
       inkscape:connector-curvature="0"
       d="m 207.48032,85.975435 v 6.77085"
       style="fill:none;stroke:#000000;stroke-width:1.58749998;stroke-linecap:round;stroke-linejoin:round;stroke-dasharray:none"
       id="path5864" />
    <path
       inkscape:connector-curvature="0"
       d="m 208.65785,86.269815 v 4.12138"
       style="fill:none;stroke:#000000;stroke-width:1.58749998;stroke-linecap:round;stroke-linejoin:round;stroke-dasharray:none"
       id="path5866" />
    <path
       inkscape:connector-curvature="0"
       d="m 208.95222,86.858585 v 6.77085"
       style="fill:none;stroke:#000000;stroke-width:1.58749998;stroke-linecap:round;stroke-linejoin:round;stroke-dasharray:none"
       id="path5868" />
    <path
       inkscape:connector-curvature="0"
       d="m 209.24663,86.858585 -0.29441,6.77085"
       style="fill:none;stroke:#000000;stroke-width:1.58749998;stroke-linecap:round;stroke-linejoin:round;stroke-dasharray:none"
       id="path5870" />
    <path
       inkscape:connector-curvature="0"
       d="m 209.83538,87.447365 v 6.77082"
       style="fill:none;stroke:#000000;stroke-width:1.58749998;stroke-linecap:round;stroke-linejoin:round;stroke-dasharray:none"
       id="path5872" />
    <path
       inkscape:connector-curvature="0"
       d="m 203.67191,82.927405 7.28212,5.22648"
       style="fill:none;stroke:#ffffff;stroke-width:1.58749998;stroke-linecap:round;stroke-linejoin:round;stroke-dasharray:none"
       id="path5874" />
    <g
       transform="matrix(0.26458333,0,0,0.26458333,32.023789,-1261.2441)"
       id="Layer1568">
      <path
         d="m 627.7926,5115.2821 12.7549,7.3641 7.6216,-13.2009 -12.755,-7.3641 z"
         style="fill:#000000;fill-rule:evenodd;stroke-width:0.23999999;stroke-linecap:round;stroke-linejoin:round"
         id="path5876"
         inkscape:connector-curvature="0" />
      <path
         d="m 627.7926,5115.2821 12.7549,7.3641 7.6216,-13.2009 -12.755,-7.3641 z"
         style="fill:none;stroke:#000000;stroke-width:0.23999999;stroke-linecap:round;stroke-linejoin:round;stroke-dasharray:none"
         id="path5878"
         inkscape:connector-curvature="0" />
    </g>
    <g
       transform="matrix(0.26458333,0,0,0.26458333,32.023789,-1261.2441)"
       id="Layer1569">
      <path
         d="m 652.1226,5130.3502 h 18.4799 q 5.6693,0 5.6693,-5.6693 v -18.48 q 0,-5.6693 -5.6693,-5.6693 h -18.4799 q -5.6693,0 -5.6693,5.6693 v 18.48 q 0,5.6693 5.6693,5.6693 z"
         style="fill:#e8eef7;fill-rule:evenodd;stroke-width:6;stroke-linecap:round;stroke-linejoin:round"
         id="path5881"
         inkscape:connector-curvature="0" />
      <path
         d="m 652.1226,5130.3502 h 18.4799 q 5.6693,0 5.6693,-5.6693 v -18.48 q 0,-5.6693 -5.6693,-5.6693 h -18.4799 q -5.6693,0 -5.6693,5.6693 v 18.48 q 0,5.6693 5.6693,5.6693 z"
         style="fill:none;stroke:#000000;stroke-width:6;stroke-linecap:round;stroke-linejoin:round;stroke-dasharray:none"
         id="path5883"
         inkscape:connector-curvature="0" />
    </g>
    <g
       transform="matrix(0.26458333,0,0,0.26458333,32.023789,-1261.2441)"
       id="Layer1570">
      <path
         d="m 660.1335,5122.7843 h 2.6806 q 5.6693,0 5.6693,-5.6693 v -2.6806 q 0,-5.6693 -5.6693,-5.6693 h -2.6806 q -5.6693,0 -5.6693,5.6693 v 2.6806 q 0,5.6693 5.6693,5.6693 z"
         style="fill:#ff0000;fill-rule:evenodd;stroke-width:4.5;stroke-linecap:round;stroke-linejoin:round"
         id="path5886"
         inkscape:connector-curvature="0" />
      <path
         d="m 660.1335,5122.7843 h 2.6806 q 5.6693,0 5.6693,-5.6693 v -2.6806 q 0,-5.6693 -5.6693,-5.6693 h -2.6806 q -5.6693,0 -5.6693,5.6693 v 2.6806 q 0,5.6693 5.6693,5.6693 z"
         style="fill:none;stroke:#ff0000;stroke-width:4.5;stroke-linecap:round;stroke-linejoin:round;stroke-dasharray:none"
         id="path5888"
         inkscape:connector-curvature="0" />
    </g>
    <path
       inkscape:connector-curvature="0"
       d="m 203.31162,88.537605 -8.66645,-6.41961"
       style="fill:none;stroke:#000000;stroke-width:1.19062495;stroke-linecap:round;stroke-linejoin:round;stroke-dasharray:none"
       id="path5891" />
    <path
       inkscape:connector-curvature="0"
       d="m 210.24752,88.153885 -8.24275,-5.8877"
       style="fill:none;stroke:#000000;stroke-width:1.19062495;stroke-linecap:round;stroke-linejoin:round;stroke-dasharray:none"
       id="path5893" />
    <path
       inkscape:connector-curvature="0"
       d="m 194.64517,82.089585 h 7.3596"
       style="fill:none;stroke:#000000;stroke-width:1.19062495;stroke-linecap:round;stroke-linejoin:round;stroke-dasharray:none"
       id="path5895" />
    <path
       inkscape:connector-curvature="0"
       d="m 203.06456,95.806795 -7.85689,-5.67817 q -0.6214,-0.44907 -0.6214,-1.21573 v -6.70558"
       style="fill:none;stroke:#000000;stroke-width:1.19062495;stroke-linecap:round;stroke-linejoin:round;stroke-dasharray:none"
       id="path5897" />
    <path
       inkscape:connector-curvature="0"
       d="m 195.41056,82.854965 h 9.06703"
       style="fill:none;stroke:#000000;stroke-width:1.19062495;stroke-linecap:round;stroke-linejoin:round;stroke-dasharray:none"
       id="path5899" />
    <path
       inkscape:connector-curvature="0"
       d="m 196.70585,83.738115 h 7.3596"
       style="fill:none;stroke:#000000;stroke-width:1.19062495;stroke-linecap:round;stroke-linejoin:round;stroke-dasharray:none"
       id="path5901" />
    <path
       inkscape:connector-curvature="0"
       d="M 197.88338,84.621275 H 205.243"
       style="fill:none;stroke:#000000;stroke-width:1.19062495;stroke-linecap:round;stroke-linejoin:round;stroke-dasharray:none"
       id="path5903" />
    <path
       inkscape:connector-curvature="0"
       d="m 198.58992,85.210045 h 7.3596"
       style="fill:none;stroke:#000000;stroke-width:1.19062495;stroke-linecap:round;stroke-linejoin:round;stroke-dasharray:none"
       id="path5905" />
    <path
       inkscape:connector-curvature="0"
       d="m 199.53195,85.798805 7.6141,0.23865"
       style="fill:none;stroke:#000000;stroke-width:1.19062495;stroke-linecap:round;stroke-linejoin:round;stroke-dasharray:none"
       id="path5907" />
    <path
       inkscape:connector-curvature="0"
       d="m 200.59173,86.681955 h 7.3596"
       style="fill:none;stroke:#000000;stroke-width:1.19062495;stroke-linecap:round;stroke-linejoin:round;stroke-dasharray:none"
       id="path5909" />
    <path
       inkscape:connector-curvature="0"
       d="m 201.18048,86.976355 h 7.3596"
       style="fill:none;stroke:#000000;stroke-width:1.19062495;stroke-linecap:round;stroke-linejoin:round;stroke-dasharray:none"
       id="path5911" />
    <path
       inkscape:connector-curvature="0"
       d="m 201.29825,87.094095 h 7.3596"
       style="fill:none;stroke:#000000;stroke-width:1.19062495;stroke-linecap:round;stroke-linejoin:round;stroke-dasharray:none"
       id="path5913" />
    <path
       inkscape:connector-curvature="0"
       d="m 202.00477,87.565105 h 7.35959"
       style="fill:none;stroke:#000000;stroke-width:1.19062495;stroke-linecap:round;stroke-linejoin:round;stroke-dasharray:none"
       id="path5915" />
    <path
       inkscape:connector-curvature="0"
       d="m 203.06456,88.271625 h 7.35959"
       style="fill:none;stroke:#000000;stroke-width:1.19062495;stroke-linecap:round;stroke-linejoin:round;stroke-dasharray:none"
       id="path5917" />
    <path
       inkscape:connector-curvature="0"
       d="m 195.52832,83.443745 v 6.77082"
       style="fill:none;stroke:#000000;stroke-width:1.58749998;stroke-linecap:round;stroke-linejoin:round;stroke-dasharray:none"
       id="path5919" />
    <path
       inkscape:connector-curvature="0"
       d="m 196.70585,84.032495 v 6.77085"
       style="fill:none;stroke:#000000;stroke-width:1.58749998;stroke-linecap:round;stroke-linejoin:round;stroke-dasharray:none"
       id="path5921" />
    <path
       inkscape:connector-curvature="0"
       d="m 197.00023,84.032495 v 6.77085"
       style="fill:none;stroke:#000000;stroke-width:1.58749998;stroke-linecap:round;stroke-linejoin:round;stroke-dasharray:none"
       id="path5923" />
    <path
       inkscape:connector-curvature="0"
       d="m 197.88338,84.621275 v 6.77084"
       style="fill:none;stroke:#000000;stroke-width:1.58749998;stroke-linecap:round;stroke-linejoin:round;stroke-dasharray:none"
       id="path5925" />
    <path
       inkscape:connector-curvature="0"
       d="m 198.47216,85.210045 v 6.77082"
       style="fill:none;stroke:#000000;stroke-width:1.58749998;stroke-linecap:round;stroke-linejoin:round;stroke-dasharray:none"
       id="path5927" />
    <path
       inkscape:connector-curvature="0"
       d="m 199.06093,85.798805 v 6.77084"
       style="fill:none;stroke:#000000;stroke-width:1.58749998;stroke-linecap:round;stroke-linejoin:round;stroke-dasharray:none"
       id="path5929" />
    <path
       inkscape:connector-curvature="0"
       d="m 199.64969,86.093205 v 6.77082"
       style="fill:none;stroke:#000000;stroke-width:1.58749998;stroke-linecap:round;stroke-linejoin:round;stroke-dasharray:none"
       id="path5931" />
    <path
       inkscape:connector-curvature="0"
       d="m 200.82724,86.387575 v 4.12139"
       style="fill:none;stroke:#000000;stroke-width:1.58749998;stroke-linecap:round;stroke-linejoin:round;stroke-dasharray:none"
       id="path5933" />
    <path
       inkscape:connector-curvature="0"
       d="m 201.12162,86.976355 1.38863,5.40004"
       style="fill:none;stroke:#000000;stroke-width:1.58749998;stroke-linecap:round;stroke-linejoin:round;stroke-dasharray:none"
       id="path5935" />
    <path
       inkscape:connector-curvature="0"
       d="m 201.41599,86.976355 1.09426,5.40004"
       style="fill:none;stroke:#000000;stroke-width:1.58749998;stroke-linecap:round;stroke-linejoin:round;stroke-dasharray:none"
       id="path5937" />
    <path
       inkscape:connector-curvature="0"
       d="m 202.00477,87.565105 v 6.77085"
       style="fill:none;stroke:#000000;stroke-width:1.58749998;stroke-linecap:round;stroke-linejoin:round;stroke-dasharray:none"
       id="path5939" />
    <path
       inkscape:connector-curvature="0"
       d="m 195.84127,82.896955 7.22329,5.22647"
       style="fill:none;stroke:#ffffff;stroke-width:1.58749998;stroke-linecap:round;stroke-linejoin:round;stroke-dasharray:none"
       id="path5941" />
    <g
       transform="matrix(0.26458333,0,0,0.26458333,32.023789,-1261.2441)"
       id="Layer1571">
      <path
         d="m 677.9381,5103.332 3.7882,-5.41 -32.1176,-22.4889 -3.7881,5.41 z"
         style="fill:#000000;fill-rule:evenodd;stroke-width:0.23999999;stroke-linecap:round;stroke-linejoin:round"
         id="path5943"
         inkscape:connector-curvature="0" />
      <path
         d="m 677.9381,5103.332 3.7882,-5.41 -32.1176,-22.4889 -3.7881,5.41 z"
         style="fill:none;stroke:#000000;stroke-width:0.23999999;stroke-linecap:round;stroke-linejoin:round;stroke-dasharray:none"
         id="path5945"
         inkscape:connector-curvature="0" />
    </g>
  </g>
</svg>
