<?xml version="1.0" encoding="UTF-8" standalone="no"?>
<svg
   xmlns:dc="http://purl.org/dc/elements/1.1/"
   xmlns:cc="http://creativecommons.org/ns#"
   xmlns:rdf="http://www.w3.org/1999/02/22-rdf-syntax-ns#"
   xmlns:svg="http://www.w3.org/2000/svg"
   xmlns="http://www.w3.org/2000/svg"
   id="svg7248"
   version="1.1"
   viewBox="0 0 33.749981 33.750011"
   height="33.750011mm"
   width="33.749981mm">
  <defs
     id="defs7242" />
  <metadata
     id="metadata7245">
    <rdf:RDF>
      <cc:Work
         rdf:about="">
        <dc:format>image/svg+xml</dc:format>
        <dc:type
           rdf:resource="http://purl.org/dc/dcmitype/StillImage" />
        <dc:title></dc:title>
      </cc:Work>
    </rdf:RDF>
  </metadata>
  <g
     transform="translate(-206.13096,-207.55357)"
     id="layer1">
    <path
       id="path2"
       style="fill:#00db00;fill-rule:evenodd;stroke-width:0.26458332"
       d="m 208.38095,241.30358 h 29.25 q 2.24999,0 2.24999,-2.25002 v -29.24998 q 0,-2.25001 -2.24999,-2.25001 h -29.25 q -2.24999,0 -2.24999,2.25001 v 29.24998 q 0,2.25002 2.24999,2.25002 z" />
    <g
       id="Layer1000"
       transform="matrix(0.26458333,0,0,0.26458333,198.63095,-1131.1964)">
      <path
         id="path4"
         style="fill:#000000;fill-rule:evenodd;stroke-width:0.23999999;stroke-linecap:round;stroke-linejoin:round"
         d="m 79.3701,5156.2205 q 8.8582,0 8.8582,-8.8583 v -21.9685 q 0,-8.8583 -8.8582,-8.8583 -8.8583,0 -8.8583,8.8583 v 21.9685 q 0,8.8583 8.8583,8.8583 z" />
      <path
         id="path6"
         style="fill:none;stroke:#000000;stroke-width:0.23999999;stroke-linecap:round;stroke-linejoin:round;stroke-dasharray:none"
         d="m 79.3701,5156.2205 q 8.8582,0 8.8582,-8.8583 v -21.9685 q 0,-8.8583 -8.8582,-8.8583 -8.8583,0 -8.8583,8.8583 v 21.9685 q 0,8.8583 8.8583,8.8583 z" />
    </g>
    <g
       id="Layer1533"
       transform="matrix(0.26458333,0,0,0.26458333,198.63095,-1131.1964)">
      <path
         id="path5225"
         style="fill:#000000;fill-rule:evenodd;stroke-width:0.23999999;stroke-linecap:round;stroke-linejoin:round"
         d="m 42.5197,5157.6378 q 0,8.8583 8.8583,8.8583 h 55.9842 q 8.8583,0 8.8583,-8.8583 0,-8.8583 -8.8583,-8.8583 H 51.378 q -8.8583,0 -8.8583,8.8583 z" />
      <path
         id="path5227"
         style="fill:none;stroke:#000000;stroke-width:0.23999999;stroke-linecap:round;stroke-linejoin:round;stroke-dasharray:none"
         d="m 42.5197,5157.6378 q 0,8.8583 8.8583,8.8583 h 55.9842 q 8.8583,0 8.8583,-8.8583 0,-8.8583 -8.8583,-8.8583 H 51.378 q -8.8583,0 -8.8583,8.8583 z" />
    </g>
    <g
       id="Layer1534"
       transform="matrix(0.26458333,0,0,0.26458333,198.63095,-1131.1964)">
      <path
         id="path5230"
         style="fill:#e8eef7;fill-rule:evenodd;stroke-width:6;stroke-linecap:round;stroke-linejoin:round"
         d="m 115.012,5130.3502 h 18.925 q 5.6693,0 5.6693,-5.6693 v -18.925 q 0,-5.6693 -5.6693,-5.6693 h -18.925 q -5.6693,0 -5.6693,5.6693 v 18.925 q 0,5.6693 5.6693,5.6693 z" />
      <path
         id="path5232"
         style="fill:none;stroke:#000000;stroke-width:6;stroke-linecap:round;stroke-linejoin:round;stroke-dasharray:none"
         d="m 115.012,5130.3502 h 18.925 q 5.6693,0 5.6693,-5.6693 v -18.925 q 0,-5.6693 -5.6693,-5.6693 h -18.925 q -5.6693,0 -5.6693,5.6693 v 18.925 q 0,5.6693 5.6693,5.6693 z" />
    </g>
    <g
       id="Layer1535"
       transform="matrix(0.26458333,0,0,0.26458333,198.63095,-1131.1964)">
      <path
         id="path5235"
         style="fill:#000000;fill-rule:evenodd;stroke-width:4.5;stroke-linecap:round;stroke-linejoin:round"
         d="m 123.2455,5122.4505 h 2.6806 q 5.6692,0 5.6692,-5.6693 v -2.6806 q 0,-5.6693 -5.6692,-5.6693 h -2.6806 q -5.6693,0 -5.6693,5.6693 v 2.6806 q 0,5.6693 5.6693,5.6693 z" />
      <path
         id="path5237"
         style="fill:none;stroke:#000000;stroke-width:4.5;stroke-linecap:round;stroke-linejoin:round;stroke-dasharray:none"
         d="m 123.2455,5122.4505 h 2.6806 q 5.6692,0 5.6692,-5.6693 v -2.6806 q 0,-5.6693 -5.6692,-5.6693 h -2.6806 q -5.6693,0 -5.6693,5.6693 v 2.6806 q 0,5.6693 5.6693,5.6693 z" />
    </g>
    <path
       id="path5240"
       style="fill:none;stroke:#000000;stroke-width:1.19062495;stroke-linecap:round;stroke-linejoin:round;stroke-dasharray:none"
       d="m 227.7494,218.61566 -8.66645,-6.41961" />
    <path
       id="path5242"
       style="fill:none;stroke:#000000;stroke-width:1.19062495;stroke-linecap:round;stroke-linejoin:round;stroke-dasharray:none"
       d="m 234.6853,218.08372 -8.24275,-5.88767" />
    <path
       id="path5244"
       style="fill:none;stroke:#000000;stroke-width:1.19062495;stroke-linecap:round;stroke-linejoin:round;stroke-dasharray:none"
       d="m 218.55304,212.13718 h 7.83064" />
    <path
       id="path5246"
       style="fill:none;stroke:#000000;stroke-width:1.19062495;stroke-linecap:round;stroke-linejoin:round;stroke-dasharray:none"
       d="m 227.50233,225.73663 -7.85439,-5.65176 q -0.62389,-0.44895 -0.62389,-1.21756 v -6.67126" />
    <path
       id="path5248"
       style="fill:none;stroke:#000000;stroke-width:1.19062495;stroke-linecap:round;stroke-linejoin:round;stroke-dasharray:none"
       d="m 219.84834,212.78483 h 7.35959" />
    <path
       id="path5250"
       style="fill:none;stroke:#000000;stroke-width:1.19062495;stroke-linecap:round;stroke-linejoin:round;stroke-dasharray:none"
       d="m 221.14363,213.66795 h 7.3596" />
    <path
       id="path5252"
       style="fill:none;stroke:#000000;stroke-width:1.19062495;stroke-linecap:round;stroke-linejoin:round;stroke-dasharray:none"
       d="m 222.32116,214.55111 h 7.35959" />
    <path
       id="path5254"
       style="fill:none;stroke:#000000;stroke-width:1.19062495;stroke-linecap:round;stroke-linejoin:round;stroke-dasharray:none"
       d="m 223.02767,215.13988 h 7.35963" />
    <path
       id="path5256"
       style="fill:none;stroke:#000000;stroke-width:1.19062495;stroke-linecap:round;stroke-linejoin:round;stroke-dasharray:none"
       d="m 223.75319,216.08506 7.57613,-0.3564" />
    <path
       id="path5258"
       style="fill:none;stroke:#000000;stroke-width:1.19062495;stroke-linecap:round;stroke-linejoin:round;stroke-dasharray:none"
       d="m 225.02949,216.61181 h 7.35962" />
    <path
       id="path5260"
       style="fill:none;stroke:#000000;stroke-width:1.19062495;stroke-linecap:round;stroke-linejoin:round;stroke-dasharray:none"
       d="m 225.61826,216.90619 h 7.3596" />
    <path
       id="path5262"
       style="fill:none;stroke:#000000;stroke-width:1.19062495;stroke-linecap:round;stroke-linejoin:round;stroke-dasharray:none"
       d="m 225.73603,217.02396 h 7.3596" />
    <path
       id="path5264"
       style="fill:none;stroke:#000000;stroke-width:1.19062495;stroke-linecap:round;stroke-linejoin:round;stroke-dasharray:none"
       d="m 226.44255,217.49497 h 7.35959" />
    <path
       id="path5266"
       style="fill:none;stroke:#000000;stroke-width:1.19062495;stroke-linecap:round;stroke-linejoin:round;stroke-dasharray:none"
       d="m 226.79579,218.26035 h 8.06614" />
    <path
       id="path5268"
       style="fill:none;stroke:#000000;stroke-width:1.58749998;stroke-linecap:round;stroke-linejoin:round;stroke-dasharray:none"
       d="m 219.9661,213.37358 v 6.77084" />
    <path
       id="path5270"
       style="fill:none;stroke:#000000;stroke-width:1.58749998;stroke-linecap:round;stroke-linejoin:round;stroke-dasharray:none"
       d="m 221.14363,213.96236 v 6.77082" />
    <path
       id="path5272"
       style="fill:none;stroke:#000000;stroke-width:1.58749998;stroke-linecap:round;stroke-linejoin:round;stroke-dasharray:none"
       d="m 221.438,213.96236 v 6.77082" />
    <path
       id="path5274"
       style="fill:none;stroke:#000000;stroke-width:1.58749998;stroke-linecap:round;stroke-linejoin:round;stroke-dasharray:none"
       d="m 222.32116,214.55111 v 6.77084" />
    <path
       id="path5276"
       style="fill:none;stroke:#000000;stroke-width:1.58749998;stroke-linecap:round;stroke-linejoin:round;stroke-dasharray:none"
       d="m 222.90993,215.13988 v 6.77085" />
    <path
       id="path5278"
       style="fill:none;stroke:#000000;stroke-width:1.58749998;stroke-linecap:round;stroke-linejoin:round;stroke-dasharray:none"
       d="m 223.75319,216.08506 -0.25448,6.41442" />
    <path
       id="path5280"
       style="fill:none;stroke:#000000;stroke-width:1.58749998;stroke-linecap:round;stroke-linejoin:round;stroke-dasharray:none"
       d="m 224.08746,216.02304 v 6.77084" />
    <path
       id="path5282"
       style="fill:none;stroke:#000000;stroke-width:1.58749998;stroke-linecap:round;stroke-linejoin:round;stroke-dasharray:none"
       d="m 225.26502,216.31741 v 4.12139" />
    <path
       id="path5284"
       style="fill:none;stroke:#000000;stroke-width:1.58749998;stroke-linecap:round;stroke-linejoin:round;stroke-dasharray:none"
       d="m 225.55939,216.90619 v 6.77085" />
    <path
       id="path5286"
       style="fill:none;stroke:#000000;stroke-width:1.58749998;stroke-linecap:round;stroke-linejoin:round;stroke-dasharray:none"
       d="m 225.85377,216.90619 -0.29438,6.77085" />
    <path
       id="path5288"
       style="fill:none;stroke:#000000;stroke-width:1.58749998;stroke-linecap:round;stroke-linejoin:round;stroke-dasharray:none"
       d="m 226.44255,217.49497 v 6.77082" />
    <path
       id="path5290"
       style="fill:none;stroke:#ffffff;stroke-width:1.58749998;stroke-linecap:round;stroke-linejoin:round;stroke-dasharray:none"
       d="m 220.27905,212.97501 7.28215,5.22647" />
    <g
       id="Layer1536"
       transform="matrix(0.26458333,0,0,0.26458333,198.63095,-1131.1964)">
      <path
         id="path5292"
         style="fill:#000000;fill-rule:evenodd;stroke-width:0.23999999;stroke-linecap:round;stroke-linejoin:round"
         d="m 60.8635,5115.2821 12.7549,7.3641 7.6215,-13.2009 -12.7549,-7.3641 z" />
      <path
         id="path5294"
         style="fill:none;stroke:#000000;stroke-width:0.23999999;stroke-linecap:round;stroke-linejoin:round;stroke-dasharray:none"
         d="m 60.8635,5115.2821 12.7549,7.3641 7.6215,-13.2009 -12.7549,-7.3641 z" />
    </g>
    <g
       id="Layer1537"
       transform="matrix(0.26458333,0,0,0.26458333,198.63095,-1131.1964)">
      <path
         id="path5297"
         style="fill:#e8eef7;fill-rule:evenodd;stroke-width:6;stroke-linecap:round;stroke-linejoin:round"
         d="m 85.1934,5130.3502 h 18.48 q 5.6693,0 5.6693,-5.6693 v -18.48 q 0,-5.6693 -5.6693,-5.6693 h -18.48 q -5.6693,0 -5.6693,5.6693 v 18.48 q 0,5.6693 5.6693,5.6693 z" />
      <path
         id="path5299"
         style="fill:none;stroke:#000000;stroke-width:6;stroke-linecap:round;stroke-linejoin:round;stroke-dasharray:none"
         d="m 85.1934,5130.3502 h 18.48 q 5.6693,0 5.6693,-5.6693 v -18.48 q 0,-5.6693 -5.6693,-5.6693 h -18.48 q -5.6693,0 -5.6693,5.6693 v 18.48 q 0,5.6693 5.6693,5.6693 z" />
    </g>
    <g
       id="Layer1538"
       transform="matrix(0.26458333,0,0,0.26458333,198.63095,-1131.1964)">
      <path
         id="path5302"
         style="fill:#ff0000;fill-rule:evenodd;stroke-width:4.5;stroke-linecap:round;stroke-linejoin:round"
         d="m 93.2044,5122.7843 h 2.6806 q 5.6693,0 5.6693,-5.6693 v -2.6806 q 0,-5.6693 -5.6693,-5.6693 h -2.6806 q -5.6693,0 -5.6693,5.6693 v 2.6806 q 0,5.6693 5.6693,5.6693 z" />
      <path
         id="path5304"
         style="fill:none;stroke:#ff0000;stroke-width:4.5;stroke-linecap:round;stroke-linejoin:round;stroke-dasharray:none"
         d="m 93.2044,5122.7843 h 2.6806 q 5.6693,0 5.6693,-5.6693 v -2.6806 q 0,-5.6693 -5.6693,-5.6693 h -2.6806 q -5.6693,0 -5.6693,5.6693 v 2.6806 q 0,5.6693 5.6693,5.6693 z" />
    </g>
    <path
       id="path5307"
       style="fill:none;stroke:#000000;stroke-width:1.19062495;stroke-linecap:round;stroke-linejoin:round;stroke-dasharray:none"
       d="m 219.91879,218.58521 -8.66648,-6.41961" />
    <path
       id="path5309"
       style="fill:none;stroke:#000000;stroke-width:1.19062495;stroke-linecap:round;stroke-linejoin:round;stroke-dasharray:none"
       d="m 226.85469,218.20148 -8.24275,-5.88769" />
    <path
       id="path5311"
       style="fill:none;stroke:#000000;stroke-width:1.19062495;stroke-linecap:round;stroke-linejoin:round;stroke-dasharray:none"
       d="m 211.25231,212.13718 h 7.35963" />
    <path
       id="path5313"
       style="fill:none;stroke:#000000;stroke-width:1.19062495;stroke-linecap:round;stroke-linejoin:round;stroke-dasharray:none"
       d="m 219.6717,225.8544 -7.85688,-5.67817 q -0.62138,-0.44908 -0.62138,-1.21574 v -6.70557" />
    <path
       id="path5315"
       style="fill:none;stroke:#000000;stroke-width:1.19062495;stroke-linecap:round;stroke-linejoin:round;stroke-dasharray:none"
       d="m 212.01773,212.90257 h 9.06703" />
    <path
       id="path5317"
       style="fill:none;stroke:#000000;stroke-width:1.19062495;stroke-linecap:round;stroke-linejoin:round;stroke-dasharray:none"
       d="m 213.31302,213.78572 h 7.3596" />
    <path
       id="path5319"
       style="fill:none;stroke:#000000;stroke-width:1.19062495;stroke-linecap:round;stroke-linejoin:round;stroke-dasharray:none"
       d="m 214.49055,214.66887 h 7.3596" />
    <path
       id="path5321"
       style="fill:none;stroke:#000000;stroke-width:1.19062495;stroke-linecap:round;stroke-linejoin:round;stroke-dasharray:none"
       d="m 215.19707,215.25765 h 7.35959" />
    <path
       id="path5323"
       style="fill:none;stroke:#000000;stroke-width:1.19062495;stroke-linecap:round;stroke-linejoin:round;stroke-dasharray:none"
       d="m 216.13909,215.8464 7.6141,0.23866" />
    <path
       id="path5325"
       style="fill:none;stroke:#000000;stroke-width:1.19062495;stroke-linecap:round;stroke-linejoin:round;stroke-dasharray:none"
       d="m 217.19888,216.72955 h 7.35959" />
    <path
       id="path5327"
       style="fill:none;stroke:#000000;stroke-width:1.19062495;stroke-linecap:round;stroke-linejoin:round;stroke-dasharray:none"
       d="m 217.78765,217.02396 h 7.3596" />
    <path
       id="path5329"
       style="fill:none;stroke:#000000;stroke-width:1.19062495;stroke-linecap:round;stroke-linejoin:round;stroke-dasharray:none"
       d="m 217.90539,217.1417 h 7.35963" />
    <path
       id="path5331"
       style="fill:none;stroke:#000000;stroke-width:1.19062495;stroke-linecap:round;stroke-linejoin:round;stroke-dasharray:none"
       d="m 218.61194,217.61271 h 7.35959" />
    <path
       id="path5333"
       style="fill:none;stroke:#000000;stroke-width:1.19062495;stroke-linecap:round;stroke-linejoin:round;stroke-dasharray:none"
       d="m 219.6717,218.31922 h 7.35962" />
    <path
       id="path5335"
       style="fill:none;stroke:#000000;stroke-width:1.58749998;stroke-linecap:round;stroke-linejoin:round;stroke-dasharray:none"
       d="m 212.13547,213.49134 v 6.77082" />
    <path
       id="path5337"
       style="fill:none;stroke:#000000;stroke-width:1.58749998;stroke-linecap:round;stroke-linejoin:round;stroke-dasharray:none"
       d="m 213.31302,214.0801 v 6.77084" />
    <path
       id="path5339"
       style="fill:none;stroke:#000000;stroke-width:1.58749998;stroke-linecap:round;stroke-linejoin:round;stroke-dasharray:none"
       d="m 213.6074,214.0801 v 6.77084" />
    <path
       id="path5341"
       style="fill:none;stroke:#000000;stroke-width:1.58749998;stroke-linecap:round;stroke-linejoin:round;stroke-dasharray:none"
       d="m 214.49055,214.66887 v 6.77085" />
    <path
       id="path5343"
       style="fill:none;stroke:#000000;stroke-width:1.58749998;stroke-linecap:round;stroke-linejoin:round;stroke-dasharray:none"
       d="m 215.07933,215.25765 v 6.77082" />
    <path
       id="path5345"
       style="fill:none;stroke:#000000;stroke-width:1.58749998;stroke-linecap:round;stroke-linejoin:round;stroke-dasharray:none"
       d="m 215.66808,215.8464 v 6.77085" />
    <path
       id="path5347"
       style="fill:none;stroke:#000000;stroke-width:1.58749998;stroke-linecap:round;stroke-linejoin:round;stroke-dasharray:none"
       d="m 216.25685,216.1408 v 6.77082" />
    <path
       id="path5349"
       style="fill:none;stroke:#000000;stroke-width:1.58749998;stroke-linecap:round;stroke-linejoin:round;stroke-dasharray:none"
       d="m 217.43438,216.43518 v 4.12139" />
    <path
       id="path5351"
       style="fill:none;stroke:#000000;stroke-width:1.58749998;stroke-linecap:round;stroke-linejoin:round;stroke-dasharray:none"
       d="m 217.72878,217.02396 1.38864,5.40004" />
    <path
       id="path5353"
       style="fill:none;stroke:#000000;stroke-width:1.58749998;stroke-linecap:round;stroke-linejoin:round;stroke-dasharray:none"
       d="m 218.02316,217.02396 1.09426,5.40004" />
    <path
       id="path5355"
       style="fill:none;stroke:#000000;stroke-width:1.58749998;stroke-linecap:round;stroke-linejoin:round;stroke-dasharray:none"
       d="m 218.61194,217.61271 v 6.77084" />
    <path
       id="path5357"
       style="fill:none;stroke:#ffffff;stroke-width:1.58749998;stroke-linecap:round;stroke-linejoin:round;stroke-dasharray:none"
       d="m 212.44844,212.94456 7.22326,5.22647" />
    <g
       id="Layer1539"
       transform="matrix(0.26458333,0,0,0.26458333,198.63095,-1131.1964)">
      <path
         id="path5359"
         style="fill:#000000;fill-rule:evenodd;stroke-width:0.23999999;stroke-linecap:round;stroke-linejoin:round"
         d="m 111.009,5103.332 3.7881,-5.41 -32.1175,-22.4889 -3.7881,5.41 z" />
      <path
         id="path5361"
         style="fill:none;stroke:#000000;stroke-width:0.23999999;stroke-linecap:round;stroke-linejoin:round;stroke-dasharray:none"
         d="m 111.009,5103.332 3.7881,-5.41 -32.1175,-22.4889 -3.7881,5.41 z" />
    </g>
  </g>
</svg>
