<?xml version="1.0" encoding="UTF-8" standalone="no"?>
<!-- Created with Inkscape (http://www.inkscape.org/) -->

<svg
   xmlns:dc="http://purl.org/dc/elements/1.1/"
   xmlns:cc="http://creativecommons.org/ns#"
   xmlns:rdf="http://www.w3.org/1999/02/22-rdf-syntax-ns#"
   xmlns:svg="http://www.w3.org/2000/svg"
   xmlns="http://www.w3.org/2000/svg"
   xmlns:sodipodi="http://sodipodi.sourceforge.net/DTD/sodipodi-0.dtd"
   xmlns:inkscape="http://www.inkscape.org/namespaces/inkscape"
   width="33.750011mm"
   height="33.749989mm"
   viewBox="0 0 33.750013 33.749988"
   version="1.1"
   id="svg5066"
   inkscape:version="0.92.3 (2405546, 2018-03-11)"
   sodipodi:docname="alarm.svg">
  <defs
     id="defs5060" />
  <sodipodi:namedview
     id="base"
     pagecolor="#ffffff"
     bordercolor="#666666"
     borderopacity="1.0"
     inkscape:pageopacity="0.0"
     inkscape:pageshadow="2"
     inkscape:zoom="1.4"
     inkscape:cx="32.74247"
     inkscape:cy="65.818715"
     inkscape:document-units="mm"
     inkscape:current-layer="layer1"
     showgrid="false"
     fit-margin-top="0"
     fit-margin-left="0"
     fit-margin-right="0"
     fit-margin-bottom="0"
     inkscape:window-width="758"
     inkscape:window-height="750"
     inkscape:window-x="932"
     inkscape:window-y="90"
     inkscape:window-maximized="0" />
  <metadata
     id="metadata5063">
    <rdf:RDF>
      <cc:Work
         rdf:about="">
        <dc:format>image/svg+xml</dc:format>
        <dc:type
           rdf:resource="http://purl.org/dc/dcmitype/StillImage" />
        <dc:title></dc:title>
      </cc:Work>
    </rdf:RDF>
  </metadata>
  <g
     inkscape:label="Layer 1"
     inkscape:groupmode="layer"
     id="layer1"
     transform="translate(-60.389889,-343.625)">
    <g
       id="g3916"
       transform="translate(21.221732,-21.221721)">
      <path
         inkscape:connector-curvature="0"
         id="path5118"
         style="fill:#10da05;fill-rule:evenodd;stroke-width:0.26458332"
         d="m 59.565257,380.74277 a 4.4476987,4.4476987 0 0 1 -6.39879,-6.17926 4.4476987,4.4476987 0 0 1 6.39879,6.17926 z" />
      <path
         inkscape:connector-curvature="0"
         id="path5120"
         style="fill:#ff0000;fill-rule:evenodd;stroke-width:0.26458332"
         d="m 41.418174,398.60082 h 29.249978 q 2.250017,0 2.250017,-2.24999 v -29.25 q 0,-2.24999 -2.250017,-2.24999 H 41.418174 q -2.250017,0 -2.250017,2.24999 v 29.25 q 0,2.24999 2.250017,2.24999 z" />
      <path
         inkscape:connector-curvature="0"
         id="path5122"
         style="fill:#000000;fill-rule:evenodd;stroke-width:0.26458332"
         d="M 65.180376,386.95945 A 12.948126,12.948126 0 0 1 46.552175,368.9704 12.948126,12.948126 0 0 1 65.180376,386.95945 Z" />
      <path
         inkscape:connector-curvature="0"
         id="path5124"
         style="fill:#ffffff;fill-rule:evenodd;stroke-width:0.26458332"
         d="M 63.470956,384.98772 A 10.333593,10.333593 0 1 1 48.604231,370.63111 10.333593,10.333593 0 1 1 63.470956,384.98772 Z" />
      <path
         inkscape:connector-curvature="0"
         id="path5126"
         style="fill:#000000;fill-rule:evenodd;stroke-width:0.26458332"
         d="M 61.579715,383.45973 A 7.8004209,7.8004209 0 1 1 50.357413,372.62247 7.8004209,7.8004209 0 1 1 61.579715,383.45973 Z" />
      <path
         inkscape:connector-curvature="0"
         id="path5128"
         style="fill:#ffffff;fill-rule:evenodd;stroke-width:0.26458332"
         d="m 59.721255,381.59103 a 5.1927457,5.1927457 0 0 1 -7.470696,-7.21437 5.1927457,5.1927457 0 1 1 7.470696,7.21437 z" />
      <path
         inkscape:connector-curvature="0"
         id="path5130"
         style="fill:#ff0000;fill-rule:evenodd;stroke-width:0.26458332"
         d="m 39.843162,393.87584 h 14.250009 v -6.30002 H 39.843162 Z" />
      <path
         inkscape:connector-curvature="0"
         id="path5132"
         style="fill:#ff0000;fill-rule:evenodd;stroke-width:0.26458332"
         d="m 57.843163,393.50082 h 14.250009 v -6.29999 H 57.843163 Z" />
      <path
         inkscape:connector-curvature="0"
         id="path5134"
         style="fill:#ff0000;fill-rule:evenodd;stroke-width:0.26458332"
         d="m 41.043153,369.12582 h 29.624999 v -4.27498 H 41.043153 Z" />
      <path
         inkscape:connector-curvature="0"
         id="path5136"
         style="fill:#ff0000;fill-rule:evenodd;stroke-width:0.26458332"
         d="m 58.779629,376.17583 7.988538,-7.98852 -3.093243,-3.09324 -7.988512,7.98851 z" />
      <path
         inkscape:connector-curvature="0"
         id="path5138"
         style="fill:#ff0000;fill-rule:evenodd;stroke-width:0.26458332"
         d="m 56.41817,373.10084 -8.258228,-8.25823 -3.097583,3.09758 8.258228,8.25823 z" />
      <path
         inkscape:connector-curvature="0"
         id="path5140"
         style="fill:#ff0000;fill-rule:evenodd;stroke-width:0.26458332"
         d="m 66.468156,388.52105 -8.258201,-8.25821 -4.45479,4.45477 8.258228,8.25823 z" />
      <path
         inkscape:connector-curvature="0"
         id="path5142"
         style="fill:#ff0000;fill-rule:evenodd;stroke-width:0.26458332"
         d="m 50.432528,392.84124 8.026029,-8.02603 -4.454763,-4.45479 -8.026029,8.02603 z" />
      <path
         inkscape:connector-curvature="0"
         id="path5144"
         style="fill:#000000;fill-rule:evenodd;stroke-width:0.26458332"
         d="m 58.218157,395.60082 v -16.28526 h -4.199996 v 16.28526 z" />
      <path
         inkscape:connector-curvature="0"
         id="path5146"
         style="fill:#ff0000;fill-rule:evenodd;stroke-width:0.26458332"
         d="m 50.793155,371.41333 h 9.000014 v -5.62499 h -9.000014 z" />
      <path
         inkscape:connector-curvature="0"
         id="path5148"
         style="fill:#ff0000;fill-rule:evenodd;stroke-width:0.26458332"
         d="m 52.480667,375.16332 h 7.124991 v -5.62499 h -7.124991 z" />
      <path
         inkscape:connector-curvature="0"
         id="path5150"
         style="fill:#000000;fill-rule:evenodd;stroke-width:0.26458332"
         d="m 58.348782,380.09777 a 3.2051771,3.2051771 0 1 1 -4.611238,-4.45299 3.2051771,3.2051771 0 0 1 4.611238,4.45299 z" />
      <path
         inkscape:connector-curvature="0"
         id="path5152"
         style="fill:#ffffff;fill-rule:evenodd;stroke-width:0.26458332"
         d="m 56.993903,378.67196 a 1.2328525,1.2328525 0 0 1 -1.77366,-1.71281 1.2328525,1.2328525 0 0 1 1.77366,1.71281 z" />
    </g>
  </g>
</svg>
