<?xml version="1.0" encoding="UTF-8" standalone="no"?>
<!-- Created with Inkscape (http://www.inkscape.org/) -->

<svg
   xmlns:dc="http://purl.org/dc/elements/1.1/"
   xmlns:cc="http://creativecommons.org/ns#"
   xmlns:rdf="http://www.w3.org/1999/02/22-rdf-syntax-ns#"
   xmlns:svg="http://www.w3.org/2000/svg"
   xmlns="http://www.w3.org/2000/svg"
   xmlns:sodipodi="http://sodipodi.sourceforge.net/DTD/sodipodi-0.dtd"
   xmlns:inkscape="http://www.inkscape.org/namespaces/inkscape"
   width="33.750011mm"
   height="33.749989mm"
   viewBox="0 0 33.750013 33.749988"
   version="1.1"
   id="svg5066"
   inkscape:version="0.92.3 (2405546, 2018-03-11)"
   sodipodi:docname="error.svg">
  <defs
     id="defs5060" />
  <sodipodi:namedview
     id="base"
     pagecolor="#ffffff"
     bordercolor="#666666"
     borderopacity="1.0"
     inkscape:pageopacity="0.0"
     inkscape:pageshadow="2"
     inkscape:zoom="1.4"
     inkscape:cx="27.043308"
     inkscape:cy="59.283517"
     inkscape:document-units="mm"
     inkscape:current-layer="layer1"
     showgrid="false"
     fit-margin-top="0"
     fit-margin-left="0"
     fit-margin-right="0"
     fit-margin-bottom="0"
     inkscape:window-width="758"
     inkscape:window-height="750"
     inkscape:window-x="932"
     inkscape:window-y="90"
     inkscape:window-maximized="0" />
  <metadata
     id="metadata5063">
    <rdf:RDF>
      <cc:Work
         rdf:about="">
        <dc:format>image/svg+xml</dc:format>
        <dc:type
           rdf:resource="http://purl.org/dc/dcmitype/StillImage" />
        <dc:title></dc:title>
      </cc:Work>
    </rdf:RDF>
  </metadata>
  <g
     inkscape:label="Layer 1"
     inkscape:groupmode="layer"
     id="layer1"
     transform="translate(-60.389889,-343.625)">
    <g
       id="g3976"
       transform="translate(2.3229227,-3.4568407)">
      <path
         inkscape:connector-curvature="0"
         id="path5154"
         style="fill:#10da05;fill-rule:evenodd;stroke-width:0.26458332"
         d="m 78.464066,362.97787 a 4.4476987,4.4476987 0 1 1 -6.398816,-6.17924 4.4476987,4.4476987 0 0 1 6.398816,6.17924 z" />
      <path
         inkscape:connector-curvature="0"
         id="path5156"
         style="fill:#0f2dfb;fill-rule:evenodd;stroke-width:0.26458332"
         d="m 60.316956,380.83594 h 29.250005 q 2.250017,0 2.250017,-2.25001 v -29.24998 q 0,-2.25002 -2.250017,-2.25002 H 60.316956 q -2.24999,0 -2.24999,2.25002 v 29.24998 q 0,2.25001 2.24999,2.25001 z" />
      <path
         inkscape:connector-curvature="0"
         id="path5158"
         style="fill:#000000;fill-rule:evenodd;stroke-width:0.26458332"
         d="M 84.079185,369.19454 A 12.948126,12.948126 0 0 1 65.450984,351.20552 12.948126,12.948126 0 0 1 84.079185,369.19454 Z" />
      <path
         inkscape:connector-curvature="0"
         id="path5160"
         style="fill:#ffffff;fill-rule:evenodd;stroke-width:0.26458332"
         d="M 82.369765,367.22284 A 10.333594,10.333594 0 0 1 67.50304,352.8662 10.333594,10.333594 0 0 1 82.369765,367.22284 Z" />
      <path
         inkscape:connector-curvature="0"
         id="path5162"
         style="fill:#000000;fill-rule:evenodd;stroke-width:0.26458332"
         d="M 80.478524,365.69482 A 7.8004105,7.8004105 0 1 1 69.256222,354.85759 7.8004105,7.8004105 0 0 1 80.478524,365.69482 Z" />
      <path
         inkscape:connector-curvature="0"
         id="path5164"
         style="fill:#ffffff;fill-rule:evenodd;stroke-width:0.26458332"
         d="m 78.620064,363.82612 a 5.1927457,5.1927457 0 0 1 -7.470696,-7.21437 5.1927457,5.1927457 0 1 1 7.470696,7.21437 z" />
      <path
         inkscape:connector-curvature="0"
         id="path5166"
         style="fill:#0f2dfb;fill-rule:evenodd;stroke-width:0.26458332"
         d="M 58.741971,376.11094 H 72.99198 v -6.3 H 58.741971 Z" />
      <path
         inkscape:connector-curvature="0"
         id="path5168"
         style="fill:#0f2dfb;fill-rule:evenodd;stroke-width:0.26458332"
         d="m 76.741972,375.73594 h 14.250009 v -6.29999 H 76.741972 Z" />
      <path
         inkscape:connector-curvature="0"
         id="path5170"
         style="fill:#0f2dfb;fill-rule:evenodd;stroke-width:0.26458332"
         d="m 59.941962,351.36094 h 29.624999 v -4.27501 H 59.941962 Z" />
      <path
         inkscape:connector-curvature="0"
         id="path5172"
         style="fill:#0f2dfb;fill-rule:evenodd;stroke-width:0.26458332"
         d="m 77.678438,358.41095 7.988538,-7.98854 -3.093243,-3.09325 -7.988538,7.98854 z" />
      <path
         inkscape:connector-curvature="0"
         id="path5174"
         style="fill:#0f2dfb;fill-rule:evenodd;stroke-width:0.26458332"
         d="m 75.316979,355.33593 -8.258228,-8.2582 -3.097583,3.09758 8.258202,8.2582 z" />
      <path
         inkscape:connector-curvature="0"
         id="path5176"
         style="fill:#0f2dfb;fill-rule:evenodd;stroke-width:0.26458332"
         d="m 85.366965,370.75617 -8.258201,-8.25823 -4.45479,4.45479 8.258228,8.2582 z" />
      <path
         inkscape:connector-curvature="0"
         id="path5178"
         style="fill:#0f2dfb;fill-rule:evenodd;stroke-width:0.26458332"
         d="m 69.331337,375.07634 8.026029,-8.02603 -4.454763,-4.45477 -8.026029,8.02603 z" />
      <path
         inkscape:connector-curvature="0"
         id="path5180"
         style="fill:#000000;fill-rule:evenodd;stroke-width:0.26458332"
         d="M 77.116966,377.83594 V 361.55068 H 72.91697 v 16.28526 z" />
      <path
         inkscape:connector-curvature="0"
         id="path5182"
         style="fill:#0f2dfb;fill-rule:evenodd;stroke-width:0.26458332"
         d="m 69.691964,353.64845 h 9.000014 v -5.62502 h -9.000014 z" />
      <path
         inkscape:connector-curvature="0"
         id="path5184"
         style="fill:#0f2dfb;fill-rule:evenodd;stroke-width:0.26458332"
         d="m 71.379476,357.39844 h 7.124991 v -5.62499 h -7.124991 z" />
      <path
         inkscape:connector-curvature="0"
         id="path5186"
         style="fill:#000000;fill-rule:evenodd;stroke-width:0.26458332"
         d="m 77.247564,362.33286 a 3.2051675,3.2051675 0 0 1 -4.611211,-4.45299 3.2051675,3.2051675 0 0 1 4.611211,4.45299 z" />
      <path
         inkscape:connector-curvature="0"
         id="path5188"
         style="fill:#ffffff;fill-rule:evenodd;stroke-width:0.26458332"
         d="m 75.892712,360.90708 a 1.2328525,1.2328525 0 0 1 -1.77366,-1.71281 1.2328525,1.2328525 0 0 1 1.77366,1.71281 z" />
    </g>
  </g>
</svg>
