<?xml version="1.0" encoding="UTF-8" standalone="no"?>
<!-- Created with Inkscape (http://www.inkscape.org/) -->

<svg
   xmlns:dc="http://purl.org/dc/elements/1.1/"
   xmlns:cc="http://creativecommons.org/ns#"
   xmlns:rdf="http://www.w3.org/1999/02/22-rdf-syntax-ns#"
   xmlns:svg="http://www.w3.org/2000/svg"
   xmlns="http://www.w3.org/2000/svg"
   xmlns:sodipodi="http://sodipodi.sourceforge.net/DTD/sodipodi-0.dtd"
   xmlns:inkscape="http://www.inkscape.org/namespaces/inkscape"
   width="33.750011mm"
   height="33.749989mm"
   viewBox="0 0 33.750013 33.749988"
   version="1.1"
   id="svg5066"
   inkscape:version="0.92.3 (2405546, 2018-03-11)"
   sodipodi:docname="lost.svg">
  <defs
     id="defs5060" />
  <sodipodi:namedview
     id="base"
     pagecolor="#ffffff"
     bordercolor="#666666"
     borderopacity="1.0"
     inkscape:pageopacity="0.0"
     inkscape:pageshadow="2"
     inkscape:zoom="1.4"
     inkscape:cx="32.74247"
     inkscape:cy="65.818715"
     inkscape:document-units="mm"
     inkscape:current-layer="layer1"
     showgrid="false"
     fit-margin-top="0"
     fit-margin-left="0"
     fit-margin-right="0"
     fit-margin-bottom="0"
     inkscape:window-width="758"
     inkscape:window-height="750"
     inkscape:window-x="932"
     inkscape:window-y="90"
     inkscape:window-maximized="0" />
  <metadata
     id="metadata5063">
    <rdf:RDF>
      <cc:Work
         rdf:about="">
        <dc:format>image/svg+xml</dc:format>
        <dc:type
           rdf:resource="http://purl.org/dc/dcmitype/StillImage" />
        <dc:title></dc:title>
      </cc:Work>
    </rdf:RDF>
  </metadata>
  <g
     inkscape:label="Layer 1"
     inkscape:groupmode="layer"
     id="layer1"
     transform="translate(-60.389889,-343.625)">
    <g
       id="g3856"
       transform="translate(-8.6383883,-13.284221)">
      <path
         inkscape:connector-curvature="0"
         id="path5082"
         style="fill:#10da05;fill-rule:evenodd;stroke-width:0.26458332"
         d="m 89.425376,372.80525 a 4.4476987,4.4476987 0 1 1 -6.39879,-6.17924 4.4476987,4.4476987 0 1 1 6.39879,6.17924 z" />
      <path
         inkscape:connector-curvature="0"
         id="path5084"
         style="fill:#ffc000;fill-rule:evenodd;stroke-width:0.26458332"
         d="M 71.278293,390.66332 H 100.5283 q 2.24999,0 2.24999,-2.25001 v -29.24998 q 0,-2.25002 -2.24999,-2.25002 H 71.278293 q -2.250017,0 -2.250017,2.25002 v 29.24998 q 0,2.25001 2.250017,2.25001 z" />
      <path
         inkscape:connector-curvature="0"
         id="path5086"
         style="fill:#000000;fill-rule:evenodd;stroke-width:0.26458332"
         d="M 95.040495,379.02192 A 12.948126,12.948126 0 1 1 76.412321,361.0329 12.948126,12.948126 0 0 1 95.040495,379.02192 Z" />
      <path
         inkscape:connector-curvature="0"
         id="path5088"
         style="fill:#ffffff;fill-rule:evenodd;stroke-width:0.26458332"
         d="M 93.331075,377.05022 A 10.333594,10.333594 0 1 1 78.46435,362.69358 10.333594,10.333594 0 1 1 93.331075,377.05022 Z" />
      <path
         inkscape:connector-curvature="0"
         id="path5090"
         style="fill:#000000;fill-rule:evenodd;stroke-width:0.26458332"
         d="M 91.439834,375.5222 A 7.8004012,7.8004012 0 0 1 80.217558,364.68497 7.8004012,7.8004012 0 1 1 91.439834,375.5222 Z" />
      <path
         inkscape:connector-curvature="0"
         id="path5092"
         style="fill:#ffffff;fill-rule:evenodd;stroke-width:0.26458332"
         d="m 89.581374,373.6535 a 5.1927457,5.1927457 0 0 1 -7.470696,-7.21437 5.1927457,5.1927457 0 0 1 7.470696,7.21437 z" />
      <path
         inkscape:connector-curvature="0"
         id="path5094"
         style="fill:#ffc000;fill-rule:evenodd;stroke-width:0.26458332"
         d="M 69.703281,385.93832 H 83.95329 v -6.3 H 69.703281 Z" />
      <path
         inkscape:connector-curvature="0"
         id="path5096"
         style="fill:#ffc000;fill-rule:evenodd;stroke-width:0.26458332"
         d="m 87.703282,385.56332 h 14.250008 v -6.29999 H 87.703282 Z" />
      <path
         inkscape:connector-curvature="0"
         id="path5098"
         style="fill:#ffc000;fill-rule:evenodd;stroke-width:0.26458332"
         d="M 70.903299,361.18832 H 100.5283 v -4.27501 H 70.903299 Z" />
      <path
         inkscape:connector-curvature="0"
         id="path5100"
         style="fill:#ffc000;fill-rule:evenodd;stroke-width:0.26458332"
         d="m 88.639748,368.23833 7.988538,-7.98854 -3.093243,-3.09325 -7.988512,7.98854 z" />
      <path
         inkscape:connector-curvature="0"
         id="path5102"
         style="fill:#ffc000;fill-rule:evenodd;stroke-width:0.26458332"
         d="m 86.278289,365.16331 -8.258228,-8.2582 -3.097583,3.09758 8.258228,8.2582 z" />
      <path
         inkscape:connector-curvature="0"
         id="path5104"
         style="fill:#ffc000;fill-rule:evenodd;stroke-width:0.26458332"
         d="m 96.328275,380.58355 -8.258201,-8.25823 -4.454763,4.45479 8.258201,8.2582 z" />
      <path
         inkscape:connector-curvature="0"
         id="path5106"
         style="fill:#ffc000;fill-rule:evenodd;stroke-width:0.26458332"
         d="m 80.292647,384.90372 8.026029,-8.02603 -4.454763,-4.45477 -8.026029,8.02603 z" />
      <path
         inkscape:connector-curvature="0"
         id="path5108"
         style="fill:#000000;fill-rule:evenodd;stroke-width:0.26458332"
         d="M 88.078276,387.66332 V 371.37806 H 83.87828 v 16.28526 z" />
      <path
         inkscape:connector-curvature="0"
         id="path5110"
         style="fill:#ffc000;fill-rule:evenodd;stroke-width:0.26458332"
         d="m 80.653274,363.47583 h 9.000014 v -5.62502 h -9.000014 z" />
      <path
         inkscape:connector-curvature="0"
         id="path5112"
         style="fill:#ffc000;fill-rule:evenodd;stroke-width:0.26458332"
         d="m 82.340786,367.22582 h 7.124991 v -5.62499 h -7.124991 z" />
      <path
         inkscape:connector-curvature="0"
         id="path5114"
         style="fill:#000000;fill-rule:evenodd;stroke-width:0.26458332"
         d="m 88.208901,372.16024 a 3.2051675,3.2051675 0 0 1 -4.611211,-4.45299 3.2051675,3.2051675 0 1 1 4.611211,4.45299 z" />
      <path
         inkscape:connector-curvature="0"
         id="path5116"
         style="fill:#ffffff;fill-rule:evenodd;stroke-width:0.26458332"
         d="m 86.854049,370.73446 a 1.2328525,1.2328525 0 1 1 -1.773687,-1.71281 1.2328525,1.2328525 0 0 1 1.773687,1.71281 z" />
    </g>
  </g>
</svg>
