<?xml version="1.0" encoding="UTF-8" standalone="no"?>
<!-- Created with Inkscape (http://www.inkscape.org/) -->

<svg
   xmlns:dc="http://purl.org/dc/elements/1.1/"
   xmlns:cc="http://creativecommons.org/ns#"
   xmlns:rdf="http://www.w3.org/1999/02/22-rdf-syntax-ns#"
   xmlns:svg="http://www.w3.org/2000/svg"
   xmlns="http://www.w3.org/2000/svg"
   xmlns:sodipodi="http://sodipodi.sourceforge.net/DTD/sodipodi-0.dtd"
   xmlns:inkscape="http://www.inkscape.org/namespaces/inkscape"
   width="33.750011mm"
   height="33.749989mm"
   viewBox="0 0 33.750013 33.749988"
   version="1.1"
   id="svg5066"
   inkscape:version="0.92.3 (2405546, 2018-03-11)"
   sodipodi:docname="na.svg">
  <defs
     id="defs5060" />
  <sodipodi:namedview
     id="base"
     pagecolor="#ffffff"
     bordercolor="#666666"
     borderopacity="1.0"
     inkscape:pageopacity="0.0"
     inkscape:pageshadow="2"
     inkscape:zoom="1.4"
     inkscape:cx="27.043308"
     inkscape:cy="59.283517"
     inkscape:document-units="mm"
     inkscape:current-layer="layer1"
     showgrid="false"
     fit-margin-top="0"
     fit-margin-left="0"
     fit-margin-right="0"
     fit-margin-bottom="0"
     inkscape:window-width="758"
     inkscape:window-height="750"
     inkscape:window-x="932"
     inkscape:window-y="90"
     inkscape:window-maximized="0" />
  <metadata
     id="metadata5063">
    <rdf:RDF>
      <cc:Work
         rdf:about="">
        <dc:format>image/svg+xml</dc:format>
        <dc:type
           rdf:resource="http://purl.org/dc/dcmitype/StillImage" />
        <dc:title></dc:title>
      </cc:Work>
    </rdf:RDF>
  </metadata>
  <g
     inkscape:label="Layer 1"
     inkscape:groupmode="layer"
     id="layer1"
     transform="translate(-60.389889,-343.625)">
    <g
       id="g4077"
       transform="translate(7.8035772,6.7485193)">
      <path
         inkscape:connector-curvature="0"
         id="path2"
         style="fill:#bfbfbf;fill-rule:evenodd;stroke-width:0.26458332"
         d="M 54.836315,370.62648 H 84.08632 q 2.24999,0 2.24999,-2.25001 v -29.24998 q 0,-2.25002 -2.24999,-2.25002 H 54.836315 q -2.24999,0 -2.24999,2.25002 v 29.24998 q 0,2.25001 2.24999,2.25001 z" />
      <path
         inkscape:connector-curvature="0"
         id="path5190"
         style="fill:#10da05;fill-rule:evenodd;stroke-width:0.26458332"
         d="m 72.983425,352.77663 a 4.4477003,4.4477003 0 0 1 -6.398816,-6.17926 4.4477003,4.4477003 0 0 1 6.398816,6.17926 z" />
      <path
         inkscape:connector-curvature="0"
         id="path5192"
         style="fill:#000000;fill-rule:evenodd;stroke-width:0.26458332"
         d="M 78.598544,358.99331 A 12.948126,12.948126 0 1 1 59.970343,341.00426 12.948126,12.948126 0 0 1 78.598544,358.99331 Z" />
      <path
         inkscape:connector-curvature="0"
         id="path5194"
         style="fill:#ffffff;fill-rule:evenodd;stroke-width:0.26458332"
         d="M 76.889098,357.02158 A 10.333593,10.333593 0 0 1 62.022399,342.66497 10.333593,10.333593 0 0 1 76.889098,357.02158 Z" />
      <path
         inkscape:connector-curvature="0"
         id="path5196"
         style="fill:#000000;fill-rule:evenodd;stroke-width:0.26458332"
         d="M 74.997856,355.49359 A 7.8004112,7.8004112 0 1 1 63.775581,344.65633 7.8004112,7.8004112 0 1 1 74.997856,355.49359 Z" />
      <path
         inkscape:connector-curvature="0"
         id="path5198"
         style="fill:#ffffff;fill-rule:evenodd;stroke-width:0.26458332"
         d="m 73.139396,353.62489 a 5.192739,5.192739 0 0 1 -7.470669,-7.21437 5.192739,5.192739 0 1 1 7.470669,7.21437 z" />
      <path
         inkscape:connector-curvature="0"
         id="path5200"
         style="fill:#bfbfbf;fill-rule:evenodd;stroke-width:0.26458332"
         d="m 53.26133,365.9097 h 14.249982 v -6.30002 H 53.26133 Z" />
      <path
         inkscape:connector-curvature="0"
         id="path5202"
         style="fill:#bfbfbf;fill-rule:evenodd;stroke-width:0.26458332"
         d="m 71.261331,365.53468 h 14.249982 v -6.29999 H 71.261331 Z" />
      <path
         inkscape:connector-curvature="0"
         id="path5204"
         style="fill:#bfbfbf;fill-rule:evenodd;stroke-width:0.26458332"
         d="M 54.461321,341.15968 H 84.08632 V 336.8847 H 54.461321 Z" />
      <path
         inkscape:connector-curvature="0"
         id="path5206"
         style="fill:#bfbfbf;fill-rule:evenodd;stroke-width:0.26458332"
         d="m 72.197797,348.20969 7.988538,-7.98852 -3.093243,-3.09324 -7.988538,7.98851 z" />
      <path
         inkscape:connector-curvature="0"
         id="path5208"
         style="fill:#bfbfbf;fill-rule:evenodd;stroke-width:0.26458332"
         d="m 69.836312,345.1347 -8.258202,-8.25823 -3.097583,3.09758 8.258202,8.25823 z" />
      <path
         inkscape:connector-curvature="0"
         id="path5210"
         style="fill:#bfbfbf;fill-rule:evenodd;stroke-width:0.26458332"
         d="m 79.886324,360.55491 -8.258228,-8.25821 -4.454763,4.45477 8.258228,8.25823 z" />
      <path
         inkscape:connector-curvature="0"
         id="path5212"
         style="fill:#bfbfbf;fill-rule:evenodd;stroke-width:0.26458332"
         d="m 63.850696,364.8751 8.026029,-8.02603 -4.454763,-4.45479 -8.026029,8.02603 z" />
      <path
         inkscape:connector-curvature="0"
         id="path5214"
         style="fill:#000000;fill-rule:evenodd;stroke-width:0.26458332"
         d="m 71.636325,367.63468 v -16.28526 h -4.199996 v 16.28526 z" />
      <path
         inkscape:connector-curvature="0"
         id="path5216"
         style="fill:#bfbfbf;fill-rule:evenodd;stroke-width:0.26458332"
         d="M 64.211323,343.44719 H 73.21131 V 337.8222 H 64.211323 Z" />
      <path
         inkscape:connector-curvature="0"
         id="path5218"
         style="fill:#bfbfbf;fill-rule:evenodd;stroke-width:0.26458332"
         d="m 65.898835,347.19718 h 7.124991 v -5.62499 h -7.124991 z" />
      <path
         inkscape:connector-curvature="0"
         id="path5220"
         style="fill:#000000;fill-rule:evenodd;stroke-width:0.26458332"
         d="m 71.766923,352.13163 a 3.2051675,3.2051675 0 1 1 -4.611211,-4.45299 3.2051675,3.2051675 0 1 1 4.611211,4.45299 z" />
      <path
         inkscape:connector-curvature="0"
         id="path5222"
         style="fill:#ffffff;fill-rule:evenodd;stroke-width:0.26458332"
         d="m 70.412071,350.70582 a 1.2328525,1.2328525 0 0 1 -1.77366,-1.71281 1.2328525,1.2328525 0 1 1 1.77366,1.71281 z" />
    </g>
  </g>
</svg>
