<?xml version="1.0" encoding="UTF-8" standalone="no"?>
<!-- Created with Inkscape (http://www.inkscape.org/) -->

<svg
   xmlns:dc="http://purl.org/dc/elements/1.1/"
   xmlns:cc="http://creativecommons.org/ns#"
   xmlns:rdf="http://www.w3.org/1999/02/22-rdf-syntax-ns#"
   xmlns:svg="http://www.w3.org/2000/svg"
   xmlns="http://www.w3.org/2000/svg"
   xmlns:sodipodi="http://sodipodi.sourceforge.net/DTD/sodipodi-0.dtd"
   xmlns:inkscape="http://www.inkscape.org/namespaces/inkscape"
   width="33.750011mm"
   height="33.749989mm"
   viewBox="0 0 33.750013 33.749988"
   version="1.1"
   id="svg5066"
   inkscape:version="0.92.3 (2405546, 2018-03-11)"
   sodipodi:docname="ok.svg">
  <defs
     id="defs5060" />
  <sodipodi:namedview
     id="base"
     pagecolor="#ffffff"
     bordercolor="#666666"
     borderopacity="1.0"
     inkscape:pageopacity="0.0"
     inkscape:pageshadow="2"
     inkscape:zoom="1.4"
     inkscape:cx="-18.190177"
     inkscape:cy="65.818715"
     inkscape:document-units="mm"
     inkscape:current-layer="layer1"
     showgrid="false"
     fit-margin-top="0"
     fit-margin-left="0"
     fit-margin-right="0"
     fit-margin-bottom="0"
     inkscape:window-width="758"
     inkscape:window-height="750"
     inkscape:window-x="932"
     inkscape:window-y="90"
     inkscape:window-maximized="0" />
  <metadata
     id="metadata5063">
    <rdf:RDF>
      <cc:Work
         rdf:about="">
        <dc:format>image/svg+xml</dc:format>
        <dc:type
           rdf:resource="http://purl.org/dc/dcmitype/StillImage" />
        <dc:title></dc:title>
      </cc:Work>
    </rdf:RDF>
  </metadata>
  <g
     inkscape:label="Layer 1"
     inkscape:groupmode="layer"
     id="layer1"
     transform="translate(-60.389889,-343.625)">
    <g
       id="g93"
       transform="translate(16.308042,18.843759)">
      <path
         inkscape:connector-curvature="0"
         id="path4"
         style="fill:#10da05;fill-rule:evenodd;stroke-width:0.26458332"
         d="m 64.478961,340.67727 a 4.4476987,4.4476987 0 0 1 -6.398816,-6.17924 4.4476987,4.4476987 0 0 1 6.398816,6.17924 z" />
      <path
         inkscape:connector-curvature="0"
         id="path6"
         style="fill:#00db00;fill-rule:evenodd;stroke-width:0.26458332"
         d="m 46.331851,358.53534 h 29.250003 q 2.24999,0 2.24999,-2.25001 v -29.24998 q 0,-2.25002 -2.24999,-2.25002 H 46.331851 q -2.24999,0 -2.24999,2.25002 v 29.24998 q 0,2.25001 2.24999,2.25001 z" />
      <path
         inkscape:connector-curvature="0"
         id="path8"
         style="fill:#000000;fill-rule:evenodd;stroke-width:0.26458332"
         d="M 70.094054,346.89394 A 12.948126,12.948126 0 0 1 51.465879,328.90492 12.948126,12.948126 0 0 1 70.094054,346.89394 Z" />
      <path
         inkscape:connector-curvature="0"
         id="path10"
         style="fill:#ffffff;fill-rule:evenodd;stroke-width:0.26458332"
         d="M 68.384634,344.92224 A 10.333594,10.333594 0 0 1 53.517908,330.5656 10.333594,10.333594 0 1 1 68.384634,344.92224 Z" />
      <path
         inkscape:connector-curvature="0"
         id="path12"
         style="fill:#000000;fill-rule:evenodd;stroke-width:0.26458332"
         d="M 66.493392,343.39422 A 7.8004008,7.8004008 0 0 1 55.271117,332.55699 7.8004008,7.8004008 0 1 1 66.493392,343.39422 Z" />
      <path
         inkscape:connector-curvature="0"
         id="path14"
         style="fill:#ffffff;fill-rule:evenodd;stroke-width:0.26458332"
         d="m 64.634932,341.52552 a 5.1927454,5.1927454 0 0 1 -7.470695,-7.21437 5.1927454,5.1927454 0 0 1 7.470695,7.21437 z" />
      <path
         inkscape:connector-curvature="0"
         id="path5058"
         style="fill:#10da05;fill-rule:evenodd;stroke-width:0.26458332"
         d="m 44.75684,353.81034 h 14.250008 v -6.3 H 44.75684 Z" />
      <path
         inkscape:connector-curvature="0"
         id="path5060"
         style="fill:#10da05;fill-rule:evenodd;stroke-width:0.26458332"
         d="m 62.756841,353.43534 h 14.250013 v -6.29999 H 62.756841 Z" />
      <path
         inkscape:connector-curvature="0"
         id="path5062"
         style="fill:#10da05;fill-rule:evenodd;stroke-width:0.26458332"
         d="m 45.956857,329.06034 h 29.624997 v -4.27501 H 45.956857 Z" />
      <path
         inkscape:connector-curvature="0"
         id="path5064"
         style="fill:#10da05;fill-rule:evenodd;stroke-width:0.26458332"
         d="m 63.693333,336.11035 7.988512,-7.98854 -3.093244,-3.09325 -7.988511,7.98854 z" />
      <path
         inkscape:connector-curvature="0"
         id="path5066"
         style="fill:#10da05;fill-rule:evenodd;stroke-width:0.26458332"
         d="m 61.331848,333.03533 -8.258202,-8.2582 -3.097609,3.09758 8.258228,8.2582 z" />
      <path
         inkscape:connector-curvature="0"
         id="path5068"
         style="fill:#10da05;fill-rule:evenodd;stroke-width:0.26458332"
         d="m 71.38186,348.45557 -8.258228,-8.25823 -4.454763,4.45479 8.258202,8.2582 z" />
      <path
         inkscape:connector-curvature="0"
         id="path5070"
         style="fill:#10da05;fill-rule:evenodd;stroke-width:0.26458332"
         d="m 55.346232,352.77574 8.026029,-8.02603 -4.454789,-4.45477 -8.02603,8.02603 z" />
      <path
         inkscape:connector-curvature="0"
         id="path5072"
         style="fill:#000000;fill-rule:evenodd;stroke-width:0.26458332"
         d="m 63.131861,355.53534 v -16.28526 h -4.200022 v 16.28526 z" />
      <path
         inkscape:connector-curvature="0"
         id="path5074"
         style="fill:#10da05;fill-rule:evenodd;stroke-width:0.26458332"
         d="m 55.706859,331.34785 h 8.999987 v -5.62502 h -8.999987 z" />
      <path
         inkscape:connector-curvature="0"
         id="path5076"
         style="fill:#10da05;fill-rule:evenodd;stroke-width:0.26458332"
         d="m 57.394345,335.09784 h 7.125017 v -5.62499 h -7.125017 z" />
      <path
         inkscape:connector-curvature="0"
         id="path5078"
         style="fill:#000000;fill-rule:evenodd;stroke-width:0.26458332"
         d="m 63.262459,340.03226 a 3.2051675,3.2051675 0 0 1 -4.611211,-4.45299 3.2051675,3.2051675 0 0 1 4.611211,4.45299 z" />
      <path
         inkscape:connector-curvature="0"
         id="path5080"
         style="fill:#ffffff;fill-rule:evenodd;stroke-width:0.26458332"
         d="m 61.907607,338.60648 a 1.2328525,1.2328525 0 1 1 -1.77366,-1.71281 1.2328525,1.2328525 0 0 1 1.77366,1.71281 z" />
    </g>
  </g>
</svg>
