<?xml version="1.0" encoding="UTF-8" standalone="no"?>
<!-- Created with Inkscape (http://www.inkscape.org/) -->

<svg
   xmlns:dc="http://purl.org/dc/elements/1.1/"
   xmlns:cc="http://creativecommons.org/ns#"
   xmlns:rdf="http://www.w3.org/1999/02/22-rdf-syntax-ns#"
   xmlns:svg="http://www.w3.org/2000/svg"
   xmlns="http://www.w3.org/2000/svg"
   xmlns:sodipodi="http://sodipodi.sourceforge.net/DTD/sodipodi-0.dtd"
   xmlns:inkscape="http://www.inkscape.org/namespaces/inkscape"
   width="33.750011mm"
   height="33.749989mm"
   viewBox="0 0 33.750013 33.749988"
   version="1.1"
   id="svg5066"
   inkscape:version="0.92.3 (2405546, 2018-03-11)"
   sodipodi:docname="error.svg">
  <defs
     id="defs5060" />
  <sodipodi:namedview
     id="base"
     pagecolor="#ffffff"
     bordercolor="#666666"
     borderopacity="1.0"
     inkscape:pageopacity="0.0"
     inkscape:pageshadow="2"
     inkscape:zoom="0.35"
     inkscape:cx="63.779549"
     inkscape:cy="63.7795"
     inkscape:document-units="mm"
     inkscape:current-layer="layer1"
     showgrid="false"
     fit-margin-top="0"
     fit-margin-left="0"
     fit-margin-right="0"
     fit-margin-bottom="0"
     inkscape:window-width="548"
     inkscape:window-height="561"
     inkscape:window-x="1005"
     inkscape:window-y="30"
     inkscape:window-maximized="0" />
  <metadata
     id="metadata5063">
    <rdf:RDF>
      <cc:Work
         rdf:about="">
        <dc:format>image/svg+xml</dc:format>
        <dc:type
           rdf:resource="http://purl.org/dc/dcmitype/StillImage" />
        <dc:title></dc:title>
      </cc:Work>
    </rdf:RDF>
  </metadata>
  <g
     inkscape:label="Layer 1"
     inkscape:groupmode="layer"
     id="layer1"
     transform="translate(-60.389889,-343.625)">
    <path
       d="m 62.639906,377.37499 h 29.249978 q 2.250017,0 2.250017,-2.24999 v -29.25001 q 0,-2.24999 -2.250017,-2.24999 H 62.639906 q -2.250017,0 -2.250017,2.24999 V 375.125 q 0,2.24999 2.250017,2.24999 z"
       style="fill:#0f2dfb;fill-rule:evenodd;stroke-width:0.26458332"
       id="path4881"
       inkscape:connector-curvature="0" />
    <path
       d="m 76.1399,363.87499 h 0.749988 q 1.500002,0 1.500002,-1.5 v -4.50001 q 0,-1.5 -1.500002,-1.5 H 76.1399 q -1.500002,0 -1.500002,1.5 v 4.50001 q 0,1.5 1.500002,1.5 z"
       style="fill:#ffffff;fill-rule:evenodd;stroke-width:0.26458332"
       id="path4883"
       inkscape:connector-curvature="0" />
    <g
       transform="matrix(0.26458333,0,0,0.26458333,-22.110105,-882.62501)"
       id="Layer1523">
      <path
         d="m 332.9618,4705.5527 q 4.4973,0 4.4973,-4.4973 v -8.0951 q 0,-4.4972 -4.4973,-4.4972 -4.4972,0 -4.4972,4.4972 v 8.0951 q 0,4.4973 4.4972,4.4973 z"
         style="fill:#000000;fill-rule:evenodd;stroke-width:10;stroke-linecap:round;stroke-linejoin:round"
         id="path4885"
         inkscape:connector-curvature="0" />
      <path
         d="m 332.9618,4705.5527 q 4.4973,0 4.4973,-4.4973 v -8.0951 q 0,-4.4972 -4.4973,-4.4972 -4.4972,0 -4.4972,4.4972 v 8.0951 q 0,4.4973 4.4972,4.4973 z"
         style="fill:none;stroke:#000000;stroke-width:10;stroke-linecap:round;stroke-linejoin:round;stroke-dasharray:none"
         id="path4887"
         inkscape:connector-curvature="0" />
    </g>
    <path
       d="m 68.546146,361.90263 h 0.497285 q 1.500002,0 1.500002,-1.5 v -0.31729 q 0,-1.5 -1.500002,-1.5 h -0.497285 q -1.500002,0 -1.500002,1.5 v 0.31729 q 0,1.5 1.500002,1.5 z"
       style="fill:#ffffff;fill-rule:evenodd;stroke-width:0.26458332"
       id="path4890"
       inkscape:connector-curvature="0" />
    <g
       transform="matrix(0.26458333,0,0,0.26458333,-22.110105,-882.62501)"
       id="Layer1524">
      <path
         d="m 332.9618,4670.1605 q 4.4973,0 4.4973,-4.4973 v -8.0951 q 0,-4.4972 -4.4973,-4.4972 -4.4972,0 -4.4972,4.4972 v 8.0951 q 0,4.4973 4.4972,4.4973 z"
         style="fill:#ffffff;fill-rule:evenodd;stroke-width:10;stroke-linecap:round;stroke-linejoin:round"
         id="path4892"
         inkscape:connector-curvature="0" />
      <path
         d="m 332.9618,4670.1605 q 4.4973,0 4.4973,-4.4973 v -8.0951 q 0,-4.4972 -4.4973,-4.4972 -4.4972,0 -4.4972,4.4972 v 8.0951 q 0,4.4973 4.4972,4.4973 z"
         style="fill:none;stroke:#000000;stroke-width:10;stroke-linecap:round;stroke-linejoin:round;stroke-dasharray:none"
         id="path4894"
         inkscape:connector-curvature="0" />
    </g>
    <path
       d="m 68.546146,352.53844 h 0.497285 q 1.500002,0 1.500002,-1.49997 v -0.31732 q 0,-1.5 -1.500002,-1.5 h -0.497285 q -1.500002,0 -1.500002,1.5 v 0.31732 q 0,1.49997 1.500002,1.49997 z"
       style="fill:#ffffff;fill-rule:evenodd;stroke-width:0.26458332"
       id="path4897"
       inkscape:connector-curvature="0" />
    <g
       transform="matrix(0.26458333,0,0,0.26458333,-22.110105,-882.62501)"
       id="Layer1525">
      <path
         d="m 332.9618,4740.9449 q 4.4973,0 4.4973,-4.4973 v -8.0951 q 0,-4.4973 -4.4973,-4.4973 -4.4972,0 -4.4972,4.4973 v 8.0951 q 0,4.4973 4.4972,4.4973 z"
         style="fill:#000000;fill-rule:evenodd;stroke-width:10;stroke-linecap:round;stroke-linejoin:round"
         id="path4899"
         inkscape:connector-curvature="0" />
      <path
         d="m 332.9618,4740.9449 q 4.4973,0 4.4973,-4.4973 v -8.0951 q 0,-4.4973 -4.4973,-4.4973 -4.4972,0 -4.4972,4.4973 v 8.0951 q 0,4.4973 4.4972,4.4973 z"
         style="fill:none;stroke:#000000;stroke-width:10;stroke-linecap:round;stroke-linejoin:round;stroke-dasharray:none"
         id="path4901"
         inkscape:connector-curvature="0" />
    </g>
    <path
       d="m 68.546146,371.26681 h 0.497285 q 1.500002,0 1.500002,-1.5 v -0.31729 q 0,-1.5 -1.500002,-1.5 h -0.497285 q -1.500002,0 -1.500002,1.5 v 0.31729 q 0,1.5 1.500002,1.5 z"
       style="fill:#ffffff;fill-rule:evenodd;stroke-width:0.26458332"
       id="path4904"
       inkscape:connector-curvature="0" />
    <path
       d="m 76.1399,373.25 h 0.749988 q 1.500002,0 1.500002,-1.5 v -4.50001 q 0,-1.5 -1.500002,-1.5 H 76.1399 q -1.500002,0 -1.500002,1.5 V 371.75 q 0,1.5 1.500002,1.5 z"
       style="fill:#ffffff;fill-rule:evenodd;stroke-width:0.26458332"
       id="path4906"
       inkscape:connector-curvature="0" />
    <path
       d="m 76.1399,354.12499 h 0.749988 q 1.500002,0 1.500002,-1.5 v -4.50001 q 0,-1.49998 -1.500002,-1.49998 H 76.1399 q -1.500002,0 -1.500002,1.49998 v 4.50001 q 0,1.5 1.500002,1.5 z"
       style="fill:#ffffff;fill-rule:evenodd;stroke-width:0.26458332"
       id="path4908"
       inkscape:connector-curvature="0" />
    <path
       d="m 88.139892,363.68748 h 0.750014 q 1.500002,0 1.500002,-1.5 v -4.49998 q 0,-1.5 -1.500002,-1.5 h -0.750014 q -1.500003,0 -1.500003,1.5 v 4.49998 q 0,1.5 1.500003,1.5 z"
       style="fill:#ffffff;fill-rule:evenodd;stroke-width:0.26458332"
       id="path4910"
       inkscape:connector-curvature="0" />
    <path
       d="m 88.139892,373.06249 h 0.750014 q 1.500002,0 1.500002,-1.5 v -4.50001 q 0,-1.49998 -1.500002,-1.49998 h -0.750014 q -1.500003,0 -1.500003,1.49998 v 4.50001 q 0,1.5 1.500003,1.5 z"
       style="fill:#ffffff;fill-rule:evenodd;stroke-width:0.26458332"
       id="path4912"
       inkscape:connector-curvature="0" />
    <path
       d="m 88.139892,353.93748 h 0.750014 q 1.500002,0 1.500002,-1.49998 v -4.5 q 0,-1.50001 -1.500002,-1.50001 h -0.750014 q -1.500003,0 -1.500003,1.50001 v 4.5 q 0,1.49998 1.500003,1.49998 z"
       style="fill:#ffffff;fill-rule:evenodd;stroke-width:0.26458332"
       id="path4914"
       inkscape:connector-curvature="0" />
    <path
       d="m 82.289901,363.79998 h 0.749988 q 1.500002,0 1.500002,-1.5 V 357.8 q 0,-1.5 -1.500002,-1.5 h -0.749988 q -1.500002,0 -1.500002,1.5 v 4.49998 q 0,1.5 1.500002,1.5 z"
       style="fill:#ffffff;fill-rule:evenodd;stroke-width:0.26458332"
       id="path4916"
       inkscape:connector-curvature="0" />
    <path
       d="m 82.289901,373.17499 h 0.749988 q 1.500002,0 1.500002,-1.5 v -4.50001 q 0,-1.49998 -1.500002,-1.49998 h -0.749988 q -1.500002,0 -1.500002,1.49998 v 4.50001 q 0,1.5 1.500002,1.5 z"
       style="fill:#ffffff;fill-rule:evenodd;stroke-width:0.26458332"
       id="path4918"
       inkscape:connector-curvature="0" />
    <path
       d="m 82.289901,354.04998 h 0.749988 q 1.500002,0 1.500002,-1.49998 v -4.5 q 0,-1.5 -1.500002,-1.5 h -0.749988 q -1.500002,0 -1.500002,1.5 v 4.5 q 0,1.49998 1.500002,1.49998 z"
       style="fill:#ffffff;fill-rule:evenodd;stroke-width:0.26458332"
       id="path4920"
       inkscape:connector-curvature="0" />
  </g>
</svg>
