<?xml version="1.0" encoding="UTF-8" standalone="no"?>
<!-- Created with Inkscape (http://www.inkscape.org/) -->

<svg
   xmlns:dc="http://purl.org/dc/elements/1.1/"
   xmlns:cc="http://creativecommons.org/ns#"
   xmlns:rdf="http://www.w3.org/1999/02/22-rdf-syntax-ns#"
   xmlns:svg="http://www.w3.org/2000/svg"
   xmlns="http://www.w3.org/2000/svg"
   xmlns:sodipodi="http://sodipodi.sourceforge.net/DTD/sodipodi-0.dtd"
   xmlns:inkscape="http://www.inkscape.org/namespaces/inkscape"
   width="33.749977mm"
   height="33.750011mm"
   viewBox="0 0 33.749978 33.750011"
   version="1.1"
   id="svg5086"
   inkscape:version="0.92.3 (2405546, 2018-03-11)"
   sodipodi:docname="lost112.svg">
  <defs
     id="defs5080" />
  <sodipodi:namedview
     id="base"
     pagecolor="#ffffff"
     bordercolor="#666666"
     borderopacity="1.0"
     inkscape:pageopacity="0.0"
     inkscape:pageshadow="2"
     inkscape:zoom="0.35"
     inkscape:cx="63.779495"
     inkscape:cy="63.779531"
     inkscape:document-units="mm"
     inkscape:current-layer="layer1"
     showgrid="false"
     fit-margin-top="0"
     fit-margin-left="0"
     fit-margin-right="0"
     fit-margin-bottom="0"
     inkscape:window-width="460"
     inkscape:window-height="403"
     inkscape:window-x="1392"
     inkscape:window-y="8"
     inkscape:window-maximized="0" />
  <metadata
     id="metadata5083">
    <rdf:RDF>
      <cc:Work
         rdf:about="">
        <dc:format>image/svg+xml</dc:format>
        <dc:type
           rdf:resource="http://purl.org/dc/dcmitype/StillImage" />
        <dc:title></dc:title>
      </cc:Work>
    </rdf:RDF>
  </metadata>
  <g
     inkscape:label="Layer 1"
     inkscape:groupmode="layer"
     id="layer1"
     transform="translate(-88.958342,-131.95833)">
    <path
       d="m 91.208346,165.70835 h 29.250004 q 2.24999,0 2.24999,-2.24999 v -29.25 q 0,-2.25002 -2.24999,-2.25002 H 91.208346 q -2.250017,0 -2.250017,2.25002 v 29.25 q 0,2.24999 2.250017,2.24999 z"
       style="fill:#ffc000;fill-rule:evenodd;stroke-width:0.26458332"
       id="path1213"
       inkscape:connector-curvature="0" />
    <g
       transform="matrix(0.26458333,0,0,0.26458333,43.95834,-389.29165)"
       id="Layer1115">
      <path
         d="m 204.9449,2079.337 h 57.8268 q 14.1732,0 14.1732,-14.1732 v -39.2895 q 0,-14.1732 -14.1732,-14.1732 h -57.8268 q -14.1732,0 -14.1732,14.1732 v 39.2895 q 0,14.1732 14.1732,14.1732 z"
         style="fill:#ffffff;fill-rule:evenodd;stroke-width:8;stroke-linecap:round;stroke-linejoin:round"
         id="path1215"
         inkscape:connector-curvature="0" />
      <path
         d="m 204.9449,2079.337 h 57.8268 q 14.1732,0 14.1732,-14.1732 v -39.2895 q 0,-14.1732 -14.1732,-14.1732 h -57.8268 q -14.1732,0 -14.1732,14.1732 v 39.2895 q 0,14.1732 14.1732,14.1732 z"
         style="fill:none;stroke:#000000;stroke-width:8;stroke-linecap:round;stroke-linejoin:round;stroke-dasharray:none"
         id="path1217"
         inkscape:connector-curvature="0" />
    </g>
    <path
       d="m 113.78334,141.94361 a 7.4861473,6.8133912 55.9321 0 0 -7.87501,-6.975"
       style="fill:none;stroke:#000000;stroke-width:2.11666656;stroke-linecap:round;stroke-linejoin:round;stroke-dasharray:none"
       id="path1220"
       inkscape:connector-curvature="0" />
    <path
       d="m 97.43333,142.01859 a 8.7577877,7.3111783 11.6288 0 1 8.44161,-7.06025"
       style="fill:none;stroke:#000000;stroke-width:2.11666656;stroke-linecap:round;stroke-linejoin:round;stroke-dasharray:none"
       id="path1222"
       inkscape:connector-curvature="0" />
    <g
       transform="matrix(0.26458333,0,0,0.26458333,43.95834,-389.29165)"
       id="Layer1116">
      <path
         d="m 208.3465,2062.2047 h 18.4252 v -31.1811 h -18.4252 z"
         style="fill:#ffffff;fill-rule:evenodd;stroke-width:8;stroke-linecap:round;stroke-linejoin:round"
         id="path1224"
         inkscape:connector-curvature="0" />
      <path
         d="m 208.3465,2062.2047 h 18.4252 v -31.1811 h -18.4252 z"
         style="fill:none;stroke:#000000;stroke-width:8;stroke-linecap:round;stroke-linejoin:round;stroke-dasharray:none"
         id="path1226"
         inkscape:connector-curvature="0" />
    </g>
    <g
       transform="matrix(0.26458333,0,0,0.26458333,43.95834,-389.29165)"
       id="Layer1117">
      <path
         d="m 229.6063,2048.0315 h 32.5984 v -4.252 h -32.5984 z"
         style="fill:#ffffff;fill-rule:evenodd;stroke-width:6;stroke-linecap:round;stroke-linejoin:round"
         id="path1229"
         inkscape:connector-curvature="0" />
      <path
         d="m 229.6063,2048.0315 h 32.5984 v -4.252 h -32.5984 z"
         style="fill:none;stroke:#000000;stroke-width:6;stroke-linecap:round;stroke-linejoin:round;stroke-dasharray:none"
         id="path1231"
         inkscape:connector-curvature="0" />
    </g>
    <g
       transform="matrix(0.26458333,0,0,0.26458333,43.95834,-389.29165)"
       id="Layer1118">
      <path
         d="m 249.4488,2060.7874 h 11.3386 v -4.252 h -11.3386 z"
         style="fill:#ffffff;fill-rule:evenodd;stroke-width:8;stroke-linecap:round;stroke-linejoin:round"
         id="path1234"
         inkscape:connector-curvature="0" />
      <path
         d="m 249.4488,2060.7874 h 11.3386 v -4.252 h -11.3386 z"
         style="fill:none;stroke:#000000;stroke-width:8;stroke-linecap:round;stroke-linejoin:round;stroke-dasharray:none"
         id="path1236"
         inkscape:connector-curvature="0" />
    </g>
  </g>
</svg>
