<?xml version="1.0" encoding="UTF-8" standalone="no"?>
<!-- Created with Inkscape (http://www.inkscape.org/) -->

<svg
   xmlns:dc="http://purl.org/dc/elements/1.1/"
   xmlns:cc="http://creativecommons.org/ns#"
   xmlns:rdf="http://www.w3.org/1999/02/22-rdf-syntax-ns#"
   xmlns:svg="http://www.w3.org/2000/svg"
   xmlns="http://www.w3.org/2000/svg"
   xmlns:sodipodi="http://sodipodi.sourceforge.net/DTD/sodipodi-0.dtd"
   xmlns:inkscape="http://www.inkscape.org/namespaces/inkscape"
   width="33.749992mm"
   height="33.749989mm"
   viewBox="0 0 33.749993 33.749988"
   version="1.1"
   id="svg5086"
   inkscape:version="0.92.3 (2405546, 2018-03-11)"
   sodipodi:docname="na.svg">
  <defs
     id="defs5080" />
  <sodipodi:namedview
     id="base"
     pagecolor="#ffffff"
     bordercolor="#666666"
     borderopacity="1.0"
     inkscape:pageopacity="0.0"
     inkscape:pageshadow="2"
     inkscape:zoom="0.35"
     inkscape:cx="63.779506"
     inkscape:cy="63.779524"
     inkscape:document-units="mm"
     inkscape:current-layer="layer1"
     showgrid="false"
     fit-margin-top="0"
     fit-margin-left="0"
     fit-margin-right="0"
     fit-margin-bottom="0"
     inkscape:window-width="460"
     inkscape:window-height="403"
     inkscape:window-x="1392"
     inkscape:window-y="8"
     inkscape:window-maximized="0" />
  <metadata
     id="metadata5083">
    <rdf:RDF>
      <cc:Work
         rdf:about="">
        <dc:format>image/svg+xml</dc:format>
        <dc:type
           rdf:resource="http://purl.org/dc/dcmitype/StillImage" />
        <dc:title></dc:title>
      </cc:Work>
    </rdf:RDF>
  </metadata>
  <g
     inkscape:label="Layer 1"
     inkscape:groupmode="layer"
     id="layer1"
     transform="translate(-88.958339,-192.43454)">
    <path
       d="m 91.208329,226.18453 h 29.250011 q 2.24999,0 2.24999,-2.24999 v -29.25001 q 0,-2.24999 -2.24999,-2.24999 H 91.208329 q -2.24999,0 -2.24999,2.24999 v 29.25001 q 0,2.24999 2.24999,2.24999 z"
       style="fill:#a5a5a5;fill-rule:evenodd;stroke-width:0.26458332"
       id="path2424"
       inkscape:connector-curvature="0" />
    <g
       transform="matrix(0.26458333,0,0,0.26458333,-68.541663,-216.31546)"
       id="Layer1238">
      <path
         d="m 630.1417,1654.1402 h 57.8268 q 14.1732,0 14.1732,-14.1732 v -39.2895 q 0,-14.1733 -14.1732,-14.1733 h -57.8268 q -14.1732,0 -14.1732,14.1733 v 39.2895 q 0,14.1732 14.1732,14.1732 z"
         style="fill:#ffffff;fill-rule:evenodd;stroke-width:8;stroke-linecap:round;stroke-linejoin:round"
         id="path2426"
         inkscape:connector-curvature="0" />
      <path
         d="m 630.1417,1654.1402 h 57.8268 q 14.1732,0 14.1732,-14.1732 v -39.2895 q 0,-14.1733 -14.1732,-14.1733 h -57.8268 q -14.1732,0 -14.1732,14.1733 v 39.2895 q 0,14.1732 14.1732,14.1732 z"
         style="fill:none;stroke:#000000;stroke-width:8;stroke-linecap:round;stroke-linejoin:round;stroke-dasharray:none"
         id="path2428"
         inkscape:connector-curvature="0" />
    </g>
    <path
       d="m 113.78335,202.41978 a 7.4861473,6.8133912 55.9321 0 0 -7.87501,-6.975"
       style="fill:none;stroke:#000000;stroke-width:2.11666656;stroke-linecap:round;stroke-linejoin:round;stroke-dasharray:none"
       id="path2431"
       inkscape:connector-curvature="0" />
    <path
       d="m 97.43334,202.49479 a 8.7577877,7.3111783 11.6288 0 1 8.44161,-7.06025"
       style="fill:none;stroke:#000000;stroke-width:2.11666656;stroke-linecap:round;stroke-linejoin:round;stroke-dasharray:none"
       id="path2433"
       inkscape:connector-curvature="0" />
    <g
       transform="matrix(0.26458333,0,0,0.26458333,-68.541663,-216.31546)"
       id="Layer1239">
      <path
         d="m 670.5354,1614.9364 a 10.6299,10.7935 -180 1 1 -10.6299,-10.7935 10.6299,10.7935 -180 0 1 10.6299,10.7935 z"
         style="fill:#000000;fill-rule:evenodd;stroke-width:0.75;stroke-linecap:round;stroke-linejoin:round"
         id="path2435"
         inkscape:connector-curvature="0" />
      <path
         d="m 670.5354,1614.9364 a 10.6299,10.7935 -180 1 1 -10.6299,-10.7935 10.6299,10.7935 -180 0 1 10.6299,10.7935 z"
         style="fill:none;stroke:#000000;stroke-width:0.75;stroke-linecap:round;stroke-linejoin:round;stroke-dasharray:none"
         id="path2437"
         inkscape:connector-curvature="0" />
    </g>
    <g
       transform="matrix(0.26458333,0,0,0.26458333,-68.541663,-216.31546)"
       id="Layer1240">
      <path
         d="m 666.815,1628.7553 a 6.9094,6.7323 -180 1 1 -6.9095,-6.7323 6.9094,6.7323 -180 0 1 6.9095,6.7323 z"
         style="fill:#000000;fill-rule:evenodd;stroke-width:0.75;stroke-linecap:round;stroke-linejoin:round"
         id="path2440"
         inkscape:connector-curvature="0" />
      <path
         d="m 666.815,1628.7553 a 6.9094,6.7323 -180 1 1 -6.9095,-6.7323 6.9094,6.7323 -180 0 1 6.9095,6.7323 z"
         style="fill:none;stroke:#000000;stroke-width:0.75;stroke-linecap:round;stroke-linejoin:round;stroke-dasharray:none"
         id="path2442"
         inkscape:connector-curvature="0" />
    </g>
  </g>
</svg>
