<?xml version="1.0" encoding="UTF-8" standalone="no"?>
<!-- Created with Inkscape (http://www.inkscape.org/) -->

<svg
   xmlns:dc="http://purl.org/dc/elements/1.1/"
   xmlns:cc="http://creativecommons.org/ns#"
   xmlns:rdf="http://www.w3.org/1999/02/22-rdf-syntax-ns#"
   xmlns:svg="http://www.w3.org/2000/svg"
   xmlns="http://www.w3.org/2000/svg"
   xmlns:sodipodi="http://sodipodi.sourceforge.net/DTD/sodipodi-0.dtd"
   xmlns:inkscape="http://www.inkscape.org/namespaces/inkscape"
   width="33.749981mm"
   height="33.750011mm"
   viewBox="0 0 33.749982 33.750011"
   version="1.1"
   id="svg5086"
   inkscape:version="0.92.3 (2405546, 2018-03-11)"
   sodipodi:docname="ok112.svg">
  <defs
     id="defs5080" />
  <sodipodi:namedview
     id="base"
     pagecolor="#ffffff"
     bordercolor="#666666"
     borderopacity="1.0"
     inkscape:pageopacity="0.0"
     inkscape:pageshadow="2"
     inkscape:zoom="0.35"
     inkscape:cx="-175.29814"
     inkscape:cy="367.55906"
     inkscape:document-units="mm"
     inkscape:current-layer="layer1"
     showgrid="false"
     fit-margin-top="0"
     fit-margin-left="0"
     fit-margin-right="0"
     fit-margin-bottom="0"
     inkscape:window-width="460"
     inkscape:window-height="403"
     inkscape:window-x="1392"
     inkscape:window-y="8"
     inkscape:window-maximized="0" />
  <metadata
     id="metadata5083">
    <rdf:RDF>
      <cc:Work
         rdf:about="">
        <dc:format>image/svg+xml</dc:format>
        <dc:type
           rdf:resource="http://purl.org/dc/dcmitype/StillImage" />
        <dc:title></dc:title>
      </cc:Work>
    </rdf:RDF>
  </metadata>
  <g
     inkscape:label="Layer 1"
     inkscape:groupmode="layer"
     id="layer1"
     transform="translate(-152.2143,-272.80952)">
    <path
       d="m 154.46429,306.55953 h 29.25 q 2.24999,0 2.24999,-2.24999 v -29.25 q 0,-2.25002 -2.24999,-2.25002 h -29.25 q -2.24999,0 -2.24999,2.25002 v 29.25 q 0,2.24999 2.24999,2.24999 z"
       style="fill:#00db00;fill-rule:evenodd;stroke-width:0.26458332"
       id="path2759"
       inkscape:connector-curvature="0" />
    <g
       transform="matrix(0.26458333,0,0,0.26458333,142.83929,-248.44047)"
       id="Layer1279">
      <path
         d="m 70.2992,2079.337 h 57.8268 q 14.1732,0 14.1732,-14.1732 v -39.2895 q 0,-14.1732 -14.1732,-14.1732 H 70.2992 q -14.1732,0 -14.1732,14.1732 v 39.2895 q 0,14.1732 14.1732,14.1732 z"
         style="fill:#ffffff;fill-rule:evenodd;stroke-width:8;stroke-linecap:round;stroke-linejoin:round"
         id="path2761"
         inkscape:connector-curvature="0" />
      <path
         d="m 70.2992,2079.337 h 57.8268 q 14.1732,0 14.1732,-14.1732 v -39.2895 q 0,-14.1732 -14.1732,-14.1732 H 70.2992 q -14.1732,0 -14.1732,14.1732 v 39.2895 q 0,14.1732 14.1732,14.1732 z"
         style="fill:none;stroke:#000000;stroke-width:8;stroke-linecap:round;stroke-linejoin:round;stroke-dasharray:none"
         id="path2763"
         inkscape:connector-curvature="0" />
    </g>
    <path
       d="m 177.03928,282.79479 a 7.4861473,6.8133912 55.9321 0 0 -7.87498,-6.975"
       style="fill:none;stroke:#000000;stroke-width:2.11666656;stroke-linecap:round;stroke-linejoin:round;stroke-dasharray:none"
       id="path2766"
       inkscape:connector-curvature="0" />
    <path
       d="m 160.6893,282.86977 a 8.7577877,7.3111783 11.6288 0 1 8.44161,-7.06025"
       style="fill:none;stroke:#000000;stroke-width:2.11666656;stroke-linecap:round;stroke-linejoin:round;stroke-dasharray:none"
       id="path2768"
       inkscape:connector-curvature="0" />
    <g
       transform="matrix(0.26458333,0,0,0.26458333,142.83929,-248.44047)"
       id="Layer1280">
      <path
         d="M 73.7008,2062.2047 H 92.126 v -31.1811 H 73.7008 Z"
         style="fill:#ffffff;fill-rule:evenodd;stroke-width:8;stroke-linecap:round;stroke-linejoin:round"
         id="path2770"
         inkscape:connector-curvature="0" />
      <path
         d="M 73.7008,2062.2047 H 92.126 v -31.1811 H 73.7008 Z"
         style="fill:none;stroke:#000000;stroke-width:8;stroke-linecap:round;stroke-linejoin:round;stroke-dasharray:none"
         id="path2772"
         inkscape:connector-curvature="0" />
    </g>
    <g
       transform="matrix(0.26458333,0,0,0.26458333,142.83929,-248.44047)"
       id="Layer1281">
      <path
         d="m 94.9606,2048.0315 h 32.5985 v -4.252 H 94.9606 Z"
         style="fill:#ffffff;fill-rule:evenodd;stroke-width:6;stroke-linecap:round;stroke-linejoin:round"
         id="path2775"
         inkscape:connector-curvature="0" />
      <path
         d="m 94.9606,2048.0315 h 32.5985 v -4.252 H 94.9606 Z"
         style="fill:none;stroke:#000000;stroke-width:6;stroke-linecap:round;stroke-linejoin:round;stroke-dasharray:none"
         id="path2777"
         inkscape:connector-curvature="0" />
    </g>
    <g
       transform="matrix(0.26458333,0,0,0.26458333,142.83929,-248.44047)"
       id="Layer1282">
      <path
         d="m 114.8031,2060.7874 h 11.3386 v -4.252 h -11.3386 z"
         style="fill:#ffffff;fill-rule:evenodd;stroke-width:8;stroke-linecap:round;stroke-linejoin:round"
         id="path2780"
         inkscape:connector-curvature="0" />
      <path
         d="m 114.8031,2060.7874 h 11.3386 v -4.252 h -11.3386 z"
         style="fill:none;stroke:#000000;stroke-width:8;stroke-linecap:round;stroke-linejoin:round;stroke-dasharray:none"
         id="path2782"
         inkscape:connector-curvature="0" />
    </g>
  </g>
</svg>
