<?xml version="1.0" encoding="UTF-8" standalone="no"?>
<!-- Created with Inkscape (http://www.inkscape.org/) -->

<svg
   xmlns:dc="http://purl.org/dc/elements/1.1/"
   xmlns:cc="http://creativecommons.org/ns#"
   xmlns:rdf="http://www.w3.org/1999/02/22-rdf-syntax-ns#"
   xmlns:svg="http://www.w3.org/2000/svg"
   xmlns="http://www.w3.org/2000/svg"
   xmlns:sodipodi="http://sodipodi.sourceforge.net/DTD/sodipodi-0.dtd"
   xmlns:inkscape="http://www.inkscape.org/namespaces/inkscape"
   width="33.749992mm"
   height="33.750011mm"
   viewBox="0 0 33.749993 33.750011"
   version="1.1"
   id="svg5086"
   inkscape:version="0.92.3 (2405546, 2018-03-11)"
   sodipodi:docname="na.svg">
  <defs
     id="defs5080" />
  <sodipodi:namedview
     id="base"
     pagecolor="#ffffff"
     bordercolor="#666666"
     borderopacity="1.0"
     inkscape:pageopacity="0.0"
     inkscape:pageshadow="2"
     inkscape:zoom="0.35"
     inkscape:cx="63.77951"
     inkscape:cy="63.779542"
     inkscape:document-units="mm"
     inkscape:current-layer="layer1"
     showgrid="false"
     fit-margin-top="0"
     fit-margin-left="0"
     fit-margin-right="0"
     fit-margin-bottom="0"
     inkscape:window-width="460"
     inkscape:window-height="403"
     inkscape:window-x="1392"
     inkscape:window-y="8"
     inkscape:window-maximized="0" />
  <metadata
     id="metadata5083">
    <rdf:RDF>
      <cc:Work
         rdf:about="">
        <dc:format>image/svg+xml</dc:format>
        <dc:type
           rdf:resource="http://purl.org/dc/dcmitype/StillImage" />
        <dc:title></dc:title>
      </cc:Work>
    </rdf:RDF>
  </metadata>
  <g
     inkscape:label="Layer 1"
     inkscape:groupmode="layer"
     id="layer1"
     transform="translate(-88.958338,-131.95833)">
    <g
       transform="matrix(0.26458333,0,0,0.26458333,-68.54166,-57.416657)"
       id="Layer1217">
      <path
         d="m 603.7795,843.3071 h 110.5512 q 8.5039,0 8.5039,-8.504 V 724.252 q 0,-8.504 -8.5039,-8.504 H 603.7795 q -8.5039,0 -8.5039,8.504 v 110.5511 q 0,8.504 8.5039,8.504 z"
         style="fill:#a5a5a5;fill-rule:evenodd;stroke-width:0.23999999;stroke-linecap:round;stroke-linejoin:round"
         id="path2251"
         inkscape:connector-curvature="0" />
      <path
         d="m 603.7795,843.3071 h 110.5512 q 8.5039,0 8.5039,-8.504 V 724.252 q 0,-8.504 -8.5039,-8.504 H 603.7795 q -8.5039,0 -8.5039,8.504 v 110.5511 q 0,8.504 8.5039,8.504 z"
         style="fill:none;stroke:#ffffff;stroke-width:0.23999999;stroke-linecap:round;stroke-linejoin:round;stroke-dasharray:none"
         id="path2253"
         inkscape:connector-curvature="0" />
    </g>
    <path
       d="m 92.708334,137.20835 h 24.374996 q 1.875,0 1.875,1.875 v 1.87499"
       style="fill:none;stroke:#ffffff;stroke-width:2.64583325;stroke-linecap:round;stroke-linejoin:round;stroke-dasharray:none"
       id="path2256"
       inkscape:connector-curvature="0" />
    <path
       d="m 103.95833,144.70834 h 13.125 q 1.875,0 1.875,-1.875 v -1.875"
       style="fill:none;stroke:#ffffff;stroke-width:2.64583325;stroke-linecap:round;stroke-linejoin:round;stroke-dasharray:none"
       id="path2258"
       inkscape:connector-curvature="0" />
    <path
       d="m 103.95833,152.20835 h 13.125 q 1.875,0 1.875,1.87499 v 1.875"
       style="fill:none;stroke:#ffffff;stroke-width:2.64583325;stroke-linecap:round;stroke-linejoin:round;stroke-dasharray:none"
       id="path2260"
       inkscape:connector-curvature="0" />
    <path
       d="m 92.708334,159.70833 h 24.374996 q 1.875,0 1.875,-1.87499 v -1.875"
       style="fill:none;stroke:#ffffff;stroke-width:2.64583325;stroke-linecap:round;stroke-linejoin:round;stroke-dasharray:none"
       id="path2262"
       inkscape:connector-curvature="0" />
    <path
       d="m 107.70833,152.20835 h -7.49999"
       style="fill:none;stroke:#ffffff;stroke-width:2.64583325;stroke-linecap:round;stroke-linejoin:round;stroke-dasharray:none"
       id="path2264"
       inkscape:connector-curvature="0" />
    <path
       d="m 107.70833,144.70834 h -7.49999"
       style="fill:none;stroke:#ffffff;stroke-width:2.64583325;stroke-linecap:round;stroke-linejoin:round;stroke-dasharray:none"
       id="path2266"
       inkscape:connector-curvature="0" />
    <g
       transform="matrix(0.26458333,0,0,0.26458333,-68.54166,-57.416657)"
       id="Layer1218">
      <path
         d="m 625.0394,802.2047 h 31.1811 q 8.5039,0 8.5039,-8.5039 v -31.1811 q 0,-8.504 -8.5039,-8.504 h -31.1811 q -8.504,0 -8.504,8.504 v 31.1811 q 0,8.5039 8.504,8.5039 z"
         style="fill:#000000;fill-rule:evenodd;stroke-width:10;stroke-linecap:round;stroke-linejoin:round"
         id="path2268"
         inkscape:connector-curvature="0" />
      <path
         d="m 625.0394,802.2047 h 31.1811 q 8.5039,0 8.5039,-8.5039 v -31.1811 q 0,-8.504 -8.5039,-8.504 h -31.1811 q -8.504,0 -8.504,8.504 v 31.1811 q 0,8.5039 8.504,8.5039 z"
         style="fill:none;stroke:#ffffff;stroke-width:10;stroke-linecap:round;stroke-linejoin:round;stroke-dasharray:none"
         id="path2270"
         inkscape:connector-curvature="0" />
    </g>
  </g>
</svg>
