<?xml version="1.0" encoding="UTF-8" standalone="no"?>
<!-- Created with Inkscape (http://www.inkscape.org/) -->

<svg
   xmlns:dc="http://purl.org/dc/elements/1.1/"
   xmlns:cc="http://creativecommons.org/ns#"
   xmlns:rdf="http://www.w3.org/1999/02/22-rdf-syntax-ns#"
   xmlns:svg="http://www.w3.org/2000/svg"
   xmlns="http://www.w3.org/2000/svg"
   xmlns:sodipodi="http://sodipodi.sourceforge.net/DTD/sodipodi-0.dtd"
   xmlns:inkscape="http://www.inkscape.org/namespaces/inkscape"
   width="33.749985mm"
   height="33.749989mm"
   viewBox="0 0 33.749985 33.749988"
   version="1.1"
   id="svg5066"
   inkscape:version="0.92.3 (2405546, 2018-03-11)"
   sodipodi:docname="alarm.svg">
  <defs
     id="defs5060" />
  <sodipodi:namedview
     id="base"
     pagecolor="#ffffff"
     bordercolor="#666666"
     borderopacity="1.0"
     inkscape:pageopacity="0.0"
     inkscape:pageshadow="2"
     inkscape:zoom="0.35"
     inkscape:cx="63.7795"
     inkscape:cy="63.779517"
     inkscape:document-units="mm"
     inkscape:current-layer="layer1"
     showgrid="false"
     fit-margin-top="0"
     fit-margin-left="0"
     fit-margin-right="0"
     fit-margin-bottom="0"
     inkscape:window-width="548"
     inkscape:window-height="561"
     inkscape:window-x="1005"
     inkscape:window-y="30"
     inkscape:window-maximized="0" />
  <metadata
     id="metadata5063">
    <rdf:RDF>
      <cc:Work
         rdf:about="">
        <dc:format>image/svg+xml</dc:format>
        <dc:type
           rdf:resource="http://purl.org/dc/dcmitype/StillImage" />
        <dc:title></dc:title>
      </cc:Work>
    </rdf:RDF>
  </metadata>
  <g
     inkscape:label="Layer 1"
     inkscape:groupmode="layer"
     id="layer1"
     transform="translate(-60.389901,-343.62501)">
    <path
       d="m 62.639878,377.37501 h 29.250005 q 2.250017,0 2.250017,-2.25001 v -29.24998 q 0,-2.25002 -2.250017,-2.25002 H 62.639878 q -2.24999,0 -2.24999,2.25002 V 375.125 q 0,2.25001 2.24999,2.25001 z"
       style="fill:#ff0000;fill-rule:evenodd;stroke-width:0.26458332"
       id="path1915"
       inkscape:connector-curvature="0" />
    <g
       transform="matrix(0.26458333,0,0,0.26458333,-59.61011,-361.37499)"
       id="Layer1185">
      <path
         d="m 466.2992,2728.7008 a 51.378,51.378 0 0 1 102.7559,0 51.378,51.378 0 0 1 -102.7559,0 z"
         style="fill:#ffffff;fill-rule:evenodd;stroke-width:6;stroke-linecap:round;stroke-linejoin:round"
         id="path1917"
         inkscape:connector-curvature="0" />
      <path
         d="m 466.2992,2728.7008 a 51.378,51.378 0 0 1 102.7559,0 51.378,51.378 0 0 1 -102.7559,0 z"
         style="fill:none;stroke:#000000;stroke-width:6;stroke-linecap:round;stroke-linejoin:round;stroke-dasharray:none"
         id="path1919"
         inkscape:connector-curvature="0" />
    </g>
    <g
       transform="matrix(0.26458333,0,0,0.26458333,-59.61011,-361.37499)"
       id="Layer1186">
      <path
         d="m 482.5984,2728.3465 a 34.7244,34.7244 0 1 1 69.4488,0 34.7244,34.7244 0 1 1 -69.4488,0 z"
         style="fill:#ffffff;fill-rule:evenodd;stroke-width:10;stroke-linecap:round;stroke-linejoin:round"
         id="path1922"
         inkscape:connector-curvature="0" />
      <path
         d="m 482.5984,2728.3465 a 34.7244,34.7244 0 1 1 69.4488,0 34.7244,34.7244 0 1 1 -69.4488,0 z"
         style="fill:none;stroke:#000000;stroke-width:10;stroke-linecap:round;stroke-linejoin:round;stroke-dasharray:none"
         id="path1924"
         inkscape:connector-curvature="0" />
    </g>
    <g
       transform="matrix(0.26458333,0,0,0.26458333,-59.61011,-361.37499)"
       id="Layer1187">
      <path
         d="m 509.5276,2728.3465 a 7.4409,7.4409 0 0 1 14.8818,0 7.4409,7.4409 0 0 1 -14.8818,0 z"
         style="fill:#000000;fill-rule:evenodd;stroke-width:6;stroke-linecap:round;stroke-linejoin:round"
         id="path1927"
         inkscape:connector-curvature="0" />
      <path
         d="m 509.5276,2728.3465 a 7.4409,7.4409 0 0 1 14.8818,0 7.4409,7.4409 0 0 1 -14.8818,0 z"
         style="fill:none;stroke:#000000;stroke-width:6;stroke-linecap:round;stroke-linejoin:round;stroke-dasharray:none"
         id="path1929"
         inkscape:connector-curvature="0" />
    </g>
    <path
       d="M 77.171139,360.50002 87.764897,351.875"
       style="fill:none;stroke:#000000;stroke-width:1.58749998;stroke-linecap:round;stroke-linejoin:round;stroke-dasharray:none"
       id="path1932"
       inkscape:connector-curvature="0" />
    <path
       d="m 88.514885,354.50001 -11.156236,6.09375 10.453476,-7.59375"
       style="fill:none;stroke:#000000;stroke-width:2.64583325;stroke-linecap:round;stroke-linejoin:round;stroke-dasharray:none"
       id="path1934"
       inkscape:connector-curvature="0" />
    <path
       d="m 77.264881,360.50002 12.375012,-4.50001"
       style="fill:none;stroke:#000000;stroke-width:1.58749998;stroke-linecap:round;stroke-linejoin:round;stroke-dasharray:none"
       id="path1936"
       inkscape:connector-curvature="0" />
    <path
       d="m 90.014887,357.50001 -12.656238,3.09375 12.656238,-4.21875"
       style="fill:none;stroke:#000000;stroke-width:1.58749998;stroke-linecap:round;stroke-linejoin:round;stroke-dasharray:none"
       id="path1938"
       inkscape:connector-curvature="0" />
    <path
       d="M 90.952385,360.59376 H 77.358649 l 13.031232,-1.59374"
       style="fill:none;stroke:#000000;stroke-width:1.58749998;stroke-linecap:round;stroke-linejoin:round;stroke-dasharray:none"
       id="path1940"
       inkscape:connector-curvature="0" />
    <path
       d="m 90.389881,363.5 -13.125,-2.99998 13.125,1.875"
       style="fill:none;stroke:#000000;stroke-width:1.58749998;stroke-linecap:round;stroke-linejoin:round;stroke-dasharray:none"
       id="path1942"
       inkscape:connector-curvature="0" />
    <path
       d="m 77.358649,360.59376 13.02983,0.97502"
       style="fill:none;stroke:#000000;stroke-width:1.58749998;stroke-linecap:round;stroke-linejoin:round;stroke-dasharray:none"
       id="path1944"
       inkscape:connector-curvature="0" />
    <path
       d="m 77.358649,360.59376 13.031232,3.65625"
       style="fill:none;stroke:#000000;stroke-width:1.58749998;stroke-linecap:round;stroke-linejoin:round;stroke-dasharray:none"
       id="path1946"
       inkscape:connector-curvature="0" />
    <path
       d="m 77.358649,360.59376 12.380939,4.18637"
       style="fill:none;stroke:#000000;stroke-width:1.58749998;stroke-linecap:round;stroke-linejoin:round;stroke-dasharray:none"
       id="path1948"
       inkscape:connector-curvature="0" />
    <path
       d="m 83.602392,360.50002 a 2.4375005,2.4375005 0 0 1 4.875001,0 2.4375005,2.4375005 0 0 1 -4.875001,0 z"
       style="fill:#ffffff;fill-rule:evenodd;stroke-width:0.26458332"
       id="path1950"
       inkscape:connector-curvature="0" />
    <path
       d="m 88.796137,367.92499 -11.531256,-7.42497 12.28127,5.92119"
       style="fill:none;stroke:#000000;stroke-width:1.58749998;stroke-linecap:round;stroke-linejoin:round;stroke-dasharray:none"
       id="path1952"
       inkscape:connector-curvature="0" />
    <path
       d="m 77.264881,360.50002 10.87501,8.17499"
       style="fill:none;stroke:#000000;stroke-width:1.58749998;stroke-linecap:round;stroke-linejoin:round;stroke-dasharray:none"
       id="path1954"
       inkscape:connector-curvature="0" />
    <path
       d="m 77.358649,360.59376 9.281239,9.13125"
       style="fill:none;stroke:#000000;stroke-width:2.64583325;stroke-linecap:round;stroke-linejoin:round;stroke-dasharray:none"
       id="path1956"
       inkscape:connector-curvature="0" />
  </g>
</svg>
