<?xml version="1.0" encoding="UTF-8" standalone="no"?>
<!-- Created with Inkscape (http://www.inkscape.org/) -->

<svg
   xmlns:dc="http://purl.org/dc/elements/1.1/"
   xmlns:cc="http://creativecommons.org/ns#"
   xmlns:rdf="http://www.w3.org/1999/02/22-rdf-syntax-ns#"
   xmlns:svg="http://www.w3.org/2000/svg"
   xmlns="http://www.w3.org/2000/svg"
   xmlns:sodipodi="http://sodipodi.sourceforge.net/DTD/sodipodi-0.dtd"
   xmlns:inkscape="http://www.inkscape.org/namespaces/inkscape"
   width="33.749985mm"
   height="33.749989mm"
   viewBox="0 0 33.749985 33.749988"
   version="1.1"
   id="svg5066"
   inkscape:version="0.92.3 (2405546, 2018-03-11)"
   sodipodi:docname="error.svg">
  <defs
     id="defs5060" />
  <sodipodi:namedview
     id="base"
     pagecolor="#ffffff"
     bordercolor="#666666"
     borderopacity="1.0"
     inkscape:pageopacity="0.0"
     inkscape:pageshadow="2"
     inkscape:zoom="0.35"
     inkscape:cx="63.7795"
     inkscape:cy="63.779517"
     inkscape:document-units="mm"
     inkscape:current-layer="layer1"
     showgrid="false"
     fit-margin-top="0"
     fit-margin-left="0"
     fit-margin-right="0"
     fit-margin-bottom="0"
     inkscape:window-width="548"
     inkscape:window-height="561"
     inkscape:window-x="1005"
     inkscape:window-y="30"
     inkscape:window-maximized="0" />
  <metadata
     id="metadata5063">
    <rdf:RDF>
      <cc:Work
         rdf:about="">
        <dc:format>image/svg+xml</dc:format>
        <dc:type
           rdf:resource="http://purl.org/dc/dcmitype/StillImage" />
        <dc:title></dc:title>
      </cc:Work>
    </rdf:RDF>
  </metadata>
  <g
     inkscape:label="Layer 1"
     inkscape:groupmode="layer"
     id="layer1"
     transform="translate(-60.389901,-343.62501)">
    <path
       d="m 62.639905,377.37501 h 29.249978 q 2.250017,0 2.250017,-2.25001 v -29.24998 q 0,-2.25002 -2.250017,-2.25002 H 62.639905 q -2.250017,0 -2.250017,2.25002 V 375.125 q 0,2.25001 2.250017,2.25001 z"
       style="fill:#0f2dfb;fill-rule:evenodd;stroke-width:0.26458332"
       id="path1872"
       inkscape:connector-curvature="0" />
    <g
       transform="matrix(0.26458333,0,0,0.26458333,-22.110106,-361.37499)"
       id="Layer1182">
      <path
         d="m 324.5669,2728.7008 a 51.378,51.378 0 0 1 102.7559,0 51.378,51.378 0 0 1 -102.7559,0 z"
         style="fill:#ffffff;fill-rule:evenodd;stroke-width:6;stroke-linecap:round;stroke-linejoin:round"
         id="path1874"
         inkscape:connector-curvature="0" />
      <path
         d="m 324.5669,2728.7008 a 51.378,51.378 0 0 1 102.7559,0 51.378,51.378 0 0 1 -102.7559,0 z"
         style="fill:none;stroke:#000000;stroke-width:6;stroke-linecap:round;stroke-linejoin:round;stroke-dasharray:none"
         id="path1876"
         inkscape:connector-curvature="0" />
    </g>
    <g
       transform="matrix(0.26458333,0,0,0.26458333,-22.110106,-361.37499)"
       id="Layer1183">
      <path
         d="m 340.8661,2728.3465 a 34.72445,34.72445 0 1 1 69.4489,0 34.72445,34.72445 0 1 1 -69.4489,0 z"
         style="fill:#ffffff;fill-rule:evenodd;stroke-width:10;stroke-linecap:round;stroke-linejoin:round"
         id="path1879"
         inkscape:connector-curvature="0" />
      <path
         d="m 340.8661,2728.3465 a 34.72445,34.72445 0 1 1 69.4489,0 34.72445,34.72445 0 1 1 -69.4489,0 z"
         style="fill:none;stroke:#000000;stroke-width:10;stroke-linecap:round;stroke-linejoin:round;stroke-dasharray:none"
         id="path1881"
         inkscape:connector-curvature="0" />
    </g>
    <g
       transform="matrix(0.26458333,0,0,0.26458333,-22.110106,-361.37499)"
       id="Layer1184">
      <path
         d="m 367.7953,2728.3465 a 7.44095,7.44095 0 0 1 14.8819,0 7.44095,7.44095 0 0 1 -14.8819,0 z"
         style="fill:#000000;fill-rule:evenodd;stroke-width:6;stroke-linecap:round;stroke-linejoin:round"
         id="path1884"
         inkscape:connector-curvature="0" />
      <path
         d="m 367.7953,2728.3465 a 7.44095,7.44095 0 0 1 14.8819,0 7.44095,7.44095 0 0 1 -14.8819,0 z"
         style="fill:none;stroke:#000000;stroke-width:6;stroke-linecap:round;stroke-linejoin:round;stroke-dasharray:none"
         id="path1886"
         inkscape:connector-curvature="0" />
    </g>
    <path
       d="M 77.171139,360.50002 87.764897,351.875"
       style="fill:none;stroke:#000000;stroke-width:1.58749998;stroke-linecap:round;stroke-linejoin:round;stroke-dasharray:none"
       id="path1889"
       inkscape:connector-curvature="0" />
    <path
       d="m 88.514885,354.50001 -11.156236,6.09375 10.453502,-7.59375"
       style="fill:none;stroke:#000000;stroke-width:2.64583325;stroke-linecap:round;stroke-linejoin:round;stroke-dasharray:none"
       id="path1891"
       inkscape:connector-curvature="0" />
    <path
       d="m 77.264907,360.50002 12.374986,-4.50001"
       style="fill:none;stroke:#000000;stroke-width:1.58749998;stroke-linecap:round;stroke-linejoin:round;stroke-dasharray:none"
       id="path1893"
       inkscape:connector-curvature="0" />
    <path
       d="m 90.014887,357.50001 -12.656238,3.09375 12.656238,-4.21875"
       style="fill:none;stroke:#000000;stroke-width:1.58749998;stroke-linecap:round;stroke-linejoin:round;stroke-dasharray:none"
       id="path1895"
       inkscape:connector-curvature="0" />
    <path
       d="M 90.952385,360.59376 H 77.358649 l 13.031258,-1.59374"
       style="fill:none;stroke:#000000;stroke-width:1.58749998;stroke-linecap:round;stroke-linejoin:round;stroke-dasharray:none"
       id="path1897"
       inkscape:connector-curvature="0" />
    <path
       d="m 90.389907,363.5 -13.125,-2.99998 13.125,1.875"
       style="fill:none;stroke:#000000;stroke-width:1.58749998;stroke-linecap:round;stroke-linejoin:round;stroke-dasharray:none"
       id="path1899"
       inkscape:connector-curvature="0" />
    <path
       d="m 77.358649,360.59376 13.02983,0.97502"
       style="fill:none;stroke:#000000;stroke-width:1.58749998;stroke-linecap:round;stroke-linejoin:round;stroke-dasharray:none"
       id="path1901"
       inkscape:connector-curvature="0" />
    <path
       d="m 77.358649,360.59376 13.031258,3.65625"
       style="fill:none;stroke:#000000;stroke-width:1.58749998;stroke-linecap:round;stroke-linejoin:round;stroke-dasharray:none"
       id="path1903"
       inkscape:connector-curvature="0" />
    <path
       d="m 77.358649,360.59376 12.380965,4.18637"
       style="fill:none;stroke:#000000;stroke-width:1.58749998;stroke-linecap:round;stroke-linejoin:round;stroke-dasharray:none"
       id="path1905"
       inkscape:connector-curvature="0" />
    <path
       d="m 83.602392,360.50002 a 2.4375005,2.4375005 0 0 1 4.875001,0 2.4375005,2.4375005 0 0 1 -4.875001,0 z"
       style="fill:#ffffff;fill-rule:evenodd;stroke-width:0.26458332"
       id="path1907"
       inkscape:connector-curvature="0" />
    <path
       d="m 88.796137,367.92499 -11.53123,-7.42497 12.281244,5.92119"
       style="fill:none;stroke:#000000;stroke-width:1.58749998;stroke-linecap:round;stroke-linejoin:round;stroke-dasharray:none"
       id="path1909"
       inkscape:connector-curvature="0" />
    <path
       d="m 77.264907,360.50002 10.874984,8.17499"
       style="fill:none;stroke:#000000;stroke-width:1.58749998;stroke-linecap:round;stroke-linejoin:round;stroke-dasharray:none"
       id="path1911"
       inkscape:connector-curvature="0" />
    <path
       d="m 77.358649,360.59376 9.281239,9.13125"
       style="fill:none;stroke:#000000;stroke-width:2.64583325;stroke-linecap:round;stroke-linejoin:round;stroke-dasharray:none"
       id="path1913"
       inkscape:connector-curvature="0" />
  </g>
</svg>
