<?xml version="1.0" encoding="UTF-8" standalone="no"?>
<!-- Created with Inkscape (http://www.inkscape.org/) -->

<svg
   xmlns:dc="http://purl.org/dc/elements/1.1/"
   xmlns:cc="http://creativecommons.org/ns#"
   xmlns:rdf="http://www.w3.org/1999/02/22-rdf-syntax-ns#"
   xmlns:svg="http://www.w3.org/2000/svg"
   xmlns="http://www.w3.org/2000/svg"
   xmlns:sodipodi="http://sodipodi.sourceforge.net/DTD/sodipodi-0.dtd"
   xmlns:inkscape="http://www.inkscape.org/namespaces/inkscape"
   width="33.749985mm"
   height="33.749989mm"
   viewBox="0 0 33.749985 33.749988"
   version="1.1"
   id="svg5066"
   inkscape:version="0.92.3 (2405546, 2018-03-11)"
   sodipodi:docname="na.svg">
  <defs
     id="defs5060" />
  <sodipodi:namedview
     id="base"
     pagecolor="#ffffff"
     bordercolor="#666666"
     borderopacity="1.0"
     inkscape:pageopacity="0.0"
     inkscape:pageshadow="2"
     inkscape:zoom="0.35"
     inkscape:cx="63.7795"
     inkscape:cy="63.779517"
     inkscape:document-units="mm"
     inkscape:current-layer="layer1"
     showgrid="false"
     fit-margin-top="0"
     fit-margin-left="0"
     fit-margin-right="0"
     fit-margin-bottom="0"
     inkscape:window-width="548"
     inkscape:window-height="561"
     inkscape:window-x="1005"
     inkscape:window-y="30"
     inkscape:window-maximized="0" />
  <metadata
     id="metadata5063">
    <rdf:RDF>
      <cc:Work
         rdf:about="">
        <dc:format>image/svg+xml</dc:format>
        <dc:type
           rdf:resource="http://purl.org/dc/dcmitype/StillImage" />
        <dc:title></dc:title>
      </cc:Work>
    </rdf:RDF>
  </metadata>
  <g
     inkscape:label="Layer 1"
     inkscape:groupmode="layer"
     id="layer1"
     transform="translate(-60.389901,-343.62501)">
    <path
       d="m 62.639891,377.37501 h 29.250005 q 2.24999,0 2.24999,-2.25001 v -29.24998 q 0,-2.25002 -2.24999,-2.25002 H 62.639891 q -2.24999,0 -2.24999,2.25002 V 375.125 q 0,2.25001 2.24999,2.25001 z"
       style="fill:#a5a5a5;fill-rule:evenodd;stroke-width:0.26458332"
       id="path2673"
       inkscape:connector-curvature="0" />
    <g
       transform="matrix(0.26458333,0,0,0.26458333,-97.110101,-361.37499)"
       id="Layer1269">
      <path
         d="m 608.0315,2728.7008 a 51.378,51.378 0 0 1 102.7559,0 51.378,51.378 0 0 1 -102.7559,0 z"
         style="fill:#ffffff;fill-rule:evenodd;stroke-width:6;stroke-linecap:round;stroke-linejoin:round"
         id="path2675"
         inkscape:connector-curvature="0" />
      <path
         d="m 608.0315,2728.7008 a 51.378,51.378 0 0 1 102.7559,0 51.378,51.378 0 0 1 -102.7559,0 z"
         style="fill:none;stroke:#000000;stroke-width:6;stroke-linecap:round;stroke-linejoin:round;stroke-dasharray:none"
         id="path2677"
         inkscape:connector-curvature="0" />
    </g>
    <g
       transform="matrix(0.26458333,0,0,0.26458333,-97.110101,-361.37499)"
       id="Layer1270">
      <path
         d="m 624.3307,2728.3465 a 34.7244,34.7244 0 1 1 69.4488,0 34.7244,34.7244 0 1 1 -69.4488,0 z"
         style="fill:#ffffff;fill-rule:evenodd;stroke-width:10;stroke-linecap:round;stroke-linejoin:round"
         id="path2680"
         inkscape:connector-curvature="0" />
      <path
         d="m 624.3307,2728.3465 a 34.7244,34.7244 0 1 1 69.4488,0 34.7244,34.7244 0 1 1 -69.4488,0 z"
         style="fill:none;stroke:#000000;stroke-width:10;stroke-linecap:round;stroke-linejoin:round;stroke-dasharray:none"
         id="path2682"
         inkscape:connector-curvature="0" />
    </g>
    <g
       transform="matrix(0.26458333,0,0,0.26458333,-97.110101,-361.37499)"
       id="Layer1271">
      <path
         d="m 651.2598,2728.3465 a 7.44095,7.44095 0 0 1 14.8819,0 7.44095,7.44095 0 0 1 -14.8819,0 z"
         style="fill:#000000;fill-rule:evenodd;stroke-width:6;stroke-linecap:round;stroke-linejoin:round"
         id="path2685"
         inkscape:connector-curvature="0" />
      <path
         d="m 651.2598,2728.3465 a 7.44095,7.44095 0 0 1 14.8819,0 7.44095,7.44095 0 0 1 -14.8819,0 z"
         style="fill:none;stroke:#000000;stroke-width:6;stroke-linecap:round;stroke-linejoin:round;stroke-dasharray:none"
         id="path2687"
         inkscape:connector-curvature="0" />
    </g>
    <path
       d="M 77.171152,360.50002 87.76491,351.875"
       style="fill:none;stroke:#000000;stroke-width:1.58749998;stroke-linecap:round;stroke-linejoin:round;stroke-dasharray:none"
       id="path2690"
       inkscape:connector-curvature="0" />
    <path
       d="m 88.514898,354.50001 -11.156262,6.09375 10.453502,-7.59375"
       style="fill:none;stroke:#000000;stroke-width:2.64583325;stroke-linecap:round;stroke-linejoin:round;stroke-dasharray:none"
       id="path2692"
       inkscape:connector-curvature="0" />
    <path
       d="m 77.264894,360.50002 12.375012,-4.50001"
       style="fill:none;stroke:#000000;stroke-width:1.58749998;stroke-linecap:round;stroke-linejoin:round;stroke-dasharray:none"
       id="path2694"
       inkscape:connector-curvature="0" />
    <path
       d="M 90.0149,357.50001 77.358636,360.59376 90.0149,356.37501"
       style="fill:none;stroke:#000000;stroke-width:1.58749998;stroke-linecap:round;stroke-linejoin:round;stroke-dasharray:none"
       id="path2696"
       inkscape:connector-curvature="0" />
    <path
       d="M 90.952398,360.59376 H 77.358636 l 13.031258,-1.59374"
       style="fill:none;stroke:#000000;stroke-width:1.58749998;stroke-linecap:round;stroke-linejoin:round;stroke-dasharray:none"
       id="path2698"
       inkscape:connector-curvature="0" />
    <path
       d="m 90.389894,363.5 -13.125,-2.99998 13.125,1.875"
       style="fill:none;stroke:#000000;stroke-width:1.58749998;stroke-linecap:round;stroke-linejoin:round;stroke-dasharray:none"
       id="path2700"
       inkscape:connector-curvature="0" />
    <path
       d="m 77.358636,360.59376 13.029856,0.97502"
       style="fill:none;stroke:#000000;stroke-width:1.58749998;stroke-linecap:round;stroke-linejoin:round;stroke-dasharray:none"
       id="path2702"
       inkscape:connector-curvature="0" />
    <path
       d="m 77.358636,360.59376 13.031258,3.65625"
       style="fill:none;stroke:#000000;stroke-width:1.58749998;stroke-linecap:round;stroke-linejoin:round;stroke-dasharray:none"
       id="path2704"
       inkscape:connector-curvature="0" />
    <path
       d="m 77.358636,360.59376 12.380965,4.18637"
       style="fill:none;stroke:#000000;stroke-width:1.58749998;stroke-linecap:round;stroke-linejoin:round;stroke-dasharray:none"
       id="path2706"
       inkscape:connector-curvature="0" />
    <path
       d="m 83.602405,360.50002 a 2.4375005,2.4375005 0 0 1 4.875001,0 2.4375005,2.4375005 0 0 1 -4.875001,0 z"
       style="fill:#ffffff;fill-rule:evenodd;stroke-width:0.26458332"
       id="path2708"
       inkscape:connector-curvature="0" />
    <path
       d="m 88.79615,367.92499 -11.531256,-7.42497 12.281244,5.92119"
       style="fill:none;stroke:#000000;stroke-width:1.58749998;stroke-linecap:round;stroke-linejoin:round;stroke-dasharray:none"
       id="path2710"
       inkscape:connector-curvature="0" />
    <path
       d="m 77.264894,360.50002 10.87501,8.17499"
       style="fill:none;stroke:#000000;stroke-width:1.58749998;stroke-linecap:round;stroke-linejoin:round;stroke-dasharray:none"
       id="path2712"
       inkscape:connector-curvature="0" />
    <path
       d="m 77.358636,360.59376 9.281265,9.13125"
       style="fill:none;stroke:#000000;stroke-width:2.64583325;stroke-linecap:round;stroke-linejoin:round;stroke-dasharray:none"
       id="path2714"
       inkscape:connector-curvature="0" />
  </g>
</svg>
