<?xml version="1.0" encoding="UTF-8" standalone="no"?>
<!-- Created with Inkscape (http://www.inkscape.org/) -->

<svg
   xmlns:dc="http://purl.org/dc/elements/1.1/"
   xmlns:cc="http://creativecommons.org/ns#"
   xmlns:rdf="http://www.w3.org/1999/02/22-rdf-syntax-ns#"
   xmlns:svg="http://www.w3.org/2000/svg"
   xmlns="http://www.w3.org/2000/svg"
   xmlns:sodipodi="http://sodipodi.sourceforge.net/DTD/sodipodi-0.dtd"
   xmlns:inkscape="http://www.inkscape.org/namespaces/inkscape"
   width="33.750011mm"
   height="33.749989mm"
   viewBox="0 0 33.750012 33.749988"
   version="1.1"
   id="svg5066"
   inkscape:version="0.92.3 (2405546, 2018-03-11)"
   sodipodi:docname="alarm.svg">
  <defs
     id="defs5060" />
  <sodipodi:namedview
     id="base"
     pagecolor="#ffffff"
     bordercolor="#666666"
     borderopacity="1.0"
     inkscape:pageopacity="0.0"
     inkscape:pageshadow="2"
     inkscape:zoom="0.35"
     inkscape:cx="63.779549"
     inkscape:cy="63.779517"
     inkscape:document-units="mm"
     inkscape:current-layer="layer1"
     showgrid="false"
     fit-margin-top="0"
     fit-margin-left="0"
     fit-margin-right="0"
     fit-margin-bottom="0"
     inkscape:window-width="548"
     inkscape:window-height="561"
     inkscape:window-x="1005"
     inkscape:window-y="30"
     inkscape:window-maximized="0" />
  <metadata
     id="metadata5063">
    <rdf:RDF>
      <cc:Work
         rdf:about="">
        <dc:format>image/svg+xml</dc:format>
        <dc:type
           rdf:resource="http://purl.org/dc/dcmitype/StillImage" />
        <dc:title></dc:title>
      </cc:Work>
    </rdf:RDF>
  </metadata>
  <g
     inkscape:label="Layer 1"
     inkscape:groupmode="layer"
     id="layer1"
     transform="translate(-60.389888,-343.62501)">
    <g
       transform="matrix(0.26458333,0,0,0.26458333,-59.610109,-509.49998)"
       id="Layer1375">
      <path
         d="M 572.5984,3224.4094 H 462.0472 q -8.5039,0 -8.5039,8.504 v 110.5512 q 0,8.5039 8.5039,8.5039 h 110.5512 q 8.504,0 8.504,-8.5039 v -110.5512 q 0,-8.504 -8.504,-8.504 z"
         style="fill:#ff0000;fill-rule:evenodd;stroke-width:0.23999999;stroke-linecap:round;stroke-linejoin:round"
         id="path3483"
         inkscape:connector-curvature="0" />
      <path
         d="M 572.5984,3224.4094 H 462.0472 q -8.5039,0 -8.5039,8.504 v 110.5512 q 0,8.5039 8.5039,8.5039 h 110.5512 q 8.504,0 8.504,-8.5039 v -110.5512 q 0,-8.504 -8.504,-8.504 z"
         style="fill:none;stroke:#ffffff;stroke-width:0.23999999;stroke-linecap:round;stroke-linejoin:round;stroke-dasharray:none"
         id="path3485"
         inkscape:connector-curvature="0" />
    </g>
    <g
       transform="matrix(0.26458333,0,0,0.26458333,-59.610109,-509.49998)"
       id="Layer1376">
      <path
         d="m 547.4916,3280.3937 h -54.6682 v 28.0427 h 54.6682 z"
         style="fill:#000000;fill-rule:evenodd;stroke-width:0.23999999;stroke-linecap:round;stroke-linejoin:round"
         id="path3488"
         inkscape:connector-curvature="0" />
      <path
         d="m 547.4916,3280.3937 h -54.6682 v 28.0427 h 54.6682 z"
         style="fill:none;stroke:#000000;stroke-width:0.23999999;stroke-linecap:round;stroke-linejoin:round;stroke-dasharray:none"
         id="path3490"
         inkscape:connector-curvature="0" />
    </g>
    <g
       transform="matrix(0.26458333,0,0,0.26458333,-59.610109,-509.49998)"
       id="Layer1377">
      <path
         d="m 511.6535,3273.8335 a 3.9483,10.9336 -180 0 1 -7.8965,0 3.9483,10.9336 -180 0 1 7.8965,0 z"
         style="fill:#e8eef7;fill-rule:evenodd;stroke-width:0.23999999;stroke-linecap:round;stroke-linejoin:round"
         id="path3493"
         inkscape:connector-curvature="0" />
      <path
         d="m 511.6535,3273.8335 a 3.9483,10.9336 -180 0 1 -7.8965,0 3.9483,10.9336 -180 0 1 7.8965,0 z"
         style="fill:none;stroke:#000000;stroke-width:0.23999999;stroke-linecap:round;stroke-linejoin:round;stroke-dasharray:none"
         id="path3495"
         inkscape:connector-curvature="0" />
    </g>
    <path
       d="m 80.63988,369.92859 a 2.2499902,2.5714325 0 0 1 -4.49998,0 2.2499902,2.5714325 0 1 1 4.49998,0 z"
       style="fill:#ffffff;fill-rule:evenodd;stroke-width:0.26458332"
       id="path3498"
       inkscape:connector-curvature="0" />
    <g
       transform="matrix(0.26458333,0,0,0.26458333,-59.610109,-509.49998)"
       id="Layer1378">
      <path
         d="m 550.7717,3306.6344 h -61.2284 q -7.6535,0 -7.6535,7.6536 0,7.6535 7.6535,7.6535 h 61.2284 q 7.6535,0 7.6535,-7.6535 0,-7.6536 -7.6535,-7.6536 z"
         style="fill:#000000;fill-rule:evenodd;stroke-width:0.23999999;stroke-linecap:round;stroke-linejoin:round"
         id="path3500"
         inkscape:connector-curvature="0" />
      <path
         d="m 550.7717,3306.6344 h -61.2284 q -7.6535,0 -7.6535,7.6536 0,7.6535 7.6535,7.6535 h 61.2284 q 7.6535,0 7.6535,-7.6535 0,-7.6536 -7.6535,-7.6536 z"
         style="fill:none;stroke:#000000;stroke-width:0.23999999;stroke-linecap:round;stroke-linejoin:round;stroke-dasharray:none"
         id="path3502"
         inkscape:connector-curvature="0" />
    </g>
    <g
       transform="matrix(0.26458333,0,0,0.26458333,-59.610109,-509.49998)"
       id="Layer1379">
      <path
         d="m 558.4252,3313.1946 h -76.5354 v 10.9336 h 76.5354 z"
         style="fill:#000000;fill-rule:evenodd;stroke-width:0.23999999;stroke-linecap:round;stroke-linejoin:round"
         id="path3505"
         inkscape:connector-curvature="0" />
      <path
         d="m 558.4252,3313.1946 h -76.5354 v 10.9336 h 76.5354 z"
         style="fill:none;stroke:#000000;stroke-width:0.23999999;stroke-linecap:round;stroke-linejoin:round;stroke-dasharray:none"
         id="path3507"
         inkscape:connector-curvature="0" />
    </g>
    <g
       transform="matrix(0.26458333,0,0,0.26458333,-59.610109,-509.49998)"
       id="Layer1380">
      <path
         d="m 526.9404,3252.5534 a 6.7829,12.5534 -180 0 1 -13.5658,0 6.7829,12.5534 -180 0 1 13.5658,0 z"
         style="fill:#000000;fill-rule:evenodd;stroke-width:0.23999999;stroke-linecap:round;stroke-linejoin:round"
         id="path3510"
         inkscape:connector-curvature="0" />
      <path
         d="m 526.9404,3252.5534 a 6.7829,12.5534 -180 0 1 -13.5658,0 6.7829,12.5534 -180 0 1 13.5658,0 z"
         style="fill:none;stroke:#000000;stroke-width:0.23999999;stroke-linecap:round;stroke-linejoin:round;stroke-dasharray:none"
         id="path3512"
         inkscape:connector-curvature="0" />
    </g>
    <g
       transform="matrix(0.26458333,0,0,0.26458333,-59.610109,-509.49998)"
       id="Layer1381">
      <path
         d="m 522.6378,3253.0596 h -4.9606 q -24.8538,0 -24.8538,24.8538 0,24.8538 24.8538,24.8538 h 4.9606 q 24.8538,0 24.8538,-24.8538 0,-24.8538 -24.8538,-24.8538 z"
         style="fill:#000000;fill-rule:evenodd;stroke-width:0.23999999;stroke-linecap:round;stroke-linejoin:round"
         id="path3515"
         inkscape:connector-curvature="0" />
      <path
         d="m 522.6378,3253.0596 h -4.9606 q -24.8538,0 -24.8538,24.8538 0,24.8538 24.8538,24.8538 h 4.9606 q 24.8538,0 24.8538,-24.8538 0,-24.8538 -24.8538,-24.8538 z"
         style="fill:none;stroke:#000000;stroke-width:0.23999999;stroke-linecap:round;stroke-linejoin:round;stroke-dasharray:none"
         id="path3517"
         inkscape:connector-curvature="0" />
    </g>
    <g
       transform="matrix(0.26458333,0,0,0.26458333,-59.610109,-509.49998)"
       id="Layer1382">
      <path
         d="m 481.1602,3263.426 -12.0263,-12.0264 z"
         style="fill:#ffffff;fill-rule:evenodd;stroke-width:6;stroke-linecap:round;stroke-linejoin:round"
         id="path3520"
         inkscape:connector-curvature="0" />
      <path
         d="m 481.1602,3263.426 -12.0263,-12.0264 z"
         style="fill:none;stroke:#ffffff;stroke-width:6;stroke-linecap:round;stroke-linejoin:round;stroke-dasharray:none"
         id="path3522"
         inkscape:connector-curvature="0" />
    </g>
    <g
       transform="matrix(0.26458333,0,0,0.26458333,-59.610109,-509.49998)"
       id="Layer1383">
      <path
         d="m 481.9577,3290.0112 -14.1317,8.159 z"
         style="fill:#ffffff;fill-rule:evenodd;stroke-width:6;stroke-linecap:round;stroke-linejoin:round"
         id="path3525"
         inkscape:connector-curvature="0" />
      <path
         d="m 481.9577,3290.0112 -14.1317,8.159 z"
         style="fill:none;stroke:#ffffff;stroke-width:6;stroke-linecap:round;stroke-linejoin:round;stroke-dasharray:none"
         id="path3527"
         inkscape:connector-curvature="0" />
    </g>
    <g
       transform="matrix(0.26458333,0,0,0.26458333,-59.610109,-509.49998)"
       id="Layer1384">
      <path
         d="m 557.6213,3290.0112 12.9464,7.4746 z"
         style="fill:#ffffff;fill-rule:evenodd;stroke-width:6;stroke-linecap:round;stroke-linejoin:round"
         id="path3530"
         inkscape:connector-curvature="0" />
      <path
         d="m 557.6213,3290.0112 12.9464,7.4746 z"
         style="fill:none;stroke:#ffffff;stroke-width:6;stroke-linecap:round;stroke-linejoin:round;stroke-dasharray:none"
         id="path3532"
         inkscape:connector-curvature="0" />
    </g>
    <g
       transform="matrix(0.26458333,0,0,0.26458333,-59.610109,-509.49998)"
       id="Layer1385">
      <path
         d="m 556.0465,3259.5125 10.4267,-10.4267 z"
         style="fill:#ffffff;fill-rule:evenodd;stroke-width:6;stroke-linecap:round;stroke-linejoin:round"
         id="path3535"
         inkscape:connector-curvature="0" />
      <path
         d="m 556.0465,3259.5125 10.4267,-10.4267 z"
         style="fill:none;stroke:#ffffff;stroke-width:6;stroke-linecap:round;stroke-linejoin:round;stroke-dasharray:none"
         id="path3537"
         inkscape:connector-curvature="0" />
    </g>
    <g
       transform="matrix(0.26458333,0,0,0.26458333,-59.610109,-509.49998)"
       id="Layer1386">
      <path
         d="m 480.0872,3276.0949 -15.2053,0.027 z"
         style="fill:#ffffff;fill-rule:evenodd;stroke-width:6;stroke-linecap:round;stroke-linejoin:round"
         id="path3540"
         inkscape:connector-curvature="0" />
      <path
         d="m 480.0872,3276.0949 -15.2053,0.027 z"
         style="fill:none;stroke:#ffffff;stroke-width:6;stroke-linecap:round;stroke-linejoin:round;stroke-dasharray:none"
         id="path3542"
         inkscape:connector-curvature="0" />
    </g>
    <g
       transform="matrix(0.26458333,0,0,0.26458333,-59.610109,-509.49998)"
       id="Layer1387">
      <path
         d="m 572.0315,3274.3942 -15.2053,0.026 z"
         style="fill:#ffffff;fill-rule:evenodd;stroke-width:6;stroke-linecap:round;stroke-linejoin:round"
         id="path3545"
         inkscape:connector-curvature="0" />
      <path
         d="m 572.0315,3274.3942 -15.2053,0.026 z"
         style="fill:none;stroke:#ffffff;stroke-width:6;stroke-linecap:round;stroke-linejoin:round;stroke-dasharray:none"
         id="path3547"
         inkscape:connector-curvature="0" />
    </g>
    <path
       d="m 73.675597,361.55003 a 1.5199519,4.1253833 15.3842 0 1 0,-4.84823"
       style="fill:none;stroke:#ffffff;stroke-width:1.58749998;stroke-linecap:round;stroke-linejoin:round;stroke-dasharray:none"
       id="path3704"
       inkscape:connector-curvature="0" />
  </g>
</svg>
