<?xml version="1.0" encoding="UTF-8" standalone="no"?>
<!-- Created with Inkscape (http://www.inkscape.org/) -->

<svg
   xmlns:dc="http://purl.org/dc/elements/1.1/"
   xmlns:cc="http://creativecommons.org/ns#"
   xmlns:rdf="http://www.w3.org/1999/02/22-rdf-syntax-ns#"
   xmlns:svg="http://www.w3.org/2000/svg"
   xmlns="http://www.w3.org/2000/svg"
   xmlns:sodipodi="http://sodipodi.sourceforge.net/DTD/sodipodi-0.dtd"
   xmlns:inkscape="http://www.inkscape.org/namespaces/inkscape"
   width="33.750011mm"
   height="33.749989mm"
   viewBox="0 0 33.750012 33.749988"
   version="1.1"
   id="svg5066"
   inkscape:version="0.92.3 (2405546, 2018-03-11)"
   sodipodi:docname="lost.svg">
  <defs
     id="defs5060" />
  <sodipodi:namedview
     id="base"
     pagecolor="#ffffff"
     bordercolor="#666666"
     borderopacity="1.0"
     inkscape:pageopacity="0.0"
     inkscape:pageshadow="2"
     inkscape:zoom="0.35"
     inkscape:cx="63.779549"
     inkscape:cy="63.779517"
     inkscape:document-units="mm"
     inkscape:current-layer="layer1"
     showgrid="false"
     fit-margin-top="0"
     fit-margin-left="0"
     fit-margin-right="0"
     fit-margin-bottom="0"
     inkscape:window-width="548"
     inkscape:window-height="561"
     inkscape:window-x="1005"
     inkscape:window-y="30"
     inkscape:window-maximized="0" />
  <metadata
     id="metadata5063">
    <rdf:RDF>
      <cc:Work
         rdf:about="">
        <dc:format>image/svg+xml</dc:format>
        <dc:type
           rdf:resource="http://purl.org/dc/dcmitype/StillImage" />
        <dc:title></dc:title>
      </cc:Work>
    </rdf:RDF>
  </metadata>
  <g
     inkscape:label="Layer 1"
     inkscape:groupmode="layer"
     id="layer1"
     transform="translate(-60.389888,-343.62501)">
    <g
       transform="matrix(0.26458333,0,0,0.26458333,15.389899,-509.49998)"
       id="Layer1395">
      <path
         d="M 289.1339,3224.4094 H 178.5827 q -8.504,0 -8.504,8.504 v 110.5512 q 0,8.5039 8.504,8.5039 h 110.5512 q 8.5039,0 8.5039,-8.5039 v -110.5512 q 0,-8.504 -8.5039,-8.504 z"
         style="fill:#ffc000;fill-rule:evenodd;stroke-width:0.23999999;stroke-linecap:round;stroke-linejoin:round"
         id="path3587"
         inkscape:connector-curvature="0" />
      <path
         d="M 289.1339,3224.4094 H 178.5827 q -8.504,0 -8.504,8.504 v 110.5512 q 0,8.5039 8.504,8.5039 h 110.5512 q 8.5039,0 8.5039,-8.5039 v -110.5512 q 0,-8.504 -8.5039,-8.504 z"
         style="fill:none;stroke:#ffffff;stroke-width:0.23999999;stroke-linecap:round;stroke-linejoin:round;stroke-dasharray:none"
         id="path3589"
         inkscape:connector-curvature="0" />
    </g>
    <g
       transform="matrix(0.26458333,0,0,0.26458333,15.389899,-509.49998)"
       id="Layer1396">
      <path
         d="m 264.027,3280.3937 h -54.6682 v 28.0427 h 54.6682 z"
         style="fill:#000000;fill-rule:evenodd;stroke-width:0.23999999;stroke-linecap:round;stroke-linejoin:round"
         id="path3592"
         inkscape:connector-curvature="0" />
      <path
         d="m 264.027,3280.3937 h -54.6682 v 28.0427 h 54.6682 z"
         style="fill:none;stroke:#000000;stroke-width:0.23999999;stroke-linecap:round;stroke-linejoin:round;stroke-dasharray:none"
         id="path3594"
         inkscape:connector-curvature="0" />
    </g>
    <g
       transform="matrix(0.26458333,0,0,0.26458333,15.389899,-509.49998)"
       id="Layer1397">
      <path
         d="m 228.189,3273.8335 a 3.9483,10.9336 -180 0 1 -7.8965,0 3.9483,10.9336 -180 0 1 7.8965,0 z"
         style="fill:#e8eef7;fill-rule:evenodd;stroke-width:0.23999999;stroke-linecap:round;stroke-linejoin:round"
         id="path3597"
         inkscape:connector-curvature="0" />
      <path
         d="m 228.189,3273.8335 a 3.9483,10.9336 -180 0 1 -7.8965,0 3.9483,10.9336 -180 0 1 7.8965,0 z"
         style="fill:none;stroke:#000000;stroke-width:0.23999999;stroke-linecap:round;stroke-linejoin:round;stroke-dasharray:none"
         id="path3599"
         inkscape:connector-curvature="0" />
    </g>
    <path
       d="m 80.639906,369.92859 a 2.2500035,2.5714477 0 1 1 -4.500007,0 2.2500035,2.5714477 0 1 1 4.500007,0 z"
       style="fill:#ffffff;fill-rule:evenodd;stroke-width:0.26458332"
       id="path3602"
       inkscape:connector-curvature="0" />
    <g
       transform="matrix(0.26458333,0,0,0.26458333,15.389899,-509.49998)"
       id="Layer1398">
      <path
         d="m 267.3071,3306.6344 h -61.2284 q -7.6535,0 -7.6535,7.6536 0,7.6535 7.6535,7.6535 h 61.2284 q 7.6535,0 7.6535,-7.6535 0,-7.6536 -7.6535,-7.6536 z"
         style="fill:#000000;fill-rule:evenodd;stroke-width:0.23999999;stroke-linecap:round;stroke-linejoin:round"
         id="path3604"
         inkscape:connector-curvature="0" />
      <path
         d="m 267.3071,3306.6344 h -61.2284 q -7.6535,0 -7.6535,7.6536 0,7.6535 7.6535,7.6535 h 61.2284 q 7.6535,0 7.6535,-7.6535 0,-7.6536 -7.6535,-7.6536 z"
         style="fill:none;stroke:#000000;stroke-width:0.23999999;stroke-linecap:round;stroke-linejoin:round;stroke-dasharray:none"
         id="path3606"
         inkscape:connector-curvature="0" />
    </g>
    <g
       transform="matrix(0.26458333,0,0,0.26458333,15.389899,-509.49998)"
       id="Layer1399">
      <path
         d="m 274.9606,3313.1946 h -76.5354 v 10.9336 h 76.5354 z"
         style="fill:#000000;fill-rule:evenodd;stroke-width:0.23999999;stroke-linecap:round;stroke-linejoin:round"
         id="path3609"
         inkscape:connector-curvature="0" />
      <path
         d="m 274.9606,3313.1946 h -76.5354 v 10.9336 h 76.5354 z"
         style="fill:none;stroke:#000000;stroke-width:0.23999999;stroke-linecap:round;stroke-linejoin:round;stroke-dasharray:none"
         id="path3611"
         inkscape:connector-curvature="0" />
    </g>
    <g
       transform="matrix(0.26458333,0,0,0.26458333,15.389899,-509.49998)"
       id="Layer1400">
      <path
         d="m 243.4758,3252.5534 a 6.7829,12.5534 -180 0 1 -13.5658,0 6.7829,12.5534 -180 0 1 13.5658,0 z"
         style="fill:#000000;fill-rule:evenodd;stroke-width:0.23999999;stroke-linecap:round;stroke-linejoin:round"
         id="path3614"
         inkscape:connector-curvature="0" />
      <path
         d="m 243.4758,3252.5534 a 6.7829,12.5534 -180 0 1 -13.5658,0 6.7829,12.5534 -180 0 1 13.5658,0 z"
         style="fill:none;stroke:#000000;stroke-width:0.23999999;stroke-linecap:round;stroke-linejoin:round;stroke-dasharray:none"
         id="path3616"
         inkscape:connector-curvature="0" />
    </g>
    <g
       transform="matrix(0.26458333,0,0,0.26458333,15.389899,-509.49998)"
       id="Layer1401">
      <path
         d="m 239.1732,3253.0596 h -4.9606 q -24.8538,0 -24.8538,24.8538 0,24.8538 24.8538,24.8538 h 4.9606 q 24.8538,0 24.8538,-24.8538 0,-24.8538 -24.8538,-24.8538 z"
         style="fill:#000000;fill-rule:evenodd;stroke-width:0.23999999;stroke-linecap:round;stroke-linejoin:round"
         id="path3619"
         inkscape:connector-curvature="0" />
      <path
         d="m 239.1732,3253.0596 h -4.9606 q -24.8538,0 -24.8538,24.8538 0,24.8538 24.8538,24.8538 h 4.9606 q 24.8538,0 24.8538,-24.8538 0,-24.8538 -24.8538,-24.8538 z"
         style="fill:none;stroke:#000000;stroke-width:0.23999999;stroke-linecap:round;stroke-linejoin:round;stroke-dasharray:none"
         id="path3621"
         inkscape:connector-curvature="0" />
    </g>
    <path
       d="m 73.675623,361.55003 a 1.5199519,4.1253833 15.3842 0 1 0,-4.84823"
       style="fill:none;stroke:#ffffff;stroke-width:1.58749998;stroke-linecap:round;stroke-linejoin:round;stroke-dasharray:none"
       id="path3700"
       inkscape:connector-curvature="0" />
  </g>
</svg>
