<?xml version="1.0" encoding="UTF-8" standalone="no"?>
<!-- Created with Inkscape (http://www.inkscape.org/) -->

<svg
   xmlns:dc="http://purl.org/dc/elements/1.1/"
   xmlns:cc="http://creativecommons.org/ns#"
   xmlns:rdf="http://www.w3.org/1999/02/22-rdf-syntax-ns#"
   xmlns:svg="http://www.w3.org/2000/svg"
   xmlns="http://www.w3.org/2000/svg"
   xmlns:sodipodi="http://sodipodi.sourceforge.net/DTD/sodipodi-0.dtd"
   xmlns:inkscape="http://www.inkscape.org/namespaces/inkscape"
   width="33.750011mm"
   height="33.750011mm"
   viewBox="0 0 33.750013 33.750011"
   version="1.1"
   id="svg5086"
   inkscape:version="0.92.3 (2405546, 2018-03-11)"
   sodipodi:docname="ok.svg">
  <defs
     id="defs5080" />
  <sodipodi:namedview
     id="base"
     pagecolor="#ffffff"
     bordercolor="#666666"
     borderopacity="1.0"
     inkscape:pageopacity="0.0"
     inkscape:pageshadow="2"
     inkscape:zoom="0.35"
     inkscape:cx="63.779548"
     inkscape:cy="63.779531"
     inkscape:document-units="mm"
     inkscape:current-layer="layer1"
     showgrid="false"
     fit-margin-top="0"
     fit-margin-left="0"
     fit-margin-right="0"
     fit-margin-bottom="0"
     inkscape:window-width="460"
     inkscape:window-height="403"
     inkscape:window-x="1392"
     inkscape:window-y="8"
     inkscape:window-maximized="0" />
  <metadata
     id="metadata5083">
    <rdf:RDF>
      <cc:Work
         rdf:about="">
        <dc:format>image/svg+xml</dc:format>
        <dc:type
           rdf:resource="http://purl.org/dc/dcmitype/StillImage" />
        <dc:title></dc:title>
      </cc:Work>
    </rdf:RDF>
  </metadata>
  <g
     inkscape:label="Layer 1"
     inkscape:groupmode="layer"
     id="layer1"
     transform="translate(-88.958328,-131.95833)">
    <path
       d="m 91.208332,165.70834 h 29.249998 q 2.24999,0 2.24999,-2.24999 v -29.25001 q 0,-2.24999 -2.24999,-2.24999 H 91.208332 q -2.24999,0 -2.24999,2.24999 v 29.25001 q 0,2.24999 2.24999,2.24999 z"
       style="fill:#00db00;fill-rule:evenodd;stroke-width:0.26458332"
       id="path642"
       inkscape:connector-curvature="0" />
    <g
       transform="matrix(0.26458333,0,0,0.26458333,81.458331,-169.91665)"
       id="Layer1040">
      <path
         d="m 106.8826,1238.1155 a 12.9625,12.2 -180 1 1 -12.9625,-12.1999 12.9625,12.2 -180 0 1 12.9625,12.1999 z"
         style="fill:#000000;fill-rule:evenodd;stroke-width:0.75;stroke-linecap:round;stroke-linejoin:round"
         id="path648"
         inkscape:connector-curvature="0" />
      <path
         d="m 106.8826,1238.1155 a 12.9625,12.2 -180 1 1 -12.9625,-12.1999 12.9625,12.2 -180 0 1 12.9625,12.1999 z"
         style="fill:none;stroke:#000000;stroke-width:0.75;stroke-linecap:round;stroke-linejoin:round;stroke-dasharray:none"
         id="path650"
         inkscape:connector-curvature="0" />
    </g>
    <g
       transform="matrix(0.26458333,0,0,0.26458333,81.458331,-169.91665)"
       id="Layer1041">
      <path
         d="m 80.9576,1237.353 h 25.925 v -13.9791 h -25.925 z"
         style="fill:#000000;fill-rule:evenodd;stroke-width:0.75;stroke-linecap:round;stroke-linejoin:round"
         id="path653"
         inkscape:connector-curvature="0" />
      <path
         d="m 80.9576,1237.353 h 25.925 v -13.9791 h -25.925 z"
         style="fill:none;stroke:#000000;stroke-width:0.75;stroke-linecap:round;stroke-linejoin:round;stroke-dasharray:none"
         id="path655"
         inkscape:connector-curvature="0" />
    </g>
    <g
       transform="matrix(0.26458333,0,0,0.26458333,81.458331,-169.91665)"
       id="Layer1042">
      <path
         d="m 108.6456,1182.1595 a 17.7916,29.2291 170 1 1 -22.5969,-25.6955 17.7916,29.2291 170 0 1 22.5969,25.6955 z"
         style="fill:#000000;fill-rule:evenodd;stroke-width:0.75;stroke-linecap:round;stroke-linejoin:round"
         id="path658"
         inkscape:connector-curvature="0" />
      <path
         d="m 108.6456,1182.1595 a 17.7916,29.2291 170 1 1 -22.5969,-25.6955 17.7916,29.2291 170 0 1 22.5969,25.6955 z"
         style="fill:none;stroke:#000000;stroke-width:0.75;stroke-linecap:round;stroke-linejoin:round;stroke-dasharray:none"
         id="path660"
         inkscape:connector-curvature="0" />
    </g>
    <g
       transform="matrix(0.26458333,0,0,0.26458333,81.458331,-169.91665)"
       id="Layer1043">
      <path
         d="m 80.9576,1216.7656 h 25.4166 v -21.3499 H 80.9576 Z"
         style="fill:#000000;fill-rule:evenodd;stroke-width:0.75;stroke-linecap:round;stroke-linejoin:round"
         id="path663"
         inkscape:connector-curvature="0" />
      <path
         d="m 80.9576,1216.7656 h 25.4166 v -21.3499 H 80.9576 Z"
         style="fill:none;stroke:#000000;stroke-width:0.75;stroke-linecap:round;stroke-linejoin:round;stroke-dasharray:none"
         id="path665"
         inkscape:connector-curvature="0" />
    </g>
    <path
       d="m 99.901244,154.17443 a 1.681189,3.6986369 0 0 1 -1.681189,-3.69863 1.681189,3.6986369 0 0 1 1.681189,-3.69867"
       style="fill:none;stroke:#ffffff;stroke-width:1.19062495;stroke-linecap:round;stroke-linejoin:round;stroke-dasharray:none"
       id="path668"
       inkscape:connector-curvature="0" />
    <path
       d="m 99.060663,156.86435 a 3.3624044,6.2204335 0 0 1 -3.362405,-6.22044 3.3624044,6.2204335 0 0 1 3.362405,-6.22046"
       style="fill:none;stroke:#000000;stroke-width:1.19062495;stroke-linecap:round;stroke-linejoin:round;stroke-dasharray:none"
       id="path670"
       inkscape:connector-curvature="0" />
    <path
       d="m 97.379447,159.21803 a 4.3711283,8.4059977 0 0 1 -4.371128,-8.406 4.3711283,8.4059977 0 0 1 4.371128,-8.406"
       style="fill:none;stroke:#ffffff;stroke-width:1.19062495;stroke-linecap:round;stroke-linejoin:round;stroke-dasharray:none"
       id="path672"
       inkscape:connector-curvature="0" />
    <path
       d="m 112.17402,146.77713 a 1.681189,3.6986369 0 0 1 1.68121,3.69867 1.681189,3.6986369 0 0 1 -1.68121,3.69863"
       style="fill:none;stroke:#ffffff;stroke-width:1.19062495;stroke-linecap:round;stroke-linejoin:round;stroke-dasharray:none"
       id="path674"
       inkscape:connector-curvature="0" />
    <path
       d="m 113.01463,144.25534 a 3.3624044,6.2204335 0 0 1 3.3624,6.22046 3.3624044,6.2204335 0 0 1 -3.3624,6.22043"
       style="fill:none;stroke:#000000;stroke-width:1.19062495;stroke-linecap:round;stroke-linejoin:round;stroke-dasharray:none"
       id="path676"
       inkscape:connector-curvature="0" />
    <path
       d="m 114.66221,142.33877 a 4.3711283,8.4059977 0 0 1 4.3711,8.406 4.3711283,8.4059977 0 0 1 -4.3711,8.40603"
       style="fill:none;stroke:#ffffff;stroke-width:1.19062495;stroke-linecap:round;stroke-linejoin:round;stroke-dasharray:none"
       id="path678"
       inkscape:connector-curvature="0" />
  </g>
</svg>
