<?xml version="1.0" encoding="UTF-8" standalone="no"?>
<!-- Created with Inkscape (http://www.inkscape.org/) -->

<svg
   xmlns:dc="http://purl.org/dc/elements/1.1/"
   xmlns:cc="http://creativecommons.org/ns#"
   xmlns:rdf="http://www.w3.org/1999/02/22-rdf-syntax-ns#"
   xmlns:svg="http://www.w3.org/2000/svg"
   xmlns="http://www.w3.org/2000/svg"
   xmlns:sodipodi="http://sodipodi.sourceforge.net/DTD/sodipodi-0.dtd"
   xmlns:inkscape="http://www.inkscape.org/namespaces/inkscape"
   width="33.750011mm"
   height="33.749989mm"
   viewBox="0 0 33.750012 33.749988"
   version="1.1"
   id="svg5066"
   inkscape:version="0.92.3 (2405546, 2018-03-11)"
   sodipodi:docname="error.svg">
  <defs
     id="defs5060" />
  <sodipodi:namedview
     id="base"
     pagecolor="#ffffff"
     bordercolor="#666666"
     borderopacity="1.0"
     inkscape:pageopacity="0.0"
     inkscape:pageshadow="2"
     inkscape:zoom="0.35"
     inkscape:cx="63.779549"
     inkscape:cy="63.779517"
     inkscape:document-units="mm"
     inkscape:current-layer="layer1"
     showgrid="false"
     fit-margin-top="0"
     fit-margin-left="0"
     fit-margin-right="0"
     fit-margin-bottom="0"
     inkscape:window-width="548"
     inkscape:window-height="561"
     inkscape:window-x="1005"
     inkscape:window-y="30"
     inkscape:window-maximized="0" />
  <metadata
     id="metadata5063">
    <rdf:RDF>
      <cc:Work
         rdf:about="">
        <dc:format>image/svg+xml</dc:format>
        <dc:type
           rdf:resource="http://purl.org/dc/dcmitype/StillImage" />
        <dc:title></dc:title>
      </cc:Work>
    </rdf:RDF>
  </metadata>
  <g
     inkscape:label="Layer 1"
     inkscape:groupmode="layer"
     id="layer1"
     transform="translate(-60.389888,-343.62501)">
    <g
       transform="matrix(0.26458333,0,0,0.26458333,-22.110105,-550.74999)"
       id="Layer1428">
      <path
         d="M 430.8661,3380.315 H 320.315 q -8.504,0 -8.504,8.5039 v 110.5512 q 0,8.5039 8.504,8.5039 h 110.5511 q 8.504,0 8.504,-8.5039 v -110.5512 q 0,-8.5039 -8.504,-8.5039 z"
         style="fill:#0f2dfb;fill-rule:evenodd;stroke-width:0.23999999;stroke-linecap:round;stroke-linejoin:round"
         id="path3778"
         inkscape:connector-curvature="0" />
      <path
         d="M 430.8661,3380.315 H 320.315 q -8.504,0 -8.504,8.5039 v 110.5512 q 0,8.5039 8.504,8.5039 h 110.5511 q 8.504,0 8.504,-8.5039 v -110.5512 q 0,-8.5039 -8.504,-8.5039 z"
         style="fill:none;stroke:#ffffff;stroke-width:0.23999999;stroke-linecap:round;stroke-linejoin:round;stroke-dasharray:none"
         id="path3780"
         inkscape:connector-curvature="0" />
    </g>
    <path
       d="m 93.099877,353.04141 -31.319391,-6.88007 12.214119,29.64887 z"
       style="fill:#ffffff;fill-rule:evenodd;stroke-width:0.26458332"
       id="path3783"
       inkscape:connector-curvature="0" />
    <g
       transform="matrix(0.26458333,0,0,0.26458333,-22.110105,-550.74999)"
       id="Layer1429">
      <path
         d="m 348.8046,3396.7592 -33.7892,-8.5332 14.2709,31.7941 z"
         style="fill:#000000;fill-rule:evenodd;stroke-width:0.23999999;stroke-linecap:round;stroke-linejoin:round"
         id="path3785"
         inkscape:connector-curvature="0" />
      <path
         d="m 348.8046,3396.7592 -33.7892,-8.5332 14.2709,31.7941 z"
         style="fill:none;stroke:#000000;stroke-width:0.23999999;stroke-linecap:round;stroke-linejoin:round;stroke-dasharray:none"
         id="path3787"
         inkscape:connector-curvature="0" />
    </g>
    <g
       transform="matrix(0.26458333,0,0,0.26458333,-22.110105,-550.74999)"
       id="Layer1430">
      <path
         d="m 325.9843,3402.2835 a 6.378,6.378 0 0 1 12.7559,0 6.378,6.378 0 0 1 -12.7559,0 z"
         style="fill:#ffffff;fill-rule:evenodd;stroke-width:0.23999999;stroke-linecap:round;stroke-linejoin:round"
         id="path3790"
         inkscape:connector-curvature="0" />
      <path
         d="m 325.9843,3402.2835 a 6.378,6.378 0 0 1 12.7559,0 6.378,6.378 0 0 1 -12.7559,0 z"
         style="fill:none;stroke:#000000;stroke-width:0.23999999;stroke-linecap:round;stroke-linejoin:round;stroke-dasharray:none"
         id="path3792"
         inkscape:connector-curvature="0" />
    </g>
  </g>
</svg>
