<?xml version="1.0" encoding="UTF-8" standalone="no"?>
<!-- Created with Inkscape (http://www.inkscape.org/) -->

<svg
   xmlns:dc="http://purl.org/dc/elements/1.1/"
   xmlns:cc="http://creativecommons.org/ns#"
   xmlns:rdf="http://www.w3.org/1999/02/22-rdf-syntax-ns#"
   xmlns:svg="http://www.w3.org/2000/svg"
   xmlns="http://www.w3.org/2000/svg"
   xmlns:sodipodi="http://sodipodi.sourceforge.net/DTD/sodipodi-0.dtd"
   xmlns:inkscape="http://www.inkscape.org/namespaces/inkscape"
   width="33.750011mm"
   height="33.749989mm"
   viewBox="0 0 33.750013 33.749988"
   version="1.1"
   id="svg5066"
   inkscape:version="0.92.3 (2405546, 2018-03-11)"
   sodipodi:docname="ok.svg">
  <defs
     id="defs5060" />
  <sodipodi:namedview
     id="base"
     pagecolor="#ffffff"
     bordercolor="#666666"
     borderopacity="1.0"
     inkscape:pageopacity="0.0"
     inkscape:pageshadow="2"
     inkscape:zoom="0.35"
     inkscape:cx="63.779549"
     inkscape:cy="63.7795"
     inkscape:document-units="mm"
     inkscape:current-layer="layer1"
     showgrid="false"
     fit-margin-top="0"
     fit-margin-left="0"
     fit-margin-right="0"
     fit-margin-bottom="0"
     inkscape:window-width="548"
     inkscape:window-height="561"
     inkscape:window-x="1005"
     inkscape:window-y="30"
     inkscape:window-maximized="0" />
  <metadata
     id="metadata5063">
    <rdf:RDF>
      <cc:Work
         rdf:about="">
        <dc:format>image/svg+xml</dc:format>
        <dc:type
           rdf:resource="http://purl.org/dc/dcmitype/StillImage" />
        <dc:title></dc:title>
      </cc:Work>
    </rdf:RDF>
  </metadata>
  <g
     inkscape:label="Layer 1"
     inkscape:groupmode="layer"
     id="layer1"
     transform="translate(-60.389889,-343.625)">
    <path
       d="m 62.639892,377.375 h 29.250005 q 2.24999,0 2.24999,-2.25001 v -29.25001 q 0,-2.24999 -2.24999,-2.24999 H 62.639892 q -2.24999,0 -2.24999,2.24999 v 29.25001 q 0,2.25001 2.24999,2.25001 z"
       style="fill:#00db00;fill-rule:evenodd;stroke-width:0.26458332"
       id="path4440"
       inkscape:connector-curvature="0" />
    <path
       d="m 65.639897,367.99999 h 3.749992 q 1.500003,0 1.500003,-1.5 V 353 q 0,-1.5 -1.500003,-1.5 h -3.749992 q -1.500002,0 -1.500002,1.5 v 13.49999 q 0,1.5 1.500002,1.5 z"
       style="fill:#000000;fill-rule:evenodd;stroke-width:0.26458332"
       id="path4442"
       inkscape:connector-curvature="0" />
    <path
       d="m 69.952393,364.99999 h 1.125009 q 1.499976,0 1.499976,-1.5 V 356 q 0,-1.5 -1.499976,-1.5 h -1.125009 q -1.500002,0 -1.500002,1.5 v 7.49999 q 0,1.5 1.500002,1.5 z"
       style="fill:#ffffff;fill-rule:evenodd;stroke-width:0.26458332"
       id="path4444"
       inkscape:connector-curvature="0" />
    <path
       d="m 76.139886,363.87498 h 0.750015 q 1.500002,0 1.500002,-1.5 V 357.875 q 0,-1.5 -1.500002,-1.5 h -0.750015 q -1.500002,0 -1.500002,1.5 v 4.49998 q 0,1.5 1.500002,1.5 z"
       style="fill:#ffffff;fill-rule:evenodd;stroke-width:0.26458332"
       id="path4446"
       inkscape:connector-curvature="0" />
    <path
       d="m 82.139896,369.125 h 0.749987 q 1.500003,0 1.500003,-1.5 v -15.00002 q 0,-1.49998 -1.500003,-1.49998 h -0.749987 q -1.500003,0 -1.500003,1.49998 V 367.625 q 0,1.5 1.500003,1.5 z"
       style="fill:#ffffff;fill-rule:evenodd;stroke-width:0.26458332"
       id="path4448"
       inkscape:connector-curvature="0" />
    <path
       d="m 88.139878,373.62498 h 0.750015 q 1.500002,0 1.500002,-1.5 v -23.25 q 0,-1.5 -1.500002,-1.5 h -0.750015 q -1.499976,0 -1.499976,1.5 v 23.25 q 0,1.5 1.499976,1.5 z"
       style="fill:#ffffff;fill-rule:evenodd;stroke-width:0.26458332"
       id="path4450"
       inkscape:connector-curvature="0" />
  </g>
</svg>
