<?xml version="1.0" encoding="UTF-8" standalone="no"?>
<!-- Created with Inkscape (http://www.inkscape.org/) -->

<svg
   xmlns:dc="http://purl.org/dc/elements/1.1/"
   xmlns:cc="http://creativecommons.org/ns#"
   xmlns:rdf="http://www.w3.org/1999/02/22-rdf-syntax-ns#"
   xmlns:svg="http://www.w3.org/2000/svg"
   xmlns="http://www.w3.org/2000/svg"
   xmlns:sodipodi="http://sodipodi.sourceforge.net/DTD/sodipodi-0.dtd"
   xmlns:inkscape="http://www.inkscape.org/namespaces/inkscape"
   width="33.749985mm"
   height="33.749989mm"
   viewBox="0 0 33.749985 33.749988"
   version="1.1"
   id="svg5066"
   inkscape:version="0.92.3 (2405546, 2018-03-11)"
   sodipodi:docname="alarm.svg">
  <defs
     id="defs5060" />
  <sodipodi:namedview
     id="base"
     pagecolor="#ffffff"
     bordercolor="#666666"
     borderopacity="1.0"
     inkscape:pageopacity="0.0"
     inkscape:pageshadow="2"
     inkscape:zoom="0.35"
     inkscape:cx="63.7795"
     inkscape:cy="63.779517"
     inkscape:document-units="mm"
     inkscape:current-layer="layer1"
     showgrid="false"
     fit-margin-top="0"
     fit-margin-left="0"
     fit-margin-right="0"
     fit-margin-bottom="0"
     inkscape:window-width="548"
     inkscape:window-height="561"
     inkscape:window-x="1005"
     inkscape:window-y="30"
     inkscape:window-maximized="0" />
  <metadata
     id="metadata5063">
    <rdf:RDF>
      <cc:Work
         rdf:about="">
        <dc:format>image/svg+xml</dc:format>
        <dc:type
           rdf:resource="http://purl.org/dc/dcmitype/StillImage" />
        <dc:title></dc:title>
      </cc:Work>
    </rdf:RDF>
  </metadata>
  <g
     inkscape:label="Layer 1"
     inkscape:groupmode="layer"
     id="layer1"
     transform="translate(-60.389901,-343.62501)">
    <path
       d="m 62.639878,377.375 h 29.250005 q 2.250017,0 2.250017,-2.24999 V 345.875 q 0,-2.24999 -2.250017,-2.24999 H 62.639878 q -2.24999,0 -2.24999,2.24999 v 29.25001 q 0,2.24999 2.24999,2.24999 z"
       style="fill:#ff0000;fill-rule:evenodd;stroke-width:0.26458332"
       id="path1727"
       inkscape:connector-curvature="0" />
    <g
       transform="matrix(0.26458333,0,0,0.26458333,-59.61011,-325.75)"
       id="Layer1167">
      <path
         d="m 467.7165,2562.5197 h 99.2126 v -14.1732 h -99.2126 z"
         style="fill:#000000;fill-rule:evenodd;stroke-width:0.23999999;stroke-linecap:round;stroke-linejoin:round"
         id="path1729"
         inkscape:connector-curvature="0" />
      <path
         d="m 467.7165,2562.5197 h 99.2126 v -14.1732 h -99.2126 z"
         style="fill:none;stroke:#000000;stroke-width:0.23999999;stroke-linecap:round;stroke-linejoin:round;stroke-dasharray:none"
         id="path1731"
         inkscape:connector-curvature="0" />
    </g>
    <g
       transform="matrix(0.26458333,0,0,0.26458333,-59.61011,-325.75)"
       id="Layer1168">
      <path
         d="m 477.6378,2571.0236 h 79.3701 q 9.9212,0 9.9212,-9.9212 0,-9.9213 -9.9212,-9.9213 h -79.3701 q -9.9213,0 -9.9213,9.9213 0,9.9212 9.9213,9.9212 z"
         style="fill:#000000;fill-rule:evenodd;stroke-width:0.23999999;stroke-linecap:round;stroke-linejoin:round"
         id="path1734"
         inkscape:connector-curvature="0" />
      <path
         d="m 477.6378,2571.0236 h 79.3701 q 9.9212,0 9.9212,-9.9212 0,-9.9213 -9.9212,-9.9213 h -79.3701 q -9.9213,0 -9.9213,9.9213 0,9.9212 9.9213,9.9212 z"
         style="fill:none;stroke:#000000;stroke-width:0.23999999;stroke-linecap:round;stroke-linejoin:round;stroke-dasharray:none"
         id="path1736"
         inkscape:connector-curvature="0" />
    </g>
    <g
       transform="matrix(0.26458333,0,0,0.26458333,-59.61011,-325.75)"
       id="Layer1169">
      <path
         d="m 481.8898,2605.0394 h 70.8661 v -28.3465 h -70.8661 z"
         style="fill:#000000;fill-rule:evenodd;stroke-width:0.23999999;stroke-linecap:round;stroke-linejoin:round"
         id="path1739"
         inkscape:connector-curvature="0" />
      <path
         d="m 481.8898,2605.0394 h 70.8661 v -28.3465 h -70.8661 z"
         style="fill:none;stroke:#000000;stroke-width:0.23999999;stroke-linecap:round;stroke-linejoin:round;stroke-dasharray:none"
         id="path1741"
         inkscape:connector-curvature="0" />
    </g>
    <g
       transform="matrix(0.26458333,0,0,0.26458333,-59.61011,-325.75)"
       id="Layer1170">
      <path
         d="m 515.9055,2640.4724 h 2.8347 q 34.0157,0 34.0157,-34.0157 0,-34.0158 -34.0157,-34.0158 h -2.8347 q -34.0157,0 -34.0157,34.0158 0,34.0157 34.0157,34.0157 z"
         style="fill:#000000;fill-rule:evenodd;stroke-width:0.23999999;stroke-linecap:round;stroke-linejoin:round"
         id="path1744"
         inkscape:connector-curvature="0" />
      <path
         d="m 515.9055,2640.4724 h 2.8347 q 34.0157,0 34.0157,-34.0157 0,-34.0158 -34.0157,-34.0158 h -2.8347 q -34.0157,0 -34.0157,34.0158 0,34.0157 34.0157,34.0157 z"
         style="fill:none;stroke:#000000;stroke-width:0.23999999;stroke-linecap:round;stroke-linejoin:round;stroke-dasharray:none"
         id="path1746"
         inkscape:connector-curvature="0" />
    </g>
    <g
       transform="matrix(0.26458333,0,0,0.26458333,-59.61011,-325.75)"
       id="Layer1171">
      <path
         d="m 515.9055,2613.5433 a 11.3386,14.1732 0 0 1 22.6772,0 11.3386,14.1732 0 0 1 -22.6772,0 z"
         style="fill:#e8eef7;fill-rule:evenodd;stroke-width:0.23999999;stroke-linecap:round;stroke-linejoin:round"
         id="path1749"
         inkscape:connector-curvature="0" />
      <path
         d="m 515.9055,2613.5433 a 11.3386,14.1732 0 0 1 22.6772,0 11.3386,14.1732 0 0 1 -22.6772,0 z"
         style="fill:none;stroke:#000000;stroke-width:0.23999999;stroke-linecap:round;stroke-linejoin:round;stroke-dasharray:none"
         id="path1751"
         inkscape:connector-curvature="0" />
    </g>
    <g
       transform="matrix(0.26458333,0,0,0.26458333,-59.61011,-325.75)"
       id="Layer1172">
      <path
         d="m 484.7244,2579.811 h 65.1969 v -5.6693 h -65.1969 z"
         style="fill:#ffffff;fill-rule:evenodd;stroke-width:6;stroke-linecap:butt;stroke-linejoin:miter"
         id="path1754"
         inkscape:connector-curvature="0" />
      <path
         d="m 484.7244,2579.811 h 65.1969 v -5.6693 h -65.1969 z"
         style="fill:none;stroke:#ffffff;stroke-width:6;stroke-linecap:butt;stroke-linejoin:miter;stroke-dasharray:none"
         id="path1756"
         inkscape:connector-curvature="0" />
    </g>
    <g
       transform="matrix(0.26458333,0,0,0.26458333,-59.61011,-325.75)"
       id="Layer1173">
      <path
         d="m 474.8031,2558.2677 a 4.252,4.252 0 0 1 8.504,0 4.252,4.252 0 0 1 -8.504,0 z"
         style="fill:#ffffff;fill-rule:evenodd;stroke-width:0.23999999;stroke-linecap:round;stroke-linejoin:round"
         id="path1759"
         inkscape:connector-curvature="0" />
      <path
         d="m 474.8031,2558.2677 a 4.252,4.252 0 0 1 8.504,0 4.252,4.252 0 0 1 -8.504,0 z"
         style="fill:none;stroke:#000000;stroke-width:0.23999999;stroke-linecap:round;stroke-linejoin:round;stroke-dasharray:none"
         id="path1761"
         inkscape:connector-curvature="0" />
    </g>
    <path
       d="m 79.889891,367.62499 a 1.6933069,1.0682023 86.6361 0 0 1.125009,-1.5"
       style="fill:none;stroke:#000000;stroke-width:1.58749998;stroke-linecap:round;stroke-linejoin:round;stroke-dasharray:none"
       id="path1764"
       inkscape:connector-curvature="0" />
  </g>
</svg>
