<?xml version="1.0" encoding="UTF-8" standalone="no"?>
<!-- Created with Inkscape (http://www.inkscape.org/) -->

<svg
   xmlns:dc="http://purl.org/dc/elements/1.1/"
   xmlns:cc="http://creativecommons.org/ns#"
   xmlns:rdf="http://www.w3.org/1999/02/22-rdf-syntax-ns#"
   xmlns:svg="http://www.w3.org/2000/svg"
   xmlns="http://www.w3.org/2000/svg"
   xmlns:sodipodi="http://sodipodi.sourceforge.net/DTD/sodipodi-0.dtd"
   xmlns:inkscape="http://www.inkscape.org/namespaces/inkscape"
   width="33.749985mm"
   height="33.749989mm"
   viewBox="0 0 33.749985 33.749988"
   version="1.1"
   id="svg5066"
   inkscape:version="0.92.3 (2405546, 2018-03-11)"
   sodipodi:docname="na.svg">
  <defs
     id="defs5060" />
  <sodipodi:namedview
     id="base"
     pagecolor="#ffffff"
     bordercolor="#666666"
     borderopacity="1.0"
     inkscape:pageopacity="0.0"
     inkscape:pageshadow="2"
     inkscape:zoom="0.35"
     inkscape:cx="63.7795"
     inkscape:cy="63.779517"
     inkscape:document-units="mm"
     inkscape:current-layer="layer1"
     showgrid="false"
     fit-margin-top="0"
     fit-margin-left="0"
     fit-margin-right="0"
     fit-margin-bottom="0"
     inkscape:window-width="548"
     inkscape:window-height="561"
     inkscape:window-x="1005"
     inkscape:window-y="30"
     inkscape:window-maximized="0" />
  <metadata
     id="metadata5063">
    <rdf:RDF>
      <cc:Work
         rdf:about="">
        <dc:format>image/svg+xml</dc:format>
        <dc:type
           rdf:resource="http://purl.org/dc/dcmitype/StillImage" />
        <dc:title></dc:title>
      </cc:Work>
    </rdf:RDF>
  </metadata>
  <g
     inkscape:label="Layer 1"
     inkscape:groupmode="layer"
     id="layer1"
     transform="translate(-60.389901,-343.62501)">
    <path
       d="m 62.639891,377.375 h 29.250005 q 2.24999,0 2.24999,-2.24999 V 345.875 q 0,-2.24999 -2.24999,-2.24999 H 62.639891 q -2.24999,0 -2.24999,2.24999 v 29.25001 q 0,2.24999 2.24999,2.24999 z"
       style="fill:#a5a5a5;fill-rule:evenodd;stroke-width:0.26458332"
       id="path2634"
       inkscape:connector-curvature="0" />
    <g
       transform="matrix(0.26458333,0,0,0.26458333,-97.110101,-325.75)"
       id="Layer1262">
      <path
         d="m 609.4488,2562.5197 h 99.2126 v -14.1732 h -99.2126 z"
         style="fill:#000000;fill-rule:evenodd;stroke-width:0.23999999;stroke-linecap:round;stroke-linejoin:round"
         id="path2636"
         inkscape:connector-curvature="0" />
      <path
         d="m 609.4488,2562.5197 h 99.2126 v -14.1732 h -99.2126 z"
         style="fill:none;stroke:#000000;stroke-width:0.23999999;stroke-linecap:round;stroke-linejoin:round;stroke-dasharray:none"
         id="path2638"
         inkscape:connector-curvature="0" />
    </g>
    <g
       transform="matrix(0.26458333,0,0,0.26458333,-97.110101,-325.75)"
       id="Layer1263">
      <path
         d="m 619.3701,2571.0236 h 79.3701 q 9.9212,0 9.9212,-9.9212 0,-9.9213 -9.9212,-9.9213 h -79.3701 q -9.9213,0 -9.9213,9.9213 0,9.9212 9.9213,9.9212 z"
         style="fill:#000000;fill-rule:evenodd;stroke-width:0.23999999;stroke-linecap:round;stroke-linejoin:round"
         id="path2641"
         inkscape:connector-curvature="0" />
      <path
         d="m 619.3701,2571.0236 h 79.3701 q 9.9212,0 9.9212,-9.9212 0,-9.9213 -9.9212,-9.9213 h -79.3701 q -9.9213,0 -9.9213,9.9213 0,9.9212 9.9213,9.9212 z"
         style="fill:none;stroke:#000000;stroke-width:0.23999999;stroke-linecap:round;stroke-linejoin:round;stroke-dasharray:none"
         id="path2643"
         inkscape:connector-curvature="0" />
    </g>
    <g
       transform="matrix(0.26458333,0,0,0.26458333,-97.110101,-325.75)"
       id="Layer1264">
      <path
         d="m 623.622,2605.0394 h 70.8662 v -28.3465 H 623.622 Z"
         style="fill:#000000;fill-rule:evenodd;stroke-width:0.23999999;stroke-linecap:round;stroke-linejoin:round"
         id="path2646"
         inkscape:connector-curvature="0" />
      <path
         d="m 623.622,2605.0394 h 70.8662 v -28.3465 H 623.622 Z"
         style="fill:none;stroke:#000000;stroke-width:0.23999999;stroke-linecap:round;stroke-linejoin:round;stroke-dasharray:none"
         id="path2648"
         inkscape:connector-curvature="0" />
    </g>
    <g
       transform="matrix(0.26458333,0,0,0.26458333,-97.110101,-325.75)"
       id="Layer1265">
      <path
         d="m 657.6378,2640.4724 h 2.8346 q 34.0158,0 34.0158,-34.0157 0,-34.0158 -34.0158,-34.0158 h -2.8346 q -34.0158,0 -34.0158,34.0158 0,34.0157 34.0158,34.0157 z"
         style="fill:#000000;fill-rule:evenodd;stroke-width:0.23999999;stroke-linecap:round;stroke-linejoin:round"
         id="path2651"
         inkscape:connector-curvature="0" />
      <path
         d="m 657.6378,2640.4724 h 2.8346 q 34.0158,0 34.0158,-34.0157 0,-34.0158 -34.0158,-34.0158 h -2.8346 q -34.0158,0 -34.0158,34.0158 0,34.0157 34.0158,34.0157 z"
         style="fill:none;stroke:#000000;stroke-width:0.23999999;stroke-linecap:round;stroke-linejoin:round;stroke-dasharray:none"
         id="path2653"
         inkscape:connector-curvature="0" />
    </g>
    <g
       transform="matrix(0.26458333,0,0,0.26458333,-97.110101,-325.75)"
       id="Layer1266">
      <path
         d="m 657.6378,2613.5433 a 11.3386,14.1732 0 0 1 22.6772,0 11.3386,14.1732 0 0 1 -22.6772,0 z"
         style="fill:#e8eef7;fill-rule:evenodd;stroke-width:0.23999999;stroke-linecap:round;stroke-linejoin:round"
         id="path2656"
         inkscape:connector-curvature="0" />
      <path
         d="m 657.6378,2613.5433 a 11.3386,14.1732 0 0 1 22.6772,0 11.3386,14.1732 0 0 1 -22.6772,0 z"
         style="fill:none;stroke:#000000;stroke-width:0.23999999;stroke-linecap:round;stroke-linejoin:round;stroke-dasharray:none"
         id="path2658"
         inkscape:connector-curvature="0" />
    </g>
    <g
       transform="matrix(0.26458333,0,0,0.26458333,-97.110101,-325.75)"
       id="Layer1267">
      <path
         d="m 626.4567,2579.811 h 65.1968 v -5.6693 h -65.1968 z"
         style="fill:#ffffff;fill-rule:evenodd;stroke-width:6;stroke-linecap:butt;stroke-linejoin:miter"
         id="path2661"
         inkscape:connector-curvature="0" />
      <path
         d="m 626.4567,2579.811 h 65.1968 v -5.6693 h -65.1968 z"
         style="fill:none;stroke:#ffffff;stroke-width:6;stroke-linecap:butt;stroke-linejoin:miter;stroke-dasharray:none"
         id="path2663"
         inkscape:connector-curvature="0" />
    </g>
    <g
       transform="matrix(0.26458333,0,0,0.26458333,-97.110101,-325.75)"
       id="Layer1268">
      <path
         d="m 616.5354,2558.2677 a 4.252,4.252 0 0 1 8.504,0 4.252,4.252 0 0 1 -8.504,0 z"
         style="fill:#ffffff;fill-rule:evenodd;stroke-width:0.23999999;stroke-linecap:round;stroke-linejoin:round"
         id="path2666"
         inkscape:connector-curvature="0" />
      <path
         d="m 616.5354,2558.2677 a 4.252,4.252 0 0 1 8.504,0 4.252,4.252 0 0 1 -8.504,0 z"
         style="fill:none;stroke:#000000;stroke-width:0.23999999;stroke-linecap:round;stroke-linejoin:round;stroke-dasharray:none"
         id="path2668"
         inkscape:connector-curvature="0" />
    </g>
    <path
       d="m 79.889904,367.62499 a 1.6933069,1.0682023 86.6361 0 0 1.124982,-1.5"
       style="fill:none;stroke:#000000;stroke-width:1.58749998;stroke-linecap:round;stroke-linejoin:round;stroke-dasharray:none"
       id="path2671"
       inkscape:connector-curvature="0" />
  </g>
</svg>
