<svg width="160" height="160" version="1.1" viewBox="0 0 42.333 42.333" xmlns="http://www.w3.org/2000/svg">
 <g transform="translate(-358.96 -395.96)" stroke-width="0">
  <path transform="matrix(.26458 0 0 .26458 358.96 395.96)" d="m91.555 11.375v20.756a49.245 49.245 0 0 1 36.129 35.57h20.809a69.591 69.591 0 0 0-56.938-56.326zm-23.234 0.021484a69.591 69.591 0 0 0-56.814 56.305h20.811a49.245 49.245 0 0 1 36.004-35.541v-20.764zm-57.045 79.537a69.591 69.591 0 0 0 57.045 57.67v-20.764a49.245 49.245 0 0 1-36.334-36.906h-20.711zm116.74 0a49.245 49.245 0 0 1-36.459 36.936v20.756a69.591 69.591 0 0 0 57.17-57.691h-20.711z"/>
  <path d="m380.12 396.1a5.444 5.444 0 0 0-5.4441 5.4441 5.444 5.444 0 0 0 5.4441 5.4441 5.444 5.444 0 0 0 5.4441-5.4441 5.444 5.444 0 0 0-5.4441-5.4441zm0 4.0075a1.4366 1.4366 0 0 1 1.4366 1.4366 1.4366 1.4366 0 0 1-1.4366 1.4366 1.4366 1.4366 0 0 1-1.4366-1.4366 1.4366 1.4366 0 0 1 1.4366-1.4366z"/>
  <path d="m380.12 427.32a5.444 5.444 0 0 0-5.4441 5.4441 5.444 5.444 0 0 0 5.4441 5.4441 5.444 5.444 0 0 0 5.4441-5.4441 5.444 5.444 0 0 0-5.4441-5.4441zm0 4.0075a1.4366 1.4366 0 0 1 1.4366 1.4366 1.4366 1.4366 0 0 1-1.4366 1.4366 1.4366 1.4366 0 0 1-1.4366-1.4366 1.4366 1.4366 0 0 1 1.4366-1.4366z"/>
  <path d="m364.5 411.69a5.444 5.444 0 0 0-5.4441 5.4441 5.444 5.444 0 0 0 5.4441 5.4441 5.444 5.444 0 0 0 5.4441-5.4441 5.444 5.444 0 0 0-5.4441-5.4441zm0 4.0075a1.4366 1.4366 0 0 1 1.4366 1.4366 1.4366 1.4366 0 0 1-1.4366 1.4366 1.4366 1.4366 0 0 1-1.4366-1.4366 1.4366 1.4366 0 0 1 1.4366-1.4366z"/>
  <path d="m395.77 411.69a5.444 5.444 0 0 0-5.4441 5.4441 5.444 5.444 0 0 0 5.4441 5.4441 5.444 5.444 0 0 0 5.4441-5.4441 5.444 5.444 0 0 0-5.4441-5.4441zm0 4.0075a1.4366 1.4366 0 0 1 1.4366 1.4366 1.4366 1.4366 0 0 1-1.4366 1.4366 1.4366 1.4366 0 0 1-1.4366-1.4366 1.4366 1.4366 0 0 1 1.4366-1.4366z"/>
 </g>
</svg>
