<?xml version="1.0" encoding="UTF-8" standalone="no"?>
<svg
   xmlns:dc="http://purl.org/dc/elements/1.1/"
   xmlns:cc="http://creativecommons.org/ns#"
   xmlns:rdf="http://www.w3.org/1999/02/22-rdf-syntax-ns#"
   xmlns:svg="http://www.w3.org/2000/svg"
   xmlns="http://www.w3.org/2000/svg"
   id="svg4617"
   version="1.1"
   viewBox="0 0 160 160"
   height="604.72443"
   width="604.72443">
  <defs
     id="defs4611" />
  <metadata
     id="metadata4614">
    <rdf:RDF>
      <cc:Work
         rdf:about="">
        <dc:format>image/svg+xml</dc:format>
        <dc:type
           rdf:resource="http://purl.org/dc/dcmitype/StillImage" />
        <dc:title></dc:title>
      </cc:Work>
    </rdf:RDF>
  </metadata>
  <g
     transform="translate(-199.08162,-238.78746)"
     id="layer1">
    <path
       id="path4680"
       transform="matrix(0.26458333,0,0,0.26458333,199.08162,238.78746)"
       d="M 37.794922,0 C 16.924862,0 0,16.924862 0,37.794922 V 151.18164 c 0,20.87006 16.924862,37.79492 37.794922,37.79492 v 32.54297 h 75.591798 v -32.54297 h 37.79492 c 19.18906,0 35.03146,-14.31252 37.46094,-32.83984 V 32.839844 C 186.2131,14.312513 170.3707,0 151.18164,0 Z M 75.589844,75.589844 H 113.38672 V 113.38672 H 75.589844 Z M 37.794922,263.94531 v 76.83399 h 75.591798 v -76.83399 z m 0,119.25977 v 32.54297 C 16.924862,415.74805 0,432.67287 0,453.54297 v 113.38672 c 0,20.87006 16.924862,37.79492 37.794922,37.79492 H 151.18164 c 20.87006,0 37.79492,-16.92486 37.79492,-37.79492 h 33.22656 v -75.5918 h -33.22656 v -37.79492 c 0,-20.8701 -16.92486,-37.79492 -37.79492,-37.79492 h -37.79492 v -32.54297 z m 410.792968,32.87695 c -18.52736,2.42948 -32.83984,18.27185 -32.83984,37.46094 v 37.79492 h -31.85938 v 75.5918 h 31.85938 c 0,20.87006 16.92482,37.79492 37.79492,37.79492 h 113.38672 c 20.87006,0 37.79492,-16.92486 37.79492,-37.79492 V 453.54297 c 0,-19.18909 -14.31251,-35.03146 -32.83984,-37.46094 z M 75.589844,491.33789 h 37.796876 v 37.79688 H 75.589844 Z m 189.039066,0 v 75.5918 h 76.83398 v -75.5918 z m 226.70898,0 h 37.79688 v 37.79688 h -37.79688 z"
       style="fill:#ffffff;stroke-width:1.18110228" />
  </g>
</svg>
