<?xml version="1.0" encoding="UTF-8" standalone="no"?>
<svg
   xmlns:dc="http://purl.org/dc/elements/1.1/"
   xmlns:cc="http://creativecommons.org/ns#"
   xmlns:rdf="http://www.w3.org/1999/02/22-rdf-syntax-ns#"
   xmlns:svg="http://www.w3.org/2000/svg"
   xmlns="http://www.w3.org/2000/svg"
   xmlns:sodipodi="http://sodipodi.sourceforge.net/DTD/sodipodi-0.dtd"
   xmlns:inkscape="http://www.inkscape.org/namespaces/inkscape"
   aria-hidden="true"
   focusable="false"
   data-prefix="fas"
   data-icon="edit"
   class="svg-inline--fa fa-edit fa-w-18"
   role="img"
   viewBox="0 0 576 576"
   version="1.1"
   id="svg4"
   sodipodi:docname="edit.svg"
   width="576"
   height="576"
   inkscape:version="0.92.3 (2405546, 2018-03-11)">
  <metadata
     id="metadata10">
    <rdf:RDF>
      <cc:Work
         rdf:about="">
        <dc:format>image/svg+xml</dc:format>
        <dc:type
           rdf:resource="http://purl.org/dc/dcmitype/StillImage" />
        <dc:title></dc:title>
      </cc:Work>
    </rdf:RDF>
  </metadata>
  <defs
     id="defs8" />
  <sodipodi:namedview
     pagecolor="#000000"
     bordercolor="#666666"
     borderopacity="1"
     objecttolerance="10"
     gridtolerance="10"
     guidetolerance="10"
     inkscape:pageopacity="0"
     inkscape:pageshadow="2"
     inkscape:window-width="1402"
     inkscape:window-height="884"
     id="namedview6"
     showgrid="false"
     inkscape:zoom="0.4609375"
     inkscape:cx="288"
     inkscape:cy="256"
     inkscape:window-x="0"
     inkscape:window-y="0"
     inkscape:window-maximized="0"
     inkscape:current-layer="svg4" />
  <path
     d="m 402.6,115.15 90.2,90.2 c 3.8,3.8 3.8,10 0,13.8 l -218.4,218.4 -92.8,10.3 c -12.4,1.4 -22.9,-9.1 -21.5,-21.5 l 10.3,-92.8 218.4,-218.4 c 3.8,-3.8 10,-3.8 13.8,0 z m 162,-22.9 -48.8,-48.8 c -15.2,-15.2 -39.9,-15.2 -55.2,0 l -35.4,35.4 c -3.8,3.8 -3.8,10 0,13.8 l 90.2,90.2 c 3.8,3.8 10,3.8 13.8,0 l 35.4,-35.4 c 15.2,-15.3 15.2,-40 0,-55.2 z M 384,378.15 v 101.8 H 64 v -320 h 229.8 c 3.2,0 6.2,-1.3 8.5,-3.5 l 40,-40 c 7.6,-7.6 2.2,-20.5 -8.5,-20.5 H 48 c -26.5,0 -48,21.5 -48,48 v 352 c 0,26.5 21.5,48 48,48 h 352 c 26.5,0 48,-21.5 48,-48 v -157.8 c 0,-10.7 -12.9,-16 -20.5,-8.5 l -40,40 c -2.2,2.3 -3.5,5.3 -3.5,8.5 z"
     id="path2"
     inkscape:connector-curvature="0"
     style="fill:#ffffff" />
</svg>
