<?xml version="1.0" encoding="UTF-8" standalone="no"?>
<svg
   xmlns:dc="http://purl.org/dc/elements/1.1/"
   xmlns:cc="http://creativecommons.org/ns#"
   xmlns:rdf="http://www.w3.org/1999/02/22-rdf-syntax-ns#"
   xmlns:svg="http://www.w3.org/2000/svg"
   xmlns="http://www.w3.org/2000/svg"
   height="512"
   width="512"
   id="svg4"
   version="1.1"
   viewBox="0 0 512 512"
   role="img"
   class="svg-inline--fa fa-border-none fa-w-14"
   data-icon="border-none"
   data-prefix="fas"
   focusable="false"
   aria-hidden="true">
  <metadata
     id="metadata10">
    <rdf:RDF>
      <cc:Work
         rdf:about="">
        <dc:format>image/svg+xml</dc:format>
        <dc:type
           rdf:resource="http://purl.org/dc/dcmitype/StillImage" />
        <dc:title></dc:title>
      </cc:Work>
    </rdf:RDF>
  </metadata>
  <defs
     id="defs8" />
  <path
     style="fill:#ffffff"
     id="path2"
     d="m 272,224 h -32 a 16,16 0 0 0 -16,16 v 32 a 16,16 0 0 0 16,16 h 32 a 16,16 0 0 0 16,-16 v -32 a 16,16 0 0 0 -16,-16 z m 96,0 h -32 a 16,16 0 0 0 -16,16 v 32 a 16,16 0 0 0 16,16 h 32 a 16,16 0 0 0 16,-16 v -32 a 16,16 0 0 0 -16,-16 z m 96,0 h -32 a 16,16 0 0 0 -16,16 v 32 a 16,16 0 0 0 16,16 h 32 a 16,16 0 0 0 16,-16 v -32 a 16,16 0 0 0 -16,-16 z m -288,0 h -32 a 16,16 0 0 0 -16,16 v 32 a 16,16 0 0 0 16,16 h 32 a 16,16 0 0 0 16,-16 v -32 a 16,16 0 0 0 -16,-16 z m 96,192 h -32 a 16,16 0 0 0 -16,16 v 32 a 16,16 0 0 0 16,16 h 32 a 16,16 0 0 0 16,-16 v -32 a 16,16 0 0 0 -16,-16 z m 96,0 h -32 a 16,16 0 0 0 -16,16 v 32 a 16,16 0 0 0 16,16 h 32 a 16,16 0 0 0 16,-16 v -32 a 16,16 0 0 0 -16,-16 z m 96,0 h -32 a 16,16 0 0 0 -16,16 v 32 a 16,16 0 0 0 16,16 h 32 a 16,16 0 0 0 16,-16 v -32 a 16,16 0 0 0 -16,-16 z m 0,-96 h -32 a 16,16 0 0 0 -16,16 v 32 a 16,16 0 0 0 16,16 h 32 a 16,16 0 0 0 16,-16 v -32 a 16,16 0 0 0 -16,-16 z m 0,-192 h -32 a 16,16 0 0 0 -16,16 v 32 a 16,16 0 0 0 16,16 h 32 a 16,16 0 0 0 16,-16 V 144 A 16,16 0 0 0 464,128 Z M 272,320 h -32 a 16,16 0 0 0 -16,16 v 32 a 16,16 0 0 0 16,16 h 32 a 16,16 0 0 0 16,-16 v -32 a 16,16 0 0 0 -16,-16 z m 0,-192 h -32 a 16,16 0 0 0 -16,16 v 32 a 16,16 0 0 0 16,16 h 32 a 16,16 0 0 0 16,-16 v -32 a 16,16 0 0 0 -16,-16 z m -96,288 h -32 a 16,16 0 0 0 -16,16 v 32 a 16,16 0 0 0 16,16 h 32 a 16,16 0 0 0 16,-16 V 432 A 16,16 0 0 0 176,416 Z M 272,32 h -32 a 16,16 0 0 0 -16,16 v 32 a 16,16 0 0 0 16,16 h 32 A 16,16 0 0 0 288,80 V 48 A 16,16 0 0 0 272,32 Z m 96,0 h -32 a 16,16 0 0 0 -16,16 v 32 a 16,16 0 0 0 16,16 h 32 A 16,16 0 0 0 384,80 V 48 A 16,16 0 0 0 368,32 Z m 96,0 h -32 a 16,16 0 0 0 -16,16 v 32 a 16,16 0 0 0 16,16 h 32 A 16,16 0 0 0 480,80 V 48 A 16,16 0 0 0 464,32 Z M 80,224 H 48 a 16,16 0 0 0 -16,16 v 32 a 16,16 0 0 0 16,16 H 80 A 16,16 0 0 0 96,272 V 240 A 16,16 0 0 0 80,224 Z m 0,192 H 48 a 16,16 0 0 0 -16,16 v 32 a 16,16 0 0 0 16,16 H 80 A 16,16 0 0 0 96,464 V 432 A 16,16 0 0 0 80,416 Z m 0,-96 H 48 a 16,16 0 0 0 -16,16 v 32 a 16,16 0 0 0 16,16 H 80 A 16,16 0 0 0 96,368 V 336 A 16,16 0 0 0 80,320 Z M 80,128 H 48 a 16,16 0 0 0 -16,16 v 32 a 16,16 0 0 0 16,16 H 80 A 16,16 0 0 0 96,176 V 144 A 16,16 0 0 0 80,128 Z M 80,32 H 48 A 16,16 0 0 0 32,48 V 80 A 16,16 0 0 0 48,96 H 80 A 16,16 0 0 0 96,80 V 48 A 16,16 0 0 0 80,32 Z m 96,0 h -32 a 16,16 0 0 0 -16,16 v 32 a 16,16 0 0 0 16,16 h 32 A 16,16 0 0 0 192,80 V 48 A 16,16 0 0 0 176,32 Z" />
</svg>
