<svg class="svg-inline--fa fa-camera fa-w-16" width="160" height="160" aria-hidden="true" data-icon="camera" data-prefix="fas" focusable="false" role="img" version="1.1" viewBox="0 0 160 160" xmlns="http://www.w3.org/2000/svg">
 <path d="m160 45v90c0 8.2812-6.7188 15-15 15h-130c-8.2812 0-15-6.7188-15-15v-90c0-8.2812 6.7188-15 15-15h27.5l3.8438-10.281c2.1875-5.8438 7.7812-9.7188 14.031-9.7188h39.219c6.25 0 11.844 3.875 14.031 9.7188l3.875 10.281h27.5c8.2812 0 15 6.7188 15 15zm-42.5 45c0-20.688-16.812-37.5-37.5-37.5s-37.5 16.812-37.5 37.5 16.812 37.5 37.5 37.5 37.5-16.812 37.5-37.5zm-10 0c0 15.156-12.344 27.5-27.5 27.5s-27.5-12.344-27.5-27.5 12.344-27.5 27.5-27.5 27.5 12.344 27.5 27.5z" stroke-width=".3125"/>
</svg>
