<?xml version="1.0" encoding="UTF-8" standalone="no"?>
<svg
   xmlns:dc="http://purl.org/dc/elements/1.1/"
   xmlns:cc="http://creativecommons.org/ns#"
   xmlns:rdf="http://www.w3.org/1999/02/22-rdf-syntax-ns#"
   xmlns:svg="http://www.w3.org/2000/svg"
   xmlns="http://www.w3.org/2000/svg"
   xmlns:sodipodi="http://sodipodi.sourceforge.net/DTD/sodipodi-0.dtd"
   xmlns:inkscape="http://www.inkscape.org/namespaces/inkscape"
   aria-hidden="true"
   focusable="false"
   data-prefix="fas"
   data-icon="tree"
   class="svg-inline--fa fa-tree fa-w-12"
   role="img"
   viewBox="0 0 512 512"
   version="1.1"
   id="svg4"
   sodipodi:docname="tree.svg"
   inkscape:version="0.92.3 (2405546, 2018-03-11)"
   width="512"
   height="512">
  <metadata
     id="metadata10">
    <rdf:RDF>
      <cc:Work
         rdf:about="">
        <dc:format>image/svg+xml</dc:format>
        <dc:type
           rdf:resource="http://purl.org/dc/dcmitype/StillImage" />
        <dc:title></dc:title>
      </cc:Work>
    </rdf:RDF>
  </metadata>
  <defs
     id="defs8" />
  <sodipodi:namedview
     pagecolor="#000000"
     bordercolor="#666666"
     borderopacity="1"
     objecttolerance="10"
     gridtolerance="10"
     guidetolerance="10"
     inkscape:pageopacity="0"
     inkscape:pageshadow="2"
     inkscape:window-width="1342"
     inkscape:window-height="737"
     id="namedview6"
     showgrid="false"
     inkscape:zoom="0.4609375"
     inkscape:cx="-160.54237"
     inkscape:cy="256"
     inkscape:window-x="0"
     inkscape:window-y="0"
     inkscape:window-maximized="0"
     inkscape:current-layer="svg4" />
  <path
     d="M 442.31,378.49 362.42,288 h 30.63 c 9.01,0 16.98,-5 20.78,-13.06 3.8,-8.04 2.55,-17.26 -3.28,-24.05 L 332.42,160 h 28.89 c 9.1,0 17.3,-5.35 20.86,-13.61 3.52,-8.13 1.86,-17.59 -4.24,-24.08 L 267.66,4.83 c -6.03,-6.45 -17.28,-6.45 -23.32,0 L 134.06,122.31 c -6.1,6.49 -7.75,15.95 -4.24,24.08 3.56,8.26 11.77,13.61 20.87,13.61 h 28.89 l -78.14,90.91 c -5.81,6.78 -7.06,15.99 -3.27,24.04 3.8,8.05 11.76,13.05 20.78,13.05 h 30.63 l -79.89,90.49 c -6,6.79 -7.36,16.09 -3.56,24.26 3.75,8.05 12,13.25 21.01,13.25 H 224 v 24.45 l -30.29,48.4 c -5.32,10.64 2.42,23.16 14.31,23.16 h 95.96 c 11.89,0 19.63,-12.52 14.31,-23.16 L 288,440.45 V 416 h 136.86 c 9.01,0 17.26,-5.2 21.01,-13.25 3.8,-8.17 2.44,-17.47 -3.56,-24.26 z"
     id="path2"
     style="fill:#ffffff"
     inkscape:connector-curvature="0" />
</svg>
