<?xml version="1.0" encoding="UTF-8" standalone="no"?>
<svg
   xmlns:dc="http://purl.org/dc/elements/1.1/"
   xmlns:cc="http://creativecommons.org/ns#"
   xmlns:rdf="http://www.w3.org/1999/02/22-rdf-syntax-ns#"
   xmlns:svg="http://www.w3.org/2000/svg"
   xmlns="http://www.w3.org/2000/svg"
   xmlns:sodipodi="http://sodipodi.sourceforge.net/DTD/sodipodi-0.dtd"
   xmlns:inkscape="http://www.inkscape.org/namespaces/inkscape"
   aria-hidden="true"
   focusable="false"
   data-prefix="fas"
   data-icon="layer-group"
   class="svg-inline--fa fa-layer-group fa-w-16"
   role="img"
   viewBox="0 0 160 160.00076"
   version="1.1"
   id="svg4737"
   sodipodi:docname="layers.svg"
   width="160"
   height="160.00076"
   inkscape:version="0.92.3 (2405546, 2018-03-11)">
  <metadata
     id="metadata4743">
    <rdf:RDF>
      <cc:Work
         rdf:about="">
        <dc:format>image/svg+xml</dc:format>
        <dc:type
           rdf:resource="http://purl.org/dc/dcmitype/StillImage" />
        <dc:title />
      </cc:Work>
    </rdf:RDF>
  </metadata>
  <defs
     id="defs4741" />
  <sodipodi:namedview
     pagecolor="#000"
     bordercolor="#666666"
     borderopacity="1"
     objecttolerance="10"
     gridtolerance="10"
     guidetolerance="10"
     inkscape:pageopacity="0"
     inkscape:pageshadow="2"
     inkscape:window-width="966"
     inkscape:window-height="574"
     id="namedview4739"
     showgrid="false"
     fit-margin-top="0"
     fit-margin-left="0"
     fit-margin-right="0"
     fit-margin-bottom="0"
     inkscape:zoom="0.4609375"
     inkscape:cx="-17.353432"
     inkscape:cy="256"
     inkscape:window-x="0"
     inkscape:window-y="0"
     inkscape:window-maximized="0"
     inkscape:current-layer="svg4737" />
  <path
     d="m 3.8788684,46.258131 72.7930396,33.02155 c 2.124979,0.96562 4.52808,0.96562 6.65306,0 l 72.793042,-33.02155 c 5.17182,-2.34685 5.17182,-10.1624 0,-12.50925 L 83.328092,0.72420084 a 8.0021094,8.0021094 0 0 0 -6.65306,0 L 3.8788684,33.745751 c -5.1718245,2.34686 -5.1718245,10.16553 0,12.51238 z M 156.12113,73.845361 137.96818,65.617321 87.456177,88.513971 C 85.0937,89.585831 82.58435,90.129581 80,90.129581 c -2.58435,0 -5.090575,-0.54375 -7.456177,-1.61561 L 22.034941,65.617321 3.8788684,73.845361 c -5.1718245,2.34373 -5.1718245,10.15615 0,12.49988 L 76.671908,119.34179 c 2.124979,0.96249 4.52808,0.96249 6.65306,0 L 156.12113,86.345241 c 5.17183,-2.34373 5.17183,-10.15615 0,-12.49988 z m 0,39.937109 -18.0842,-8.19679 -50.580753,22.9279 C 85.0937,129.58544 82.58435,130.12919 80,130.12919 c -2.58435,0 -5.090575,-0.54375 -7.456177,-1.61561 l -50.577631,-22.9279 -18.0873236,8.19679 c -5.1718245,2.34373 -5.1718245,10.15615 0,12.49988 L 76.671908,159.2789 c 2.124979,0.96249 4.52808,0.96249 6.65306,0 l 72.796162,-32.99655 c 5.17183,-2.34373 5.17183,-10.15615 0,-12.49988 z"
     id="path4735"
     inkscape:connector-curvature="0"
     style="fill:#ffffff;stroke-width:0.31249696" />
</svg>
