<?xml version="1.0" encoding="UTF-8" standalone="no"?>
<svg
   xmlns:dc="http://purl.org/dc/elements/1.1/"
   xmlns:cc="http://creativecommons.org/ns#"
   xmlns:rdf="http://www.w3.org/1999/02/22-rdf-syntax-ns#"
   xmlns:svg="http://www.w3.org/2000/svg"
   xmlns="http://www.w3.org/2000/svg"
   xmlns:sodipodi="http://sodipodi.sourceforge.net/DTD/sodipodi-0.dtd"
   xmlns:inkscape="http://www.inkscape.org/namespaces/inkscape"
   aria-hidden="true"
   focusable="false"
   data-prefix="fas"
   data-icon="lock"
   class="svg-inline--fa fa-lock fa-w-14"
   role="img"
   viewBox="0 0 160 160"
   version="1.1"
   id="svg4"
   sodipodi:docname="lock.svg"
   width="160"
   height="160"
   inkscape:version="0.92.3 (2405546, 2018-03-11)">
  <metadata
     id="metadata10">
    <rdf:RDF>
      <cc:Work
         rdf:about="">
        <dc:format>image/svg+xml</dc:format>
        <dc:type
           rdf:resource="http://purl.org/dc/dcmitype/StillImage" />
        <dc:title />
      </cc:Work>
    </rdf:RDF>
  </metadata>
  <defs
     id="defs8" />
  <sodipodi:namedview
     pagecolor="#000000"
     bordercolor="#666666"
     borderopacity="1"
     objecttolerance="10"
     gridtolerance="10"
     guidetolerance="10"
     inkscape:pageopacity="0"
     inkscape:pageshadow="2"
     inkscape:window-width="1281"
     inkscape:window-height="775"
     id="namedview6"
     showgrid="false"
     fit-margin-top="0"
     fit-margin-left="0"
     fit-margin-right="0"
     fit-margin-bottom="0"
     inkscape:zoom="1.84375"
     inkscape:cx="82.44009"
     inkscape:cy="63.101367"
     inkscape:window-x="0"
     inkscape:window-y="0"
     inkscape:window-maximized="0"
     inkscape:current-layer="svg4" />
  <path
     style="fill:#ffffff;stroke-width:0.3125"
     d="M 80 0 C 53.8125 0 32.5 21.3125 32.5 47.5 L 32.5 70 L 25 70 C 16.71875 70 10 76.71875 10 85 L 10 145 C 10 153.28125 16.71875 160 25 160 L 135 160 C 143.28125 160 150 153.28125 150 145 L 150 85 C 150 76.71875 143.28125 70 135 70 L 127.5 70 L 127.5 47.5 C 127.5 21.3125 106.1875 0 80 0 z M 80 25 C 92.40625 25 102.5 35.09375 102.5 47.5 L 102.5 70 L 57.5 70 L 57.5 47.5 C 57.5 35.09375 67.59375 25 80 25 z M 80 83.525391 A 19.525425 19.525425 0 0 1 99.525391 103.05078 A 19.525425 19.525425 0 0 1 89.492188 120.08594 L 89.492188 143.72852 L 70.507812 143.72852 L 70.507812 120.10547 A 19.525425 19.525425 0 0 1 60.474609 103.05078 A 19.525425 19.525425 0 0 1 80 83.525391 z "
     id="path2" />
</svg>
