<svg width="604.72" height="604.72" version="1.1" viewBox="0 0 160 160" xmlns="http://www.w3.org/2000/svg">
 <g transform="translate(-199.08 -238.79)">
  <path transform="matrix(.26458 0 0 .26458 199.08 238.79)" d="m37.795 0c-20.87 0-37.795 16.925-37.795 37.795v113.39c0 20.87 16.925 37.795 37.795 37.795v226.77c-20.87 0-37.795 16.925-37.795 37.795v113.39c0 20.87 16.925 37.795 37.795 37.795h113.39c20.87 0 37.795-16.925 37.795-37.795h226.77c0 20.87 16.925 37.795 37.795 37.795h113.39c20.87 0 37.795-16.925 37.795-37.795v-113.39c0-19.189-14.313-35.031-32.84-37.461h-123.3c-18.527 2.4295-32.84 18.272-32.84 37.461v37.795h-226.77v-37.795c0-20.87-16.925-37.795-37.795-37.795h-37.795v-226.77h37.795c19.189 0 35.031-14.313 37.461-32.84v-123.3c-2.4295-18.527-18.272-32.84-37.461-32.84h-113.39zm37.795 75.59h37.797v37.797h-37.797v-37.797zm0 415.75h37.797v37.797h-37.797v-37.797zm415.75 0h37.797v37.797h-37.797v-37.797z" stroke-width="1.1811"/>
 </g>
</svg>
