<svg width="604.72" height="604.72" version="1.1" viewBox="0 0 160 160" xmlns="http://www.w3.org/2000/svg">
 <g transform="translate(-283.39 -257.65)">
  <path d="m420.53 371.94c-0.12499 0-0.23928 0.0358-0.36428 0.0358l-14-23.329c1.8107-3.275 2.9357-6.9857 2.9357-10.993 0-4.0072-1.1214-7.7179-2.9357-10.993l14-23.329c0.125 4e-3 0.23929 0.0358 0.36428 0.0358 12.625 0 22.857-10.232 22.857-22.857s-10.232-22.857-22.857-22.857c-8.4393 0-15.729 4.625-19.686 11.429h-74.914c-3.9572-6.8036-11.246-11.429-19.686-11.429-12.625 0-22.857 10.232-22.857 22.857 0 8.4393 4.625 15.729 11.429 19.686v74.911c-6.8036 3.9607-11.429 11.25-11.429 19.689 0 12.625 10.232 22.857 22.857 22.857 8.4393 0 15.729-4.625 19.686-11.429h74.911c3.9607 6.8036 11.246 11.429 19.686 11.429 12.625 0 22.857-10.232 22.857-22.857 4e-3 -12.625-10.229-22.857-22.854-22.857zm-102.86 3.1714v-74.914a22.795 22.795 0 0 0 8.2571-8.2571h74.414l-13.736 22.893c-0.125-4e-3 -0.2393-0.0358-0.36429-0.0358-12.625 0-22.857 10.232-22.857 22.857 0 12.625 10.232 22.857 22.857 22.857 0.12499 0 0.23928-0.0358 0.36429-0.0358l13.736 22.893h-74.414a22.767 22.767 0 0 0-8.2571-8.2571zm62.857-37.457c0-3.15 2.5643-5.7143 5.7143-5.7143s5.7143 2.5643 5.7143 5.7143c0 3.15-2.5643 5.7143-5.7143 5.7143s-5.7143-2.5643-5.7143-5.7143zm45.714-57.143c0 3.15-2.5643 5.7143-5.7143 5.7143s-5.7143-2.5643-5.7143-5.7143c0-3.15 2.5643-5.7143 5.7143-5.7143s5.7143 2.5643 5.7143 5.7143zm-120-5.7143c3.15 0 5.7143 2.5643 5.7143 5.7143 0 3.15-2.5643 5.7143-5.7143 5.7143-3.15 0-5.7143-2.5643-5.7143-5.7143 0-3.15 2.5643-5.7143 5.7143-5.7143zm-5.7143 120c0-3.15 2.5643-5.7143 5.7143-5.7143 3.15 0 5.7143 2.5643 5.7143 5.7143 0 3.15-2.5643 5.7143-5.7143 5.7143-3.15 0-5.7143-2.5643-5.7143-5.7143zm120 5.7143c-3.15 0-5.7143-2.5643-5.7143-5.7143 0-3.15 2.5643-5.7143 5.7143-5.7143s5.7143 2.5643 5.7143 5.7143c0 3.15-2.5643 5.7143-5.7143 5.7143z" stroke-width=".35714"/>
 </g>
</svg>
