<svg width="604.72" height="604.72" version="1.1" viewBox="0 0 160 160" xmlns="http://www.w3.org/2000/svg">
 <g transform="translate(-199.08 -238.79)">
  <path d="m359.08 278.79v-30c0-5.5219-4.4781-10-10-10h-30c-5.5219 0-10 4.4781-10 10h-60c0-5.5219-4.4781-10-10-10h-30c-5.5219 0-10 4.4781-10 10v30c0 5.5219 4.4781 10 10 10v60c-5.5219 0-10 4.4781-10 10v30c0 5.5219 4.4781 10 10 10h30c5.5219 0 10-4.4781 10-10h60c0 5.5219 4.4781 10 10 10h30c5.5219 0 10-4.4781 10-10v-30c0-5.5219-4.4781-10-10-10v-60c5.5219 0 10-4.4781 10-10zm-30-20h10v10h-10zm-110 0h10v10h-10zm10 120h-10v-10h10zm110 0h-10v-10h10zm-10-30h-10c-5.5219 0-10 4.4781-10 10v10h-60v-10c0-5.5219-4.4781-10-10-10h-10v-60h10c5.5219 0 10-4.4781 10-10v-10h60v10c0 5.5219 4.4781 10 10 10h10z" stroke-width=".3125"/>
 </g>
</svg>
