<svg class="svg-inline--fa fa-text-width fa-w-14" width="512" height="512" aria-hidden="true" data-icon="text-width" data-prefix="fas" focusable="false" role="img" version="1.1" viewBox="0 0 512 512" xmlns="http://www.w3.org/2000/svg">
 <path d="m48 32h416c8.837 0 16 7.163 16 16v96c0 8.837-7.163 16-16 16h-35.496c-8.837 0-16-7.163-16-16v-48h-118.76v326h34.257c8.837 0 16 7.163 16 16v32c0 8.837-7.163 16-16 16h-144c-8.837 0-16-7.163-16-16v-32c0-8.837 7.163-16 16-16h34.257v-326h-118.76v48c0 8.837-7.163 16-16 16h-35.496c-8.837 0-16-7.163-16-16v-96c0-8.837 7.163-16 16-16z"/>
</svg>
