<?xml version="1.0" encoding="UTF-8" standalone="no"?>
<svg
   xmlns:dc="http://purl.org/dc/elements/1.1/"
   xmlns:cc="http://creativecommons.org/ns#"
   xmlns:rdf="http://www.w3.org/1999/02/22-rdf-syntax-ns#"
   xmlns:svg="http://www.w3.org/2000/svg"
   xmlns="http://www.w3.org/2000/svg"
   xmlns:sodipodi="http://sodipodi.sourceforge.net/DTD/sodipodi-0.dtd"
   xmlns:inkscape="http://www.inkscape.org/namespaces/inkscape"
   aria-hidden="true"
   focusable="false"
   data-prefix="fas"
   data-icon="trash-alt"
   class="svg-inline--fa fa-trash-alt fa-w-14"
   role="img"
   viewBox="0 0 160 160"
   version="1.1"
   id="svg4717"
   sodipodi:docname="trash.svg"
   width="160"
   height="160"
   inkscape:version="0.92.3 (2405546, 2018-03-11)">
  <metadata
     id="metadata4723">
    <rdf:RDF>
      <cc:Work
         rdf:about="">
        <dc:format>image/svg+xml</dc:format>
        <dc:type
           rdf:resource="http://purl.org/dc/dcmitype/StillImage" />
        <dc:title />
      </cc:Work>
    </rdf:RDF>
  </metadata>
  <defs
     id="defs4721" />
  <sodipodi:namedview
     pagecolor="#000"
     bordercolor="#666666"
     borderopacity="1"
     objecttolerance="10"
     gridtolerance="10"
     guidetolerance="10"
     inkscape:pageopacity="0"
     inkscape:pageshadow="2"
     inkscape:window-width="1053"
     inkscape:window-height="717"
     id="namedview4719"
     showgrid="false"
     fit-margin-top="0"
     fit-margin-left="0"
     fit-margin-right="0"
     fit-margin-bottom="0"
     inkscape:zoom="0.4609375"
     inkscape:cx="-322.71186"
     inkscape:cy="256"
     inkscape:window-x="0"
     inkscape:window-y="0"
     inkscape:window-maximized="0"
     inkscape:current-layer="svg4717" />
  <path
     d="M 20.000022,145.00001 A 14.999995,14.999995 0 0 0 35.000016,160 h 89.999964 a 14.999995,14.999995 0 0 0 15,-14.99999 V 40.000045 H 20.000022 Z M 104.99999,65.000035 a 4.9999983,4.9999983 0 0 1 9.99999,0 v 69.999975 a 4.9999983,4.9999983 0 0 1 -9.99999,0 z m -29.999987,0 a 4.9999983,4.9999983 0 0 1 9.999996,0 v 69.999975 a 4.9999983,4.9999983 0 0 1 -9.999996,0 z m -29.99999,0 a 4.9999985,4.9999985 0 0 1 9.999997,0 v 69.999975 a 4.9999985,4.9999985 0 0 1 -9.999997,0 z m 99.999957,-54.99998 h -37.49998 l -2.9375,-5.8437502 A 7.4999974,7.4999974 0 0 0 97.843745,5.4768149e-5 H 62.125007 A 7.4124975,7.4124975 0 0 0 55.437509,4.1563048 L 52.50001,10.000055 H 15.000023 a 4.9999983,4.9999983 0 0 0 -4.999998,5 v 10 a 4.9999983,4.9999983 0 0 0 4.999998,4.99999 H 144.99997 a 4.9999983,4.9999983 0 0 0 5,-4.99999 v -10 a 4.9999983,4.9999983 0 0 0 -5,-5 z"
     id="path4715"
     inkscape:connector-curvature="0"
     style="fill:#000000;stroke-width:0.31249988" />
</svg>
