<?xml version="1.0" encoding="UTF-8" standalone="no"?>
<!-- Created with Inkscape (http://www.inkscape.org/) -->

<svg
   xmlns:dc="http://purl.org/dc/elements/1.1/"
   xmlns:cc="http://creativecommons.org/ns#"
   xmlns:rdf="http://www.w3.org/1999/02/22-rdf-syntax-ns#"
   xmlns:svg="http://www.w3.org/2000/svg"
   xmlns="http://www.w3.org/2000/svg"
   xmlns:sodipodi="http://sodipodi.sourceforge.net/DTD/sodipodi-0.dtd"
   xmlns:inkscape="http://www.inkscape.org/namespaces/inkscape"
   width="33.750011mm"
   height="33.750011mm"
   viewBox="0 0 33.750013 33.750011"
   version="1.1"
   id="svg5086"
   inkscape:version="0.92.3 (2405546, 2018-03-11)"
   sodipodi:docname="alarm.svg">
  <defs
     id="defs5080" />
  <sodipodi:namedview
     id="base"
     pagecolor="#ffffff"
     bordercolor="#666666"
     borderopacity="1.0"
     inkscape:pageopacity="0.0"
     inkscape:pageshadow="2"
     inkscape:zoom="0.35"
     inkscape:cx="63.779548"
     inkscape:cy="63.779531"
     inkscape:document-units="mm"
     inkscape:current-layer="layer1"
     showgrid="false"
     fit-margin-top="0"
     fit-margin-left="0"
     fit-margin-right="0"
     fit-margin-bottom="0"
     inkscape:window-width="460"
     inkscape:window-height="403"
     inkscape:window-x="1392"
     inkscape:window-y="8"
     inkscape:window-maximized="0" />
  <metadata
     id="metadata5083">
    <rdf:RDF>
      <cc:Work
         rdf:about="">
        <dc:format>image/svg+xml</dc:format>
        <dc:type
           rdf:resource="http://purl.org/dc/dcmitype/StillImage" />
        <dc:title></dc:title>
      </cc:Work>
    </rdf:RDF>
  </metadata>
  <g
     inkscape:label="Layer 1"
     inkscape:groupmode="layer"
     id="layer1"
     transform="translate(-88.958328,-131.95833)">
    <path
       d="m 91.208317,165.70834 h 29.250003 q 2.25002,0 2.25002,-2.24999 v -29.25001 q 0,-2.24999 -2.25002,-2.24999 H 91.208317 q -2.24999,0 -2.24999,2.24999 v 29.25001 q 0,2.24999 2.24999,2.24999 z"
       style="fill:#ff0000;fill-rule:evenodd;stroke-width:0.26458332"
       id="path874"
       inkscape:connector-curvature="0" />
    <path
       d="m 95.913456,145.64697 0.838358,1.45208 2.444406,-3.3474 z"
       style="fill:#ffffff;fill-rule:evenodd;stroke-width:0.26458332"
       id="path876"
       inkscape:connector-curvature="0" />
    <path
       d="m 96.71554,139.48921 -3.258635,1.88135 2.476897,4.29014 3.258635,-1.88138 z"
       style="fill:#ffffff;fill-rule:evenodd;stroke-width:0.26458332"
       id="path878"
       inkscape:connector-curvature="0" />
    <path
       d="m 93.486565,141.40834 3.283162,-1.89553 -4.429972,-0.0908 z"
       style="fill:#ffffff;fill-rule:evenodd;stroke-width:0.26458332"
       id="path880"
       inkscape:connector-curvature="0" />
    <path
       d="m 101.68309,154.84042 0.48326,0.29614 q 1.27895,0.78375 2.0627,-0.49522 l 5.67044,-9.2533 q 0.78372,-1.27894 -0.49522,-2.06269 l -0.48326,-0.29615 q -1.27897,-0.78374 -2.06272,0.49523 l -5.67042,9.25327 q -0.78375,1.27897 0.49522,2.06272 z"
       style="fill:#ffffff;fill-rule:evenodd;stroke-width:0.26458332"
       id="path882"
       inkscape:connector-curvature="0" />
    <g
       transform="matrix(0.26458333,0,0,0.26458333,-31.041671,-128.66666)"
       id="Layer1068">
      <path
         d="m 479.7173,1070.9779 1.8265,1.1193 q 4.8339,2.9622 7.7961,-1.8717 l 21.4315,-34.973 q 2.9622,-4.8339 -1.8717,-7.7961 l -1.8265,-1.1193 q -4.8338,-2.9622 -7.796,1.8717 l -21.4315,34.973 q -2.9622,4.8339 1.8716,7.7961 z"
         style="fill:#000000;fill-rule:evenodd;stroke-width:0.5;stroke-linecap:round;stroke-linejoin:round"
         id="path884"
         inkscape:connector-curvature="0" />
      <path
         d="m 479.7173,1070.9779 1.8265,1.1193 q 4.8339,2.9622 7.7961,-1.8717 l 21.4315,-34.973 q 2.9622,-4.8339 -1.8717,-7.7961 l -1.8265,-1.1193 q -4.8338,-2.9622 -7.796,1.8717 l -21.4315,34.973 q -2.9622,4.8339 1.8716,7.7961 z"
         style="fill:none;stroke:#000000;stroke-width:0.5;stroke-linecap:round;stroke-linejoin:round;stroke-dasharray:none"
         id="path886"
         inkscape:connector-curvature="0" />
    </g>
    <g
       transform="matrix(0.26458333,0,0,0.26458333,-31.041671,-128.66666)"
       id="Layer1069">
      <path
         d="m 482.8988,1080.328 -0.0412,-23.6007 -16.1275,23.629 z"
         style="fill:#000000;fill-rule:evenodd;stroke-width:0.5;stroke-linecap:round;stroke-linejoin:round"
         id="path889"
         inkscape:connector-curvature="0" />
      <path
         d="m 482.8988,1080.328 -0.0412,-23.6007 -16.1275,23.629 z"
         style="fill:none;stroke:#000000;stroke-width:0.5;stroke-linecap:round;stroke-linejoin:round;stroke-dasharray:none"
         id="path891"
         inkscape:connector-curvature="0" />
    </g>
    <g
       transform="matrix(0.26458333,0,0,0.26458333,-31.041671,-128.66666)"
       id="Layer1070">
      <path
         d="m 471.7109,1073.386 11.3416,6.923 22.2968,-36.5279 -11.3417,-6.923 z"
         style="fill:#000000;fill-rule:evenodd;stroke-width:0.5;stroke-linecap:round;stroke-linejoin:round"
         id="path894"
         inkscape:connector-curvature="0" />
      <path
         d="m 471.7109,1073.386 11.3416,6.923 22.2968,-36.5279 -11.3417,-6.923 z"
         style="fill:none;stroke:#000000;stroke-width:0.5;stroke-linecap:round;stroke-linejoin:round;stroke-dasharray:none"
         id="path896"
         inkscape:connector-curvature="0" />
    </g>
    <g
       transform="matrix(0.26458333,0,0,0.26458333,-31.041671,-128.66666)"
       id="Layer1071">
      <path
         d="m 556.2239,1022.8502 -1.8265,-1.1193 q -4.8339,-2.9622 -7.7961,1.8716 l -21.4315,34.9731 q -2.9622,4.8338 1.8717,7.796 l 1.8265,1.1193 q 4.8338,2.9622 7.796,-1.8716 l 21.4315,-34.9731 q 2.9622,-4.8338 -1.8716,-7.796 z"
         style="fill:#000000;fill-rule:evenodd;stroke-width:0.5;stroke-linecap:round;stroke-linejoin:round"
         id="path899"
         inkscape:connector-curvature="0" />
      <path
         d="m 556.2239,1022.8502 -1.8265,-1.1193 q -4.8339,-2.9622 -7.7961,1.8716 l -21.4315,34.9731 q -2.9622,4.8338 1.8717,7.796 l 1.8265,1.1193 q 4.8338,2.9622 7.796,-1.8716 l 21.4315,-34.9731 q 2.9622,-4.8338 -1.8716,-7.796 z"
         style="fill:none;stroke:#000000;stroke-width:0.5;stroke-linecap:round;stroke-linejoin:round;stroke-dasharray:none"
         id="path901"
         inkscape:connector-curvature="0" />
    </g>
    <g
       transform="matrix(0.26458333,0,0,0.26458333,-31.041671,-128.66666)"
       id="Layer1072">
      <path
         d="m 553.0424,1013.5 0.0412,23.6008 16.1275,-23.629 z"
         style="fill:#000000;fill-rule:evenodd;stroke-width:0.5;stroke-linecap:round;stroke-linejoin:round"
         id="path904"
         inkscape:connector-curvature="0" />
      <path
         d="m 553.0424,1013.5 0.0412,23.6008 16.1275,-23.629 z"
         style="fill:none;stroke:#000000;stroke-width:0.5;stroke-linecap:round;stroke-linejoin:round;stroke-dasharray:none"
         id="path906"
         inkscape:connector-curvature="0" />
    </g>
    <g
       transform="matrix(0.26458333,0,0,0.26458333,-31.041671,-128.66666)"
       id="Layer1073">
      <path
         d="m 564.2303,1020.4421 -11.3416,-6.923 -22.2968,36.5279 11.3417,6.923 z"
         style="fill:#000000;fill-rule:evenodd;stroke-width:0.5;stroke-linecap:round;stroke-linejoin:round"
         id="path909"
         inkscape:connector-curvature="0" />
      <path
         d="m 564.2303,1020.4421 -11.3416,-6.923 -22.2968,36.5279 11.3417,6.923 z"
         style="fill:none;stroke:#000000;stroke-width:0.5;stroke-linecap:round;stroke-linejoin:round;stroke-dasharray:none"
         id="path911"
         inkscape:connector-curvature="0" />
    </g>
    <path
       d="m 116.10834,150.84193 -0.95219,-1.64923 -2.32386,3.54065 z"
       style="fill:#ffffff;fill-rule:evenodd;stroke-width:0.26458332"
       id="path914"
       inkscape:connector-curvature="0" />
    <path
       d="m 115.33255,157.0132 3.25864,-1.88137 -2.49399,-4.3197 -3.25864,1.88138 z"
       style="fill:#ffffff;fill-rule:evenodd;stroke-width:0.26458332"
       id="path916"
       inkscape:connector-curvature="0" />
    <path
       d="m 118.59682,155.11889 -3.28316,1.89553 4.39468,0.0297 z"
       style="fill:#ffffff;fill-rule:evenodd;stroke-width:0.26458332"
       id="path918"
       inkscape:connector-curvature="0" />
  </g>
</svg>
