<?xml version="1.0" encoding="UTF-8" standalone="no"?>
<!-- Created with Inkscape (http://www.inkscape.org/) -->

<svg
   xmlns:dc="http://purl.org/dc/elements/1.1/"
   xmlns:cc="http://creativecommons.org/ns#"
   xmlns:rdf="http://www.w3.org/1999/02/22-rdf-syntax-ns#"
   xmlns:svg="http://www.w3.org/2000/svg"
   xmlns="http://www.w3.org/2000/svg"
   xmlns:sodipodi="http://sodipodi.sourceforge.net/DTD/sodipodi-0.dtd"
   xmlns:inkscape="http://www.inkscape.org/namespaces/inkscape"
   width="33.749992mm"
   height="33.750011mm"
   viewBox="0 0 33.749993 33.750011"
   version="1.1"
   id="svg5086"
   inkscape:version="0.92.3 (2405546, 2018-03-11)"
   sodipodi:docname="na.svg">
  <defs
     id="defs5080" />
  <sodipodi:namedview
     id="base"
     pagecolor="#ffffff"
     bordercolor="#666666"
     borderopacity="1.0"
     inkscape:pageopacity="0.0"
     inkscape:pageshadow="2"
     inkscape:zoom="0.35"
     inkscape:cx="63.77951"
     inkscape:cy="63.779542"
     inkscape:document-units="mm"
     inkscape:current-layer="layer1"
     showgrid="false"
     fit-margin-top="0"
     fit-margin-left="0"
     fit-margin-right="0"
     fit-margin-bottom="0"
     inkscape:window-width="460"
     inkscape:window-height="403"
     inkscape:window-x="1392"
     inkscape:window-y="8"
     inkscape:window-maximized="0" />
  <metadata
     id="metadata5083">
    <rdf:RDF>
      <cc:Work
         rdf:about="">
        <dc:format>image/svg+xml</dc:format>
        <dc:type
           rdf:resource="http://purl.org/dc/dcmitype/StillImage" />
        <dc:title></dc:title>
      </cc:Work>
    </rdf:RDF>
  </metadata>
  <g
     inkscape:label="Layer 1"
     inkscape:groupmode="layer"
     id="layer1"
     transform="translate(-88.958338,-131.95833)">
    <path
       d="m 91.208332,165.70833 h 29.249998 q 2.24999,0 2.24999,-2.24999 v -29.25001 q 0,-2.24999 -2.24999,-2.24999 H 91.208332 q -2.24999,0 -2.24999,2.24999 v 29.25001 q 0,2.24999 2.24999,2.24999 z"
       style="fill:#a5a5a5;fill-rule:evenodd;stroke-width:0.26458332"
       id="path2186"
       inkscape:connector-curvature="0" />
    <path
       d="M 114.27084,148.83333 H 97.395852"
       style="fill:none;stroke:#ffffff;stroke-width:2.64583325;stroke-linecap:round;stroke-linejoin:round;stroke-dasharray:none"
       id="path2188"
       inkscape:connector-curvature="0" />
    <path
       d="m 114.27084,148.83333 a 3.3749985,3.7499925 45 0 1 3.375,3.375"
       style="fill:none;stroke:#ffffff;stroke-width:2.64583325;stroke-linecap:round;stroke-linejoin:round;stroke-dasharray:none"
       id="path2190"
       inkscape:connector-curvature="0" />
    <path
       d="m 97.395852,148.83333 a 3.3749985,3.7499925 45 0 1 -3.375025,-3.375"
       style="fill:none;stroke:#ffffff;stroke-width:2.64583325;stroke-linecap:round;stroke-linejoin:round;stroke-dasharray:none"
       id="path2192"
       inkscape:connector-curvature="0" />
    <path
       d="m 114.27084,157.27084 a 3.7499925,3.3749985 45 0 0 3.375,-3.375"
       style="fill:none;stroke:#ffffff;stroke-width:2.64583325;stroke-linecap:round;stroke-linejoin:round;stroke-dasharray:none"
       id="path2194"
       inkscape:connector-curvature="0" />
    <path
       d="m 97.395852,140.39582 a 3.7499925,3.3749985 45 0 0 -3.375025,3.37503"
       style="fill:none;stroke:#ffffff;stroke-width:2.64583325;stroke-linecap:round;stroke-linejoin:round;stroke-dasharray:none"
       id="path2196"
       inkscape:connector-curvature="0" />
    <path
       d="m 94.020827,145.45833 v -1.755"
       style="fill:none;stroke:#ffffff;stroke-width:2.64583325;stroke-linecap:round;stroke-linejoin:round;stroke-dasharray:none"
       id="path2198"
       inkscape:connector-curvature="0" />
    <path
       d="M 97.395852,140.39582 H 117.64584"
       style="fill:none;stroke:#ffffff;stroke-width:2.64583325;stroke-linecap:round;stroke-linejoin:round;stroke-dasharray:none"
       id="path2200"
       inkscape:connector-curvature="0" />
    <path
       d="M 94.020827,157.27084 H 114.27084"
       style="fill:none;stroke:#ffffff;stroke-width:2.64583325;stroke-linecap:round;stroke-linejoin:round;stroke-dasharray:none"
       id="path2202"
       inkscape:connector-curvature="0" />
    <path
       d="m 117.64584,153.89584 v -1.68751"
       style="fill:none;stroke:#ffffff;stroke-width:2.64583325;stroke-linecap:round;stroke-linejoin:round;stroke-dasharray:none"
       id="path2204"
       inkscape:connector-curvature="0" />
    <g
       transform="matrix(0.26458333,0,0,0.26458333,-68.54166,55.083338)"
       id="Layer1212">
      <path
         d="m 647.5243,406.2552 h 23.0616 q 8.504,0 8.504,-8.5039 v -23.0616 q 0,-8.504 -8.504,-8.504 h -23.0616 q -8.5039,0 -8.5039,8.504 v 23.0616 q 0,8.5039 8.5039,8.5039 z"
         style="fill:#000000;fill-rule:evenodd;stroke-width:6;stroke-linecap:round;stroke-linejoin:round"
         id="path2206"
         inkscape:connector-curvature="0" />
      <path
         d="m 647.5243,406.2552 h 23.0616 q 8.504,0 8.504,-8.5039 v -23.0616 q 0,-8.504 -8.504,-8.504 h -23.0616 q -8.5039,0 -8.5039,8.504 v 23.0616 q 0,8.5039 8.5039,8.5039 z"
         style="fill:none;stroke:#ffffff;stroke-width:6;stroke-linecap:round;stroke-linejoin:round;stroke-dasharray:none"
         id="path2208"
         inkscape:connector-curvature="0" />
    </g>
    <g
       transform="matrix(0.26458333,0,0,0.26458333,-68.54166,55.083338)"
       id="Layer1213">
      <path
         d="m 647.5243,342.4757 h 23.0616 q 8.504,0 8.504,-8.5039 v -23.0617 q 0,-8.5039 -8.504,-8.5039 h -23.0616 q -8.5039,0 -8.5039,8.5039 v 23.0617 q 0,8.5039 8.5039,8.5039 z"
         style="fill:#000000;fill-rule:evenodd;stroke-width:6;stroke-linecap:round;stroke-linejoin:round"
         id="path2211"
         inkscape:connector-curvature="0" />
      <path
         d="m 647.5243,342.4757 h 23.0616 q 8.504,0 8.504,-8.5039 v -23.0617 q 0,-8.5039 -8.504,-8.5039 h -23.0616 q -8.5039,0 -8.5039,8.5039 v 23.0617 q 0,8.5039 8.5039,8.5039 z"
         style="fill:none;stroke:#ffffff;stroke-width:6;stroke-linecap:round;stroke-linejoin:round;stroke-dasharray:none"
         id="path2213"
         inkscape:connector-curvature="0" />
    </g>
  </g>
</svg>
