<?xml version="1.0" encoding="UTF-8" standalone="no"?>
<!-- Created with Inkscape (http://www.inkscape.org/) -->

<svg
   xmlns:dc="http://purl.org/dc/elements/1.1/"
   xmlns:cc="http://creativecommons.org/ns#"
   xmlns:rdf="http://www.w3.org/1999/02/22-rdf-syntax-ns#"
   xmlns:svg="http://www.w3.org/2000/svg"
   xmlns="http://www.w3.org/2000/svg"
   xmlns:sodipodi="http://sodipodi.sourceforge.net/DTD/sodipodi-0.dtd"
   xmlns:inkscape="http://www.inkscape.org/namespaces/inkscape"
   width="33.749989mm"
   height="33.750011mm"
   viewBox="0 0 33.749989 33.750011"
   version="1.1"
   id="svg5066"
   inkscape:version="0.92.3 (2405546, 2018-03-11)"
   sodipodi:docname="ok.svg">
  <defs
     id="defs5060" />
  <sodipodi:namedview
     id="base"
     pagecolor="#ffffff"
     bordercolor="#666666"
     borderopacity="1.0"
     inkscape:pageopacity="0.0"
     inkscape:pageshadow="2"
     inkscape:zoom="0.35"
     inkscape:cx="63.779507"
     inkscape:cy="63.779554"
     inkscape:document-units="mm"
     inkscape:current-layer="layer1"
     showgrid="false"
     fit-margin-top="0"
     fit-margin-left="0"
     fit-margin-right="0"
     fit-margin-bottom="0"
     inkscape:window-width="548"
     inkscape:window-height="561"
     inkscape:window-x="1005"
     inkscape:window-y="30"
     inkscape:window-maximized="0" />
  <metadata
     id="metadata5063">
    <rdf:RDF>
      <cc:Work
         rdf:about="">
        <dc:format>image/svg+xml</dc:format>
        <dc:type
           rdf:resource="http://purl.org/dc/dcmitype/StillImage" />
        <dc:title></dc:title>
      </cc:Work>
    </rdf:RDF>
  </metadata>
  <g
     inkscape:label="Layer 1"
     inkscape:groupmode="layer"
     id="layer1"
     transform="translate(-60.389899,-343.625)">
    <path
       d="m 62.639891,377.37501 h 29.250005 q 2.24999,0 2.24999,-2.25001 v -29.25001 q 0,-2.24999 -2.24999,-2.24999 H 62.639891 q -2.24999,0 -2.24999,2.24999 V 375.125 q 0,2.25001 2.24999,2.25001 z"
       style="fill:#00db00;fill-rule:evenodd;stroke-width:0.26458332"
       id="path29"
       inkscape:connector-curvature="0" />
    <g
       transform="matrix(0.26458333,0,0,0.26458333,52.88989,-438.25)"
       id="Layer1300">
      <path
         d="m 50.5177,3009.8878 a 39.085752,7.5127099 45 1 1 55.2756,55.2756 39.085752,7.5127099 45 0 1 -55.2756,-55.2756 z"
         style="fill:#e8eef7;fill-rule:evenodd;stroke-width:0.23999999;stroke-linecap:round;stroke-linejoin:round"
         id="path2892"
         inkscape:connector-curvature="0" />
      <path
         d="m 50.5177,3009.8878 a 39.085752,7.5127099 45 1 1 55.2756,55.2756 39.085752,7.5127099 45 0 1 -55.2756,-55.2756 z"
         style="fill:none;stroke:#000000;stroke-width:0.23999999;stroke-linecap:round;stroke-linejoin:round;stroke-dasharray:none"
         id="path2894"
         inkscape:connector-curvature="0" />
    </g>
    <path
       d="m 86.039879,372.50001 a 22.437407,18.275168 79.2024 0 1 -21.524992,-19.725"
       style="fill:none;stroke:#000000;stroke-width:1.58749998;stroke-linecap:butt;stroke-linejoin:miter;stroke-dasharray:none"
       id="path2897"
       inkscape:connector-curvature="0" />
    <path
       d="m 63.830093,352.8402 5.980112,5.98011 2.862342,-2.86237 -5.980112,-5.98011 z"
       style="fill:#000000;fill-rule:evenodd;stroke-width:0.26458332"
       id="path2899"
       inkscape:connector-curvature="0" />
    <path
       d="m 80.027567,367.29971 6.018795,6.01882 2.420117,-2.42009 -6.018821,-6.01883 z"
       style="fill:#000000;fill-rule:evenodd;stroke-width:0.26458332"
       id="path2901"
       inkscape:connector-curvature="0" />
    <path
       d="M 81.160222,366.87947 A 10.181378,6.5123483 55.9942 0 1 71.028717,357.33169"
       style="fill:none;stroke:#000000;stroke-width:1.58749998;stroke-linecap:round;stroke-linejoin:round;stroke-dasharray:none"
       id="path2903"
       inkscape:connector-curvature="0" />
    <g
       transform="matrix(0.26458333,0,0,0.26458333,52.88989,-438.25)"
       id="Layer1301">
      <path
         d="m 54.6363,2976.7553 22.602,22.602 6.471,-6.471 -22.602,-22.602 z"
         style="fill:#000000;fill-rule:evenodd;stroke-width:0.23999999;stroke-linecap:round;stroke-linejoin:round"
         id="path2905"
         inkscape:connector-curvature="0" />
      <path
         d="m 54.6363,2976.7553 22.602,22.602 6.471,-6.471 -22.602,-22.602 z"
         style="fill:none;stroke:#000000;stroke-width:0.23999999;stroke-linecap:round;stroke-linejoin:round;stroke-dasharray:none"
         id="path2907"
         inkscape:connector-curvature="0" />
    </g>
    <g
       transform="matrix(0.26458333,0,0,0.26458333,52.88989,-438.25)"
       id="Layer1302">
      <path
         d="m 114.5197,3032.7641 22.5767,22.5767 6.2129,-6.2129 -22.5767,-22.5767 z"
         style="fill:#000000;fill-rule:evenodd;stroke-width:0.23999999;stroke-linecap:round;stroke-linejoin:round"
         id="path2910"
         inkscape:connector-curvature="0" />
      <path
         d="m 114.5197,3032.7641 22.5767,22.5767 6.2129,-6.2129 -22.5767,-22.5767 z"
         style="fill:none;stroke:#000000;stroke-width:0.23999999;stroke-linecap:round;stroke-linejoin:round;stroke-dasharray:none"
         id="path2912"
         inkscape:connector-curvature="0" />
    </g>
    <path
       d="M 81.430308,367.68975 A 11.172402,6.5372192 50.8477 0 1 69.775016,357.72414"
       style="fill:none;stroke:#000000;stroke-width:1.58749998;stroke-linecap:round;stroke-linejoin:round;stroke-dasharray:none"
       id="path2915"
       inkscape:connector-curvature="0" />
    <path
       d="M 81.790433,368.5901 A 12.971515,6.5617196 48.7237 0 1 68.285491,356.88581"
       style="fill:none;stroke:#000000;stroke-width:1.58749998;stroke-linecap:round;stroke-linejoin:round;stroke-dasharray:none"
       id="path2917"
       inkscape:connector-curvature="0" />
    <path
       d="M 83.230957,369.49043 A 16.019119,6.5806637 45.0313 0 1 66.124718,355.44529"
       style="fill:none;stroke:#000000;stroke-width:1.58749998;stroke-linecap:round;stroke-linejoin:round;stroke-dasharray:none"
       id="path2919"
       inkscape:connector-curvature="0" />
    <path
       d="M 84.131307,371.29108 A 16.019119,6.5806637 45.0313 0 1 67.025042,357.24594"
       style="fill:none;stroke:#000000;stroke-width:1.58749998;stroke-linecap:round;stroke-linejoin:round;stroke-dasharray:none"
       id="path2921"
       inkscape:connector-curvature="0" />
    <path
       d="M 84.389885,372.01135 A 15.193195,6.576986 45.5176 0 1 68.18397,358.68646"
       style="fill:none;stroke:#000000;stroke-width:1.58749998;stroke-linecap:round;stroke-linejoin:round;stroke-dasharray:none"
       id="path2923"
       inkscape:connector-curvature="0" />
    <path
       d="m 66.515429,350.11264 6.037341,6.03736 1.04357,-1.04357 -6.037368,-6.03734 z"
       style="fill:#ffffff;fill-rule:evenodd;stroke-width:0.26458332"
       id="path2929"
       inkscape:connector-curvature="0" />
    <path
       d="m 82.349445,364.96264 6.037341,6.03737 1.04357,-1.04357 -6.037368,-6.03734 z"
       style="fill:#ffffff;fill-rule:evenodd;stroke-width:0.26458332"
       id="path2931"
       inkscape:connector-curvature="0" />
  </g>
</svg>
