<?xml version="1.0" encoding="UTF-8" standalone="no"?>
<!-- Created with Inkscape (http://www.inkscape.org/) -->

<svg
   xmlns:dc="http://purl.org/dc/elements/1.1/"
   xmlns:cc="http://creativecommons.org/ns#"
   xmlns:rdf="http://www.w3.org/1999/02/22-rdf-syntax-ns#"
   xmlns:svg="http://www.w3.org/2000/svg"
   xmlns="http://www.w3.org/2000/svg"
   xmlns:sodipodi="http://sodipodi.sourceforge.net/DTD/sodipodi-0.dtd"
   xmlns:inkscape="http://www.inkscape.org/namespaces/inkscape"
   width="33.750011mm"
   height="33.750011mm"
   viewBox="0 0 33.750013 33.750011"
   version="1.1"
   id="svg5086"
   inkscape:version="0.92.3 (2405546, 2018-03-11)"
   sodipodi:docname="lost.svg">
  <defs
     id="defs5080" />
  <sodipodi:namedview
     id="base"
     pagecolor="#ffffff"
     bordercolor="#666666"
     borderopacity="1.0"
     inkscape:pageopacity="0.0"
     inkscape:pageshadow="2"
     inkscape:zoom="0.35"
     inkscape:cx="63.779548"
     inkscape:cy="63.779531"
     inkscape:document-units="mm"
     inkscape:current-layer="layer1"
     showgrid="false"
     fit-margin-top="0"
     fit-margin-left="0"
     fit-margin-right="0"
     fit-margin-bottom="0"
     inkscape:window-width="460"
     inkscape:window-height="403"
     inkscape:window-x="1392"
     inkscape:window-y="8"
     inkscape:window-maximized="0" />
  <metadata
     id="metadata5083">
    <rdf:RDF>
      <cc:Work
         rdf:about="">
        <dc:format>image/svg+xml</dc:format>
        <dc:type
           rdf:resource="http://purl.org/dc/dcmitype/StillImage" />
        <dc:title></dc:title>
      </cc:Work>
    </rdf:RDF>
  </metadata>
  <g
     inkscape:label="Layer 1"
     inkscape:groupmode="layer"
     id="layer1"
     transform="translate(-88.958328,-131.95833)">
    <path
       d="m 91.208348,165.70834 h 29.250002 q 2.24999,0 2.24999,-2.25001 v -29.25001 q 0,-2.24999 -2.24999,-2.24999 H 91.208348 q -2.25002,0 -2.25002,2.24999 v 29.25001 q 0,2.25001 2.25002,2.25001 z"
       style="fill:#ffc000;fill-rule:evenodd;stroke-width:0.26458332"
       id="path3205"
       inkscape:connector-curvature="0" />
    <path
       d="m 108.69857,151.62608 a 6.6836396,4.8750008 75 1 1 -6.43874,-5.19414 6.6836396,4.8750008 75 0 1 6.43874,5.19414 z"
       style="fill:#ffffff;fill-rule:evenodd;stroke-width:0.26458332"
       id="path3207"
       inkscape:connector-curvature="0" />
    <path
       d="m 107.14584,149.39583 a 5.062511,3.1874883 0 1 1 -5.06251,-3.18749 5.062511,3.1874883 0 0 1 5.06251,3.18749 z"
       style="fill:#ffffff;fill-rule:evenodd;stroke-width:0.26458332"
       id="path3209"
       inkscape:connector-curvature="0" />
    <path
       d="m 115.88334,143.24583 a 5.812499,5.812499 0 1 1 -5.8125,-5.8125 5.812499,5.812499 0 0 1 5.8125,5.8125 z"
       style="fill:#ffffff;fill-rule:evenodd;stroke-width:0.26458332"
       id="path3211"
       inkscape:connector-curvature="0" />
    <path
       d="m 96.833338,141.33334 a 9.3750077,18.749989 0 0 0 9.375002,18.74999"
       style="fill:none;stroke:#000000;stroke-width:1.58749998;stroke-linecap:round;stroke-linejoin:round;stroke-dasharray:none"
       id="path3213"
       inkscape:connector-curvature="0" />
    <path
       d="m 115.58335,141.33334 a 9.3750077,18.749989 0 0 1 -9.37501,18.74999"
       style="fill:none;stroke:#000000;stroke-width:1.58749998;stroke-linecap:round;stroke-linejoin:round;stroke-dasharray:none"
       id="path3215"
       inkscape:connector-curvature="0" />
    <path
       d="m 106.20834,138.40834 v 21.67499"
       style="fill:none;stroke:#000000;stroke-width:1.58749998;stroke-linecap:round;stroke-linejoin:round;stroke-dasharray:none"
       id="path3217"
       inkscape:connector-curvature="0" />
    <path
       d="m 96.833338,141.33334 a 9.3750077,3.7499925 0 0 1 9.375002,-3.75002 9.3750077,3.7499925 0 0 1 9.37501,3.75002"
       style="fill:none;stroke:#000000;stroke-width:1.58749998;stroke-linecap:round;stroke-linejoin:round;stroke-dasharray:none"
       id="path3219"
       inkscape:connector-curvature="0" />
    <g
       transform="matrix(0.26458333,0,0,0.26458333,43.958339,-93.041666)"
       id="Layer1331">
      <path
         d="m 229.6063,868.8189 h 11.3386 v -2.8346 h -11.3386 z"
         style="fill:#000000;fill-rule:evenodd;stroke-width:6;stroke-linecap:round;stroke-linejoin:round"
         id="path3221"
         inkscape:connector-curvature="0" />
      <path
         d="m 229.6063,868.8189 h 11.3386 v -2.8346 h -11.3386 z"
         style="fill:none;stroke:#000000;stroke-width:6;stroke-linecap:round;stroke-linejoin:round;stroke-dasharray:none"
         id="path3223"
         inkscape:connector-curvature="0" />
    </g>
    <path
       d="M 97.208328,146.95833 H 115.20833"
       style="fill:none;stroke:#000000;stroke-width:1.58749998;stroke-linecap:round;stroke-linejoin:round;stroke-dasharray:none"
       id="path3226"
       inkscape:connector-curvature="0" />
    <g
       transform="matrix(0.26458333,0,0,0.26458333,43.958339,-93.041666)"
       id="Layer1332">
      <path
         d="m 237.2522,882.9635 a 17.9882,16.5718 165 1 1 -21.6644,-11.3514 17.9882,16.5718 165 0 1 21.6644,11.3514 z"
         style="fill:#000000;fill-rule:evenodd;stroke-width:0.75;stroke-linecap:round;stroke-linejoin:round"
         id="path3228"
         inkscape:connector-curvature="0" />
      <path
         d="m 237.2522,882.9635 a 17.9882,16.5718 165 1 1 -21.6644,-11.3514 17.9882,16.5718 165 0 1 21.6644,11.3514 z"
         style="fill:none;stroke:#000000;stroke-width:0.75;stroke-linecap:round;stroke-linejoin:round;stroke-dasharray:none"
         id="path3230"
         inkscape:connector-curvature="0" />
    </g>
    <g
       transform="matrix(0.26458333,0,0,0.26458333,43.958339,-93.041666)"
       id="Layer1333">
      <path
         d="m 261.026,934.5424 a 13.7886,25.358 -165 1 1 -6.7556,-28.0627 13.7886,25.358 -165 0 1 6.7556,28.0627 z"
         style="fill:#000000;fill-rule:evenodd;stroke-width:0.75;stroke-linecap:round;stroke-linejoin:round"
         id="path3233"
         inkscape:connector-curvature="0" />
      <path
         d="m 261.026,934.5424 a 13.7886,25.358 -165 1 1 -6.7556,-28.0627 13.7886,25.358 -165 0 1 6.7556,28.0627 z"
         style="fill:none;stroke:#000000;stroke-width:0.75;stroke-linecap:round;stroke-linejoin:round;stroke-dasharray:none"
         id="path3235"
         inkscape:connector-curvature="0" />
    </g>
    <g
       transform="matrix(0.26458333,0,0,0.26458333,43.958339,-93.041666)"
       id="Layer1334">
      <path
         d="m 202.6772,904.252 h 32.5984 v -26.9292 h -32.5984 z"
         style="fill:#000000;fill-rule:evenodd;stroke-width:0.75;stroke-linecap:round;stroke-linejoin:round"
         id="path3238"
         inkscape:connector-curvature="0" />
      <path
         d="m 202.6772,904.252 h 32.5984 v -26.9292 h -32.5984 z"
         style="fill:none;stroke:#000000;stroke-width:0.75;stroke-linecap:round;stroke-linejoin:round;stroke-dasharray:none"
         id="path3240"
         inkscape:connector-curvature="0" />
    </g>
    <g
       transform="matrix(0.26458333,0,0,0.26458333,43.958339,-93.041666)"
       id="Layer1335">
      <path
         d="M 235.2756,922.3937 H 267.874 V 909.9213 H 235.2756 Z"
         style="fill:#000000;fill-rule:evenodd;stroke-width:0.75;stroke-linecap:round;stroke-linejoin:round"
         id="path3243"
         inkscape:connector-curvature="0" />
      <path
         d="M 235.2756,922.3937 H 267.874 V 909.9213 H 235.2756 Z"
         style="fill:none;stroke:#000000;stroke-width:0.75;stroke-linecap:round;stroke-linejoin:round;stroke-dasharray:none"
         id="path3245"
         inkscape:connector-curvature="0" />
    </g>
    <g
       transform="matrix(0.26458333,0,0,0.26458333,43.958339,-93.041666)"
       id="Layer1336">
      <path
         d="m 205.3951,874.4882 10.9522,-2.9347 -0.7337,-2.738 -10.9522,2.9346 z"
         style="fill:#000000;fill-rule:evenodd;stroke-width:6;stroke-linecap:round;stroke-linejoin:round"
         id="path3248"
         inkscape:connector-curvature="0" />
      <path
         d="m 205.3951,874.4882 10.9522,-2.9347 -0.7337,-2.738 -10.9522,2.9346 z"
         style="fill:none;stroke:#000000;stroke-width:6;stroke-linecap:round;stroke-linejoin:round;stroke-dasharray:none"
         id="path3250"
         inkscape:connector-curvature="0" />
    </g>
    <g
       transform="matrix(0.26458333,0,0,0.26458333,43.958339,-93.041666)"
       id="Layer1337">
      <path
         d="m 254.7708,871.2701 10.9522,2.9346 0.7337,-2.738 -10.9522,-2.9347 z"
         style="fill:#000000;fill-rule:evenodd;stroke-width:6;stroke-linecap:round;stroke-linejoin:round"
         id="path3253"
         inkscape:connector-curvature="0" />
      <path
         d="m 254.7708,871.2701 10.9522,2.9346 0.7337,-2.738 -10.9522,-2.9347 z"
         style="fill:none;stroke:#000000;stroke-width:6;stroke-linecap:round;stroke-linejoin:round;stroke-dasharray:none"
         id="path3255"
         inkscape:connector-curvature="0" />
    </g>
  </g>
</svg>
