<?xml version="1.0" encoding="UTF-8" standalone="no"?>
<!-- Created with Inkscape (http://www.inkscape.org/) -->

<svg
   xmlns:dc="http://purl.org/dc/elements/1.1/"
   xmlns:cc="http://creativecommons.org/ns#"
   xmlns:rdf="http://www.w3.org/1999/02/22-rdf-syntax-ns#"
   xmlns:svg="http://www.w3.org/2000/svg"
   xmlns="http://www.w3.org/2000/svg"
   xmlns:sodipodi="http://sodipodi.sourceforge.net/DTD/sodipodi-0.dtd"
   xmlns:inkscape="http://www.inkscape.org/namespaces/inkscape"
   width="33.750011mm"
   height="33.750011mm"
   viewBox="0 0 33.750013 33.750011"
   version="1.1"
   id="svg5086"
   inkscape:version="0.92.3 (2405546, 2018-03-11)"
   sodipodi:docname="na.svg">
  <defs
     id="defs5080" />
  <sodipodi:namedview
     id="base"
     pagecolor="#ffffff"
     bordercolor="#666666"
     borderopacity="1.0"
     inkscape:pageopacity="0.0"
     inkscape:pageshadow="2"
     inkscape:zoom="0.35"
     inkscape:cx="63.779548"
     inkscape:cy="63.779531"
     inkscape:document-units="mm"
     inkscape:current-layer="layer1"
     showgrid="false"
     fit-margin-top="0"
     fit-margin-left="0"
     fit-margin-right="0"
     fit-margin-bottom="0"
     inkscape:window-width="460"
     inkscape:window-height="403"
     inkscape:window-x="1392"
     inkscape:window-y="8"
     inkscape:window-maximized="0" />
  <metadata
     id="metadata5083">
    <rdf:RDF>
      <cc:Work
         rdf:about="">
        <dc:format>image/svg+xml</dc:format>
        <dc:type
           rdf:resource="http://purl.org/dc/dcmitype/StillImage" />
        <dc:title></dc:title>
      </cc:Work>
    </rdf:RDF>
  </metadata>
  <g
     inkscape:label="Layer 1"
     inkscape:groupmode="layer"
     id="layer1"
     transform="translate(-88.958328,-131.95833)">
    <path
       d="m 91.208332,165.70835 h 29.249998 q 2.24999,0 2.24999,-2.25001 v -29.25001 q 0,-2.24999 -2.24999,-2.24999 H 91.208332 q -2.24999,0 -2.24999,2.24999 v 29.25001 q 0,2.25001 2.24999,2.25001 z"
       style="fill:#a5a5a5;fill-rule:evenodd;stroke-width:0.26458332"
       id="path2273"
       inkscape:connector-curvature="0" />
    <path
       d="m 108.69858,151.62609 a 6.6836396,4.8750008 75 1 1 -6.43874,-5.19414 6.6836396,4.8750008 75 0 1 6.43874,5.19414 z"
       style="fill:#ffffff;fill-rule:evenodd;stroke-width:0.26458332"
       id="path2275"
       inkscape:connector-curvature="0" />
    <path
       d="m 107.14582,149.39584 a 5.062511,3.1874883 0 1 1 -5.06248,-3.18749 5.062511,3.1874883 0 0 1 5.06248,3.18749 z"
       style="fill:#ffffff;fill-rule:evenodd;stroke-width:0.26458332"
       id="path2277"
       inkscape:connector-curvature="0" />
    <path
       d="m 115.88334,143.24584 a 5.812499,5.812499 0 1 1 -5.8125,-5.8125 5.812499,5.812499 0 0 1 5.8125,5.8125 z"
       style="fill:#ffffff;fill-rule:evenodd;stroke-width:0.26458332"
       id="path2279"
       inkscape:connector-curvature="0" />
    <path
       d="m 96.833347,141.33335 a 9.3750077,18.749989 0 0 0 9.374973,18.74999"
       style="fill:none;stroke:#000000;stroke-width:1.58749998;stroke-linecap:round;stroke-linejoin:round;stroke-dasharray:none"
       id="path2281"
       inkscape:connector-curvature="0" />
    <path
       d="m 115.58333,141.33335 a 9.3750077,18.749989 0 0 1 -9.37501,18.74999"
       style="fill:none;stroke:#000000;stroke-width:1.58749998;stroke-linecap:round;stroke-linejoin:round;stroke-dasharray:none"
       id="path2283"
       inkscape:connector-curvature="0" />
    <path
       d="m 106.20832,138.40835 v 21.67499"
       style="fill:none;stroke:#000000;stroke-width:1.58749998;stroke-linecap:round;stroke-linejoin:round;stroke-dasharray:none"
       id="path2285"
       inkscape:connector-curvature="0" />
    <path
       d="m 96.833347,141.33335 a 9.3750077,3.7499925 0 0 1 9.374973,-3.75002 9.3750077,3.7499925 0 0 1 9.37501,3.75002"
       style="fill:none;stroke:#000000;stroke-width:1.58749998;stroke-linecap:round;stroke-linejoin:round;stroke-dasharray:none"
       id="path2287"
       inkscape:connector-curvature="0" />
    <g
       transform="matrix(0.26458333,0,0,0.26458333,-68.541661,-93.041664)"
       id="Layer1219">
      <path
         d="m 654.8031,868.8189 h 11.3386 v -2.8346 h -11.3386 z"
         style="fill:#000000;fill-rule:evenodd;stroke-width:6;stroke-linecap:round;stroke-linejoin:round"
         id="path2289"
         inkscape:connector-curvature="0" />
      <path
         d="m 654.8031,868.8189 h 11.3386 v -2.8346 h -11.3386 z"
         style="fill:none;stroke:#000000;stroke-width:6;stroke-linecap:round;stroke-linejoin:round;stroke-dasharray:none"
         id="path2291"
         inkscape:connector-curvature="0" />
    </g>
    <path
       d="M 97.208341,146.95834 H 115.20834"
       style="fill:none;stroke:#000000;stroke-width:1.58749998;stroke-linecap:round;stroke-linejoin:round;stroke-dasharray:none"
       id="path2294"
       inkscape:connector-curvature="0" />
    <g
       transform="matrix(0.26458333,0,0,0.26458333,-68.541661,-93.041664)"
       id="Layer1220">
      <path
         d="m 662.449,882.9635 a 17.9882,16.5718 165 1 1 -21.6643,-11.3514 17.9882,16.5718 165 0 1 21.6643,11.3514 z"
         style="fill:#000000;fill-rule:evenodd;stroke-width:0.75;stroke-linecap:round;stroke-linejoin:round"
         id="path2296"
         inkscape:connector-curvature="0" />
      <path
         d="m 662.449,882.9635 a 17.9882,16.5718 165 1 1 -21.6643,-11.3514 17.9882,16.5718 165 0 1 21.6643,11.3514 z"
         style="fill:none;stroke:#000000;stroke-width:0.75;stroke-linecap:round;stroke-linejoin:round;stroke-dasharray:none"
         id="path2298"
         inkscape:connector-curvature="0" />
    </g>
    <g
       transform="matrix(0.26458333,0,0,0.26458333,-68.541661,-93.041664)"
       id="Layer1221">
      <path
         d="m 686.2229,934.5424 a 13.7886,25.358 -165 1 1 -6.7556,-28.0627 13.7886,25.358 -165 0 1 6.7556,28.0627 z"
         style="fill:#000000;fill-rule:evenodd;stroke-width:0.75;stroke-linecap:round;stroke-linejoin:round"
         id="path2301"
         inkscape:connector-curvature="0" />
      <path
         d="m 686.2229,934.5424 a 13.7886,25.358 -165 1 1 -6.7556,-28.0627 13.7886,25.358 -165 0 1 6.7556,28.0627 z"
         style="fill:none;stroke:#000000;stroke-width:0.75;stroke-linecap:round;stroke-linejoin:round;stroke-dasharray:none"
         id="path2303"
         inkscape:connector-curvature="0" />
    </g>
    <g
       transform="matrix(0.26458333,0,0,0.26458333,-68.541661,-93.041664)"
       id="Layer1222">
      <path
         d="m 627.874,904.252 h 32.5984 V 877.3228 H 627.874 Z"
         style="fill:#000000;fill-rule:evenodd;stroke-width:0.75;stroke-linecap:round;stroke-linejoin:round"
         id="path2306"
         inkscape:connector-curvature="0" />
      <path
         d="m 627.874,904.252 h 32.5984 V 877.3228 H 627.874 Z"
         style="fill:none;stroke:#000000;stroke-width:0.75;stroke-linecap:round;stroke-linejoin:round;stroke-dasharray:none"
         id="path2308"
         inkscape:connector-curvature="0" />
    </g>
    <g
       transform="matrix(0.26458333,0,0,0.26458333,-68.541661,-93.041664)"
       id="Layer1223">
      <path
         d="m 660.4724,922.3937 h 32.5985 v -12.4724 h -32.5985 z"
         style="fill:#000000;fill-rule:evenodd;stroke-width:0.75;stroke-linecap:round;stroke-linejoin:round"
         id="path2311"
         inkscape:connector-curvature="0" />
      <path
         d="m 660.4724,922.3937 h 32.5985 v -12.4724 h -32.5985 z"
         style="fill:none;stroke:#000000;stroke-width:0.75;stroke-linecap:round;stroke-linejoin:round;stroke-dasharray:none"
         id="path2313"
         inkscape:connector-curvature="0" />
    </g>
    <g
       transform="matrix(0.26458333,0,0,0.26458333,-68.541661,-93.041664)"
       id="Layer1315">
      <path
         d="m 630.5919,874.4882 10.9523,-2.9347 -0.7337,-2.738 -10.9522,2.9346 z"
         style="fill:#000000;fill-rule:evenodd;stroke-width:6;stroke-linecap:round;stroke-linejoin:round"
         id="path3089"
         inkscape:connector-curvature="0" />
      <path
         d="m 630.5919,874.4882 10.9523,-2.9347 -0.7337,-2.738 -10.9522,2.9346 z"
         style="fill:none;stroke:#000000;stroke-width:6;stroke-linecap:round;stroke-linejoin:round;stroke-dasharray:none"
         id="path3091"
         inkscape:connector-curvature="0" />
    </g>
    <g
       transform="matrix(0.26458333,0,0,0.26458333,-68.541661,-93.041664)"
       id="Layer1316">
      <path
         d="m 679.9677,871.2701 10.9522,2.9346 0.7336,-2.738 -10.9522,-2.9347 z"
         style="fill:#000000;fill-rule:evenodd;stroke-width:6;stroke-linecap:round;stroke-linejoin:round"
         id="path3094"
         inkscape:connector-curvature="0" />
      <path
         d="m 679.9677,871.2701 10.9522,2.9346 0.7336,-2.738 -10.9522,-2.9347 z"
         style="fill:none;stroke:#000000;stroke-width:6;stroke-linecap:round;stroke-linejoin:round;stroke-dasharray:none"
         id="path3096"
         inkscape:connector-curvature="0" />
    </g>
  </g>
</svg>
