<?xml version="1.0" encoding="UTF-8" standalone="no"?>
<!-- Created with Inkscape (http://www.inkscape.org/) -->

<svg
   xmlns:dc="http://purl.org/dc/elements/1.1/"
   xmlns:cc="http://creativecommons.org/ns#"
   xmlns:rdf="http://www.w3.org/1999/02/22-rdf-syntax-ns#"
   xmlns:svg="http://www.w3.org/2000/svg"
   xmlns="http://www.w3.org/2000/svg"
   xmlns:sodipodi="http://sodipodi.sourceforge.net/DTD/sodipodi-0.dtd"
   xmlns:inkscape="http://www.inkscape.org/namespaces/inkscape"
   width="33.749981mm"
   height="33.750011mm"
   viewBox="0 0 33.749982 33.750011"
   version="1.1"
   id="svg5086"
   inkscape:version="0.92.3 (2405546, 2018-03-11)"
   sodipodi:docname="ok.svg">
  <defs
     id="defs5080" />
  <sodipodi:namedview
     id="base"
     pagecolor="#ffffff"
     bordercolor="#666666"
     borderopacity="1.0"
     inkscape:pageopacity="0.0"
     inkscape:pageshadow="2"
     inkscape:zoom="0.35"
     inkscape:cx="-129.58385"
     inkscape:cy="270.41625"
     inkscape:document-units="mm"
     inkscape:current-layer="layer1"
     showgrid="false"
     fit-margin-top="0"
     fit-margin-left="0"
     fit-margin-right="0"
     fit-margin-bottom="0"
     inkscape:window-width="460"
     inkscape:window-height="403"
     inkscape:window-x="1392"
     inkscape:window-y="8"
     inkscape:window-maximized="0" />
  <metadata
     id="metadata5083">
    <rdf:RDF>
      <cc:Work
         rdf:about="">
        <dc:format>image/svg+xml</dc:format>
        <dc:type
           rdf:resource="http://purl.org/dc/dcmitype/StillImage" />
        <dc:title></dc:title>
      </cc:Work>
    </rdf:RDF>
  </metadata>
  <g
     inkscape:label="Layer 1"
     inkscape:groupmode="layer"
     id="layer1"
     transform="translate(-140.11906,-186.63096)">
    <path
       d="m 142.36905,220.38097 h 29.25 q 2.24999,0 2.24999,-2.25001 v -29.25001 q 0,-2.24999 -2.24999,-2.24999 h -29.25 q -2.24999,0 -2.24999,2.24999 v 29.25001 q 0,2.25001 2.24999,2.25001 z"
       style="fill:#00db00;fill-rule:evenodd;stroke-width:0.26458332"
       id="path3258"
       inkscape:connector-curvature="0" />
    <path
       d="m 159.85928,206.29871 a 6.6836396,4.8750008 75 1 1 -6.43874,-5.19414 6.6836396,4.8750008 75 0 1 6.43874,5.19414 z"
       style="fill:#ffffff;fill-rule:evenodd;stroke-width:0.26458332"
       id="path3260"
       inkscape:connector-curvature="0" />
    <path
       d="m 158.30654,204.06846 a 5.062511,3.1874883 0 1 1 -5.06248,-3.18749 5.062511,3.1874883 0 0 1 5.06248,3.18749 z"
       style="fill:#ffffff;fill-rule:evenodd;stroke-width:0.26458332"
       id="path3262"
       inkscape:connector-curvature="0" />
    <path
       d="m 167.04404,197.91846 a 5.812499,5.812499 0 1 1 -5.8125,-5.8125 5.812499,5.812499 0 0 1 5.8125,5.8125 z"
       style="fill:#ffffff;fill-rule:evenodd;stroke-width:0.26458332"
       id="path3264"
       inkscape:connector-curvature="0" />
    <path
       d="m 147.99404,196.00597 a 9.3750077,18.749989 0 0 0 9.375,18.74999"
       style="fill:none;stroke:#000000;stroke-width:1.58749998;stroke-linecap:round;stroke-linejoin:round;stroke-dasharray:none"
       id="path3266"
       inkscape:connector-curvature="0" />
    <path
       d="m 166.74405,196.00597 a 9.3750077,18.749989 0 0 1 -9.37501,18.74999"
       style="fill:none;stroke:#000000;stroke-width:1.58749998;stroke-linecap:round;stroke-linejoin:round;stroke-dasharray:none"
       id="path3268"
       inkscape:connector-curvature="0" />
    <path
       d="m 157.36904,193.08097 v 21.67499"
       style="fill:none;stroke:#000000;stroke-width:1.58749998;stroke-linecap:round;stroke-linejoin:round;stroke-dasharray:none"
       id="path3270"
       inkscape:connector-curvature="0" />
    <path
       d="m 147.99404,196.00597 a 9.3750077,3.7499925 0 0 1 9.375,-3.75002 9.3750077,3.7499925 0 0 1 9.37501,3.75002"
       style="fill:none;stroke:#000000;stroke-width:1.58749998;stroke-linecap:round;stroke-linejoin:round;stroke-dasharray:none"
       id="path3272"
       inkscape:connector-curvature="0" />
    <g
       transform="matrix(0.26458333,0,0,0.26458333,132.61905,-38.369045)"
       id="Layer1338">
      <path
         d="m 87.874,868.8189 h 11.3386 v -2.8346 H 87.874 Z"
         style="fill:#000000;fill-rule:evenodd;stroke-width:6;stroke-linecap:round;stroke-linejoin:round"
         id="path3274"
         inkscape:connector-curvature="0" />
      <path
         d="m 87.874,868.8189 h 11.3386 v -2.8346 H 87.874 Z"
         style="fill:none;stroke:#000000;stroke-width:6;stroke-linecap:round;stroke-linejoin:round;stroke-dasharray:none"
         id="path3276"
         inkscape:connector-curvature="0" />
    </g>
    <path
       d="m 148.36906,201.63096 h 18"
       style="fill:none;stroke:#000000;stroke-width:1.58749998;stroke-linecap:round;stroke-linejoin:round;stroke-dasharray:none"
       id="path3279"
       inkscape:connector-curvature="0" />
    <g
       transform="matrix(0.26458333,0,0,0.26458333,132.61905,-38.369045)"
       id="Layer1339">
      <path
         d="M 95.5199,882.9635 A 17.9882,16.5718 165 1 1 73.8555,871.6121 17.9882,16.5718 165 0 1 95.5199,882.9635 Z"
         style="fill:#000000;fill-rule:evenodd;stroke-width:0.75;stroke-linecap:round;stroke-linejoin:round"
         id="path3281"
         inkscape:connector-curvature="0" />
      <path
         d="M 95.5199,882.9635 A 17.9882,16.5718 165 1 1 73.8555,871.6121 17.9882,16.5718 165 0 1 95.5199,882.9635 Z"
         style="fill:none;stroke:#000000;stroke-width:0.75;stroke-linecap:round;stroke-linejoin:round;stroke-dasharray:none"
         id="path3283"
         inkscape:connector-curvature="0" />
    </g>
    <g
       transform="matrix(0.26458333,0,0,0.26458333,132.61905,-38.369045)"
       id="Layer1340">
      <path
         d="m 119.2938,934.5424 a 13.7886,25.358 -165 1 1 -6.7556,-28.0627 13.7886,25.358 -165 0 1 6.7556,28.0627 z"
         style="fill:#000000;fill-rule:evenodd;stroke-width:0.75;stroke-linecap:round;stroke-linejoin:round"
         id="path3286"
         inkscape:connector-curvature="0" />
      <path
         d="m 119.2938,934.5424 a 13.7886,25.358 -165 1 1 -6.7556,-28.0627 13.7886,25.358 -165 0 1 6.7556,28.0627 z"
         style="fill:none;stroke:#000000;stroke-width:0.75;stroke-linecap:round;stroke-linejoin:round;stroke-dasharray:none"
         id="path3288"
         inkscape:connector-curvature="0" />
    </g>
    <g
       transform="matrix(0.26458333,0,0,0.26458333,132.61905,-38.369045)"
       id="Layer1341">
      <path
         d="M 60.9449,904.252 H 93.5433 V 877.3228 H 60.9449 Z"
         style="fill:#000000;fill-rule:evenodd;stroke-width:0.75;stroke-linecap:round;stroke-linejoin:round"
         id="path3291"
         inkscape:connector-curvature="0" />
      <path
         d="M 60.9449,904.252 H 93.5433 V 877.3228 H 60.9449 Z"
         style="fill:none;stroke:#000000;stroke-width:0.75;stroke-linecap:round;stroke-linejoin:round;stroke-dasharray:none"
         id="path3293"
         inkscape:connector-curvature="0" />
    </g>
    <g
       transform="matrix(0.26458333,0,0,0.26458333,132.61905,-38.369045)"
       id="Layer1342">
      <path
         d="m 93.5433,922.3937 h 32.5984 V 909.9213 H 93.5433 Z"
         style="fill:#000000;fill-rule:evenodd;stroke-width:0.75;stroke-linecap:round;stroke-linejoin:round"
         id="path3296"
         inkscape:connector-curvature="0" />
      <path
         d="m 93.5433,922.3937 h 32.5984 V 909.9213 H 93.5433 Z"
         style="fill:none;stroke:#000000;stroke-width:0.75;stroke-linecap:round;stroke-linejoin:round;stroke-dasharray:none"
         id="path3298"
         inkscape:connector-curvature="0" />
    </g>
    <g
       transform="matrix(0.26458333,0,0,0.26458333,132.61905,-38.369045)"
       id="Layer1343">
      <path
         d="m 63.6628,874.4882 10.9522,-2.9347 -0.7336,-2.738 -10.9523,2.9346 z"
         style="fill:#000000;fill-rule:evenodd;stroke-width:6;stroke-linecap:round;stroke-linejoin:round"
         id="path3301"
         inkscape:connector-curvature="0" />
      <path
         d="m 63.6628,874.4882 10.9522,-2.9347 -0.7336,-2.738 -10.9523,2.9346 z"
         style="fill:none;stroke:#000000;stroke-width:6;stroke-linecap:round;stroke-linejoin:round;stroke-dasharray:none"
         id="path3303"
         inkscape:connector-curvature="0" />
    </g>
    <g
       transform="matrix(0.26458333,0,0,0.26458333,132.61905,-38.369045)"
       id="Layer1344">
      <path
         d="m 113.0385,871.2701 10.9522,2.9346 0.7337,-2.738 -10.9522,-2.9347 z"
         style="fill:#000000;fill-rule:evenodd;stroke-width:6;stroke-linecap:round;stroke-linejoin:round"
         id="path3306"
         inkscape:connector-curvature="0" />
      <path
         d="m 113.0385,871.2701 10.9522,2.9346 0.7337,-2.738 -10.9522,-2.9347 z"
         style="fill:none;stroke:#000000;stroke-width:6;stroke-linecap:round;stroke-linejoin:round;stroke-dasharray:none"
         id="path3308"
         inkscape:connector-curvature="0" />
    </g>
  </g>
</svg>
