<?xml version="1.0" encoding="UTF-8" standalone="no"?>
<!-- Created with Inkscape (http://www.inkscape.org/) -->

<svg
   xmlns:dc="http://purl.org/dc/elements/1.1/"
   xmlns:cc="http://creativecommons.org/ns#"
   xmlns:rdf="http://www.w3.org/1999/02/22-rdf-syntax-ns#"
   xmlns:svg="http://www.w3.org/2000/svg"
   xmlns="http://www.w3.org/2000/svg"
   xmlns:sodipodi="http://sodipodi.sourceforge.net/DTD/sodipodi-0.dtd"
   xmlns:inkscape="http://www.inkscape.org/namespaces/inkscape"
   width="33.813511mm"
   height="33.813484mm"
   viewBox="0 0 33.813511 33.813484"
   version="1.1"
   id="svg19955"
   inkscape:version="0.92.3 (2405546, 2018-03-11)"
   sodipodi:docname="alarm.svg">
  <defs
     id="defs19949" />
  <sodipodi:namedview
     id="base"
     pagecolor="#ffffff"
     bordercolor="#666666"
     borderopacity="1.0"
     inkscape:pageopacity="0.0"
     inkscape:pageshadow="2"
     inkscape:zoom="0.35"
     inkscape:cx="-163.62947"
     inkscape:cy="262.08473"
     inkscape:document-units="mm"
     inkscape:current-layer="layer1"
     showgrid="false"
     fit-margin-top="0"
     fit-margin-left="0"
     fit-margin-right="0"
     fit-margin-bottom="0"
     inkscape:window-width="594"
     inkscape:window-height="633"
     inkscape:window-x="1231"
     inkscape:window-y="7"
     inkscape:window-maximized="0" />
  <metadata
     id="metadata19952">
    <rdf:RDF>
      <cc:Work
         rdf:about="">
        <dc:format>image/svg+xml</dc:format>
        <dc:type
           rdf:resource="http://purl.org/dc/dcmitype/StillImage" />
        <dc:title></dc:title>
      </cc:Work>
    </rdf:RDF>
  </metadata>
  <g
     inkscape:label="Layer 1"
     inkscape:groupmode="layer"
     id="layer1"
     transform="translate(-88.926576,-131.92659)">
    <g
       transform="matrix(0.26458333,0,0,0.26458333,43.958337,-910.54165)"
       id="Layer1000">
      <path
         d="M 289.1339,3940.1575 H 178.5827 q -8.504,0 -8.504,8.5039 v 110.5512 q 0,8.5039 8.504,8.5039 h 110.5512 q 8.5039,0 8.5039,-8.5039 v -110.5512 q 0,-8.5039 -8.5039,-8.5039 z"
         style="fill:#00ea00;fill-rule:evenodd;stroke-width:0.23999999;stroke-linecap:round;stroke-linejoin:round"
         id="path14883"
         inkscape:connector-curvature="0" />
      <path
         d="M 289.1339,3940.1575 H 178.5827 q -8.504,0 -8.504,8.5039 v 110.5512 q 0,8.5039 8.504,8.5039 h 110.5512 q 8.5039,0 8.5039,-8.5039 v -110.5512 q 0,-8.5039 -8.5039,-8.5039 z"
         style="fill:none;stroke:#ffffff;stroke-width:0.23999999;stroke-linecap:round;stroke-linejoin:round;stroke-dasharray:none"
         id="path14885"
         inkscape:connector-curvature="0" />
    </g>
    <path
       d="M 117.45835,147.33334 H 94.958335 v 3.74999 h 22.500015 z"
       style="fill:#000000;fill-rule:evenodd;stroke-width:0.26458332"
       id="path14888"
       inkscape:connector-curvature="0" />
    <path
       d="m 108.08334,160.45834 v -22.50001 h -3.74999 v 22.50001 z"
       style="fill:#000000;fill-rule:evenodd;stroke-width:0.26458332"
       id="path14890"
       inkscape:connector-curvature="0" />
    <path
       d="m 97.021795,142.48499 15.909905,15.90992 2.65165,-2.65165 -15.909925,-15.9099 z"
       style="fill:#000000;fill-rule:evenodd;stroke-width:0.26458332"
       id="path14892"
       inkscape:connector-curvature="0" />
    <path
       d="m 112.36824,139.45834 -15.909905,15.90992 2.65166,2.65163 15.909905,-15.9099 z"
       style="fill:#000000;fill-rule:evenodd;stroke-width:0.26458332"
       id="path14894"
       inkscape:connector-curvature="0" />
    <path
       d="M 112.96993,155.73291 A 9.603449,9.603449 0 0 1 99.153645,142.39069 9.603449,9.603449 0 1 1 112.96993,155.73291 Z"
       style="fill:#000000;fill-rule:evenodd;stroke-width:0.26458332"
       id="path19023"
       inkscape:connector-curvature="0" />
    <path
       d="m 110.1794,152.74084 a 5.6248639,5.6248639 0 0 1 -8.09239,-7.8147 5.6248639,5.6248639 0 1 1 8.09239,7.8147 z"
       style="fill:#ffffff;fill-rule:evenodd;stroke-width:0.26458332"
       id="path19025"
       inkscape:connector-curvature="0" />
    <path
       d="m 104.89585,143.77083 v 10.12503 h 2.62499 v -10.12503 z"
       style="fill:#ff0000;fill-rule:evenodd;stroke-width:0.26458332"
       id="path19027"
       inkscape:connector-curvature="0" />
    <path
       d="m 111.08335,147.89585 h -9.75001 v 2.62501 h 9.75001 z"
       style="fill:#ff0000;fill-rule:evenodd;stroke-width:0.26458332"
       id="path19029"
       inkscape:connector-curvature="0" />
  </g>
</svg>
