<?xml version="1.0" encoding="UTF-8" standalone="no"?>
<!-- Created with Inkscape (http://www.inkscape.org/) -->

<svg
   xmlns:dc="http://purl.org/dc/elements/1.1/"
   xmlns:cc="http://creativecommons.org/ns#"
   xmlns:rdf="http://www.w3.org/1999/02/22-rdf-syntax-ns#"
   xmlns:svg="http://www.w3.org/2000/svg"
   xmlns="http://www.w3.org/2000/svg"
   xmlns:sodipodi="http://sodipodi.sourceforge.net/DTD/sodipodi-0.dtd"
   xmlns:inkscape="http://www.inkscape.org/namespaces/inkscape"
   width="33.813484mm"
   height="33.813484mm"
   viewBox="0 0 33.813484 33.813484"
   version="1.1"
   id="svg19955"
   inkscape:version="0.92.3 (2405546, 2018-03-11)"
   sodipodi:docname="lost.svg">
  <defs
     id="defs19949" />
  <sodipodi:namedview
     id="base"
     pagecolor="#ffffff"
     bordercolor="#666666"
     borderopacity="1.0"
     inkscape:pageopacity="0.0"
     inkscape:pageshadow="2"
     inkscape:zoom="0.35"
     inkscape:cx="63.899498"
     inkscape:cy="63.899489"
     inkscape:document-units="mm"
     inkscape:current-layer="layer1"
     showgrid="false"
     fit-margin-top="0"
     fit-margin-left="0"
     fit-margin-right="0"
     fit-margin-bottom="0"
     inkscape:window-width="594"
     inkscape:window-height="633"
     inkscape:window-x="1231"
     inkscape:window-y="7"
     inkscape:window-maximized="0" />
  <metadata
     id="metadata19952">
    <rdf:RDF>
      <cc:Work
         rdf:about="">
        <dc:format>image/svg+xml</dc:format>
        <dc:type
           rdf:resource="http://purl.org/dc/dcmitype/StillImage" />
        <dc:title></dc:title>
      </cc:Work>
    </rdf:RDF>
  </metadata>
  <g
     inkscape:label="Layer 1"
     inkscape:groupmode="layer"
     id="layer1"
     transform="translate(-119.44049,-230.68055)">
    <g
       transform="matrix(0.26458333,0,0,0.26458333,-38.027758,-811.78769)"
       id="Layer1470">
      <path
         d="M 714.3307,3940.1575 H 603.7795 q -8.5039,0 -8.5039,8.5039 v 110.5512 q 0,8.5039 8.5039,8.5039 h 110.5512 q 8.5039,0 8.5039,-8.5039 v -110.5512 q 0,-8.5039 -8.5039,-8.5039 z"
         style="fill:#ffc000;fill-rule:evenodd;stroke-width:0.23999999;stroke-linecap:round;stroke-linejoin:round"
         id="path18977"
         inkscape:connector-curvature="0" />
      <path
         d="M 714.3307,3940.1575 H 603.7795 q -8.5039,0 -8.5039,8.5039 v 110.5512 q 0,8.5039 8.5039,8.5039 h 110.5512 q 8.5039,0 8.5039,-8.5039 v -110.5512 q 0,-8.5039 -8.5039,-8.5039 z"
         style="fill:none;stroke:#ffffff;stroke-width:0.23999999;stroke-linecap:round;stroke-linejoin:round;stroke-dasharray:none"
         id="path18979"
         inkscape:connector-curvature="0" />
    </g>
    <path
       d="m 143.48381,254.48688 a 9.603449,9.603449 0 1 1 -13.81627,-13.34222 9.603449,9.603449 0 0 1 13.81627,13.34222 z"
       style="fill:#000000;fill-rule:evenodd;stroke-width:0.26458332"
       id="path18982"
       inkscape:connector-curvature="0" />
    <path
       d="M 138.59725,259.21231 V 236.7123 h -3.75002 v 22.50001 z"
       style="fill:#000000;fill-rule:evenodd;stroke-width:0.26458332"
       id="path18984"
       inkscape:connector-curvature="0" />
    <path
       d="m 147.97223,246.08731 h -22.49998 v 3.74999 h 22.49998 z"
       style="fill:#000000;fill-rule:evenodd;stroke-width:0.26458332"
       id="path18986"
       inkscape:connector-curvature="0" />
    <path
       d="m 142.88215,238.2123 -15.90993,15.90993 2.65166,2.65163 15.9099,-15.9099 z"
       style="fill:#000000;fill-rule:evenodd;stroke-width:0.26458332"
       id="path18988"
       inkscape:connector-curvature="0" />
    <path
       d="m 127.53568,241.23895 15.9099,15.90993 2.65165,-2.65166 -15.90989,-15.90989 z"
       style="fill:#000000;fill-rule:evenodd;stroke-width:0.26458332"
       id="path18990"
       inkscape:connector-curvature="0" />
    <path
       d="m 140.69328,251.49481 a 5.6248565,5.6248565 0 0 1 -8.09236,-7.81471 5.6248565,5.6248565 0 0 1 8.09236,7.81471 z"
       style="fill:#ffffff;fill-rule:evenodd;stroke-width:0.26458332"
       id="path18992"
       inkscape:connector-curvature="0" />
  </g>
</svg>
